<?plantuml 1.2026.1?><svg xmlns="http://www.w3.org/2000/svg" xmlns:xlink="http://www.w3.org/1999/xlink" contentStyleType="text/css" data-diagram-type="DESCRIPTION" height="1889px" preserveAspectRatio="none" style="width:343px;height:1889px;background:#FFFFFF;" version="1.1" viewBox="0 0 343 1889" width="343px" zoomAndPan="magnify"><title>TPS &#26657;&#22253;&#20108;&#25163;&#20132;&#26131;&#31995;&#32479;&#29992;&#20363;&#22270;</title><defs/><g><g class="title" data-source-line="6"><text fill="#000000" font-family="sans-serif" font-size="14" font-weight="bold" lengthAdjust="spacing" textLength="185.1165" x="72.2017" y="23.1318">TPS &#26657;&#22253;&#20108;&#25163;&#20132;&#26131;&#31995;&#32479;&#29992;&#20363;&#22270;</text></g><!--cluster TPS ????????--><g class="cluster" data-qualified-name="TPS ........" data-source-line="13" id="ent0006"><rect fill="none" height="1839" rx="2.5" ry="2.5" style="stroke:#181818;stroke-width:1;" width="187.52" x="150" y="44.0986"/><text fill="#000000" font-family="sans-serif" font-size="14" font-weight="bold" lengthAdjust="spacing" textLength="143.1167" x="172.2017" y="59.2305">TPS &#26657;&#22253;&#20108;&#25163;&#20132;&#26131;&#31995;&#32479;</text></g><!--entity UC_Login--><g class="entity" data-qualified-name="TPS .........UC_Login" data-source-line="14" id="ent0007"><ellipse cx="243.7582" cy="93.1021" fill="#F1F1F1" rx="45.3482" ry="14.3835" style="stroke:#181818;stroke-width:0.5;"/><text fill="#000000" font-family="sans-serif" font-size="14" lengthAdjust="spacing" textLength="59.8894" x="213.8135" y="97.6514">&#27880;&#20876;/&#30331;&#24405;</text></g><!--entity UC_Profile--><g class="entity" data-qualified-name="TPS .........UC_Profile" data-source-line="15" id="ent0008"><ellipse cx="243.7602" cy="157.1027" fill="#F1F1F1" rx="61.1702" ry="14.634" style="stroke:#181818;stroke-width:0.5;"/><text fill="#000000" font-family="sans-serif" font-size="14" lengthAdjust="spacing" textLength="83.9996" x="201.7604" y="161.652">&#32500;&#25252;&#20010;&#20154;&#36164;&#26009;</text></g><!--entity UC_Browse--><g class="entity" data-qualified-name="TPS .........UC_Browse" data-source-line="16" id="ent0009"><ellipse cx="243.7578" cy="559.1021" fill="#F1F1F1" rx="42.5978" ry="14.3835" style="stroke:#181818;stroke-width:0.5;"/><text fill="#000000" font-family="sans-serif" font-size="14" lengthAdjust="spacing" textLength="55.9998" x="215.7579" y="563.6514">&#27983;&#35272;&#21830;&#21697;</text></g><!--entity UC_Search--><g class="entity" data-qualified-name="TPS .........UC_Search" data-source-line="17" id="ent0010"><ellipse cx="243.7595" cy="478.1005" fill="#F1F1F1" rx="66.4095" ry="15.6819" style="stroke:#181818;stroke-width:0.5;"/><text fill="#000000" font-family="sans-serif" font-size="14" lengthAdjust="spacing" textLength="97.9996" x="194.7597" y="482.6499">&#25628;&#32034;&#19982;&#31579;&#36873;&#21830;&#21697;</text></g><!--entity UC_Detail--><g class="entity" data-qualified-name="TPS .........UC_Detail" data-source-line="18" id="ent0011"><ellipse cx="243.7602" cy="639.1027" fill="#F1F1F1" rx="61.1702" ry="14.634" style="stroke:#181818;stroke-width:0.5;"/><text fill="#000000" font-family="sans-serif" font-size="14" lengthAdjust="spacing" textLength="83.9996" x="201.7604" y="643.652">&#26597;&#30475;&#21830;&#21697;&#35814;&#24773;</text></g><!--entity UC_Publish--><g class="entity" data-qualified-name="TPS .........UC_Publish" data-source-line="19" id="ent0012"><ellipse cx="243.7578" cy="1186.1021" fill="#F1F1F1" rx="42.5978" ry="14.3835" style="stroke:#181818;stroke-width:0.5;"/><text fill="#000000" font-family="sans-serif" font-size="14" lengthAdjust="spacing" textLength="55.9998" x="215.7579" y="1190.6514">&#21457;&#24067;&#21830;&#21697;</text></g><!--entity UC_Edit--><g class="entity" data-qualified-name="TPS .........UC_Edit" data-source-line="20" id="ent0013"><ellipse cx="243.7578" cy="1250.1021" fill="#F1F1F1" rx="42.5978" ry="14.3835" style="stroke:#181818;stroke-width:0.5;"/><text fill="#000000" font-family="sans-serif" font-size="14" lengthAdjust="spacing" textLength="55.9998" x="215.7579" y="1254.6514">&#32534;&#36753;&#21830;&#21697;</text></g><!--entity UC_OffShelf--><g class="entity" data-qualified-name="TPS .........UC_OffShelf" data-source-line="21" id="ent0014"><ellipse cx="243.7604" cy="1316.0987" fill="#F1F1F1" rx="73.5504" ry="17.1101" style="stroke:#181818;stroke-width:0.5;"/><text fill="#000000" font-family="sans-serif" font-size="14" lengthAdjust="spacing" textLength="115.8892" x="185.8158" y="1320.648">&#19979;&#26550;/&#37325;&#26032;&#19978;&#26550;&#21830;&#21697;</text></g><!--entity UC_Favorite--><g class="entity" data-qualified-name="TPS .........UC_Favorite" data-source-line="22" id="ent0015"><ellipse cx="243.7578" cy="221.1021" fill="#F1F1F1" rx="42.5978" ry="14.3835" style="stroke:#181818;stroke-width:0.5;"/><text fill="#000000" font-family="sans-serif" font-size="14" lengthAdjust="spacing" textLength="55.9998" x="215.7579" y="225.6514">&#25910;&#34255;&#21830;&#21697;</text></g><!--entity UC_History--><g class="entity" data-qualified-name="TPS .........UC_History" data-source-line="23" id="ent0016"><ellipse cx="243.7602" cy="285.1027" fill="#F1F1F1" rx="61.1702" ry="14.634" style="stroke:#181818;stroke-width:0.5;"/><text fill="#000000" font-family="sans-serif" font-size="14" lengthAdjust="spacing" textLength="83.9996" x="201.7604" y="289.652">&#26597;&#30475;&#27983;&#35272;&#21382;&#21490;</text></g><!--entity UC_Chat--><g class="entity" data-qualified-name="TPS .........UC_Chat" data-source-line="24" id="ent0017"><ellipse cx="243.7604" cy="1120.0987" fill="#F1F1F1" rx="73.5504" ry="17.1101" style="stroke:#181818;stroke-width:0.5;"/><text fill="#000000" font-family="sans-serif" font-size="14" lengthAdjust="spacing" textLength="115.8892" x="185.8158" y="1124.648">&#21457;&#36215;&#20250;&#35805;/&#31169;&#20449;&#27807;&#36890;</text></g><!--entity UC_Order--><g class="entity" data-qualified-name="TPS .........UC_Order" data-source-line="25" id="ent0018"><ellipse cx="243.7578" cy="846.1021" fill="#F1F1F1" rx="42.5978" ry="14.3835" style="stroke:#181818;stroke-width:0.5;"/><text fill="#000000" font-family="sans-serif" font-size="14" lengthAdjust="spacing" textLength="55.9998" x="215.7579" y="850.6514">&#21019;&#24314;&#35746;&#21333;</text></g><!--entity UC_Pay--><g class="entity" data-qualified-name="TPS .........UC_Pay" data-source-line="26" id="ent0019"><ellipse cx="243.7578" cy="767.1021" fill="#F1F1F1" rx="42.5978" ry="14.3835" style="stroke:#181818;stroke-width:0.5;"/><text fill="#000000" font-family="sans-serif" font-size="14" lengthAdjust="spacing" textLength="55.9998" x="215.7579" y="771.6514">&#25903;&#20184;&#35746;&#21333;</text></g><!--entity UC_Ship--><g class="entity" data-qualified-name="TPS .........UC_Ship" data-source-line="27" id="ent0020"><ellipse cx="243.7589" cy="1382.1021" fill="#F1F1F1" rx="22.7989" ry="14.3835" style="stroke:#181818;stroke-width:0.5;"/><text fill="#000000" font-family="sans-serif" font-size="14" lengthAdjust="spacing" textLength="27.9999" x="229.759" y="1386.6514">&#21457;&#36135;</text></g><!--entity UC_Confirm--><g class="entity" data-qualified-name="TPS .........UC_Confirm" data-source-line="28" id="ent0021"><ellipse cx="243.7578" cy="925.1021" fill="#F1F1F1" rx="42.5978" ry="14.3835" style="stroke:#181818;stroke-width:0.5;"/><text fill="#000000" font-family="sans-serif" font-size="14" lengthAdjust="spacing" textLength="55.9998" x="215.7579" y="929.6514">&#30830;&#35748;&#25910;&#36135;</text></g><!--entity UC_Refund--><g class="entity" data-qualified-name="TPS .........UC_Refund" data-source-line="29" id="ent0022"><ellipse cx="243.7578" cy="989.1021" fill="#F1F1F1" rx="42.5978" ry="14.3835" style="stroke:#181818;stroke-width:0.5;"/><text fill="#000000" font-family="sans-serif" font-size="14" lengthAdjust="spacing" textLength="55.9998" x="215.7579" y="993.6514">&#30003;&#35831;&#36864;&#27454;</text></g><!--entity UC_Review--><g class="entity" data-qualified-name="TPS .........UC_Review" data-source-line="30" id="ent0023"><ellipse cx="243.7602" cy="1053.1027" fill="#F1F1F1" rx="61.1702" ry="14.634" style="stroke:#181818;stroke-width:0.5;"/><text fill="#000000" font-family="sans-serif" font-size="14" lengthAdjust="spacing" textLength="83.9996" x="201.7604" y="1057.652">&#35780;&#20215;&#20132;&#26131;&#23545;&#35937;</text></g><!--entity UC_Report--><g class="entity" data-qualified-name="TPS .........UC_Report" data-source-line="31" id="ent0024"><ellipse cx="243.7578" cy="703.1021" fill="#F1F1F1" rx="42.5978" ry="14.3835" style="stroke:#181818;stroke-width:0.5;"/><text fill="#000000" font-family="sans-serif" font-size="14" lengthAdjust="spacing" textLength="55.9998" x="215.7579" y="707.6514">&#20030;&#25253;&#21830;&#21697;</text></g><!--entity UC_Feedback--><g class="entity" data-qualified-name="TPS .........UC_Feedback" data-source-line="32" id="ent0025"><ellipse cx="243.7578" cy="349.1021" fill="#F1F1F1" rx="42.5978" ry="14.3835" style="stroke:#181818;stroke-width:0.5;"/><text fill="#000000" font-family="sans-serif" font-size="14" lengthAdjust="spacing" textLength="55.9998" x="215.7579" y="353.6514">&#25552;&#20132;&#21453;&#39304;</text></g><!--entity UC_Notice--><g class="entity" data-qualified-name="TPS .........UC_Notice" data-source-line="33" id="ent0026"><ellipse cx="243.7578" cy="413.1021" fill="#F1F1F1" rx="42.5978" ry="14.3835" style="stroke:#181818;stroke-width:0.5;"/><text fill="#000000" font-family="sans-serif" font-size="14" lengthAdjust="spacing" textLength="55.9998" x="215.7579" y="417.6514">&#26597;&#30475;&#36890;&#30693;</text></g><!--entity UC_Stats--><g class="entity" data-qualified-name="TPS .........UC_Stats" data-source-line="35" id="ent0027"><ellipse cx="243.7602" cy="1789.1027" fill="#F1F1F1" rx="61.1702" ry="14.634" style="stroke:#181818;stroke-width:0.5;"/><text fill="#000000" font-family="sans-serif" font-size="14" lengthAdjust="spacing" textLength="83.9996" x="201.7604" y="1793.652">&#26597;&#30475;&#24179;&#21488;&#32479;&#35745;</text></g><!--entity UC_UserAdmin--><g class="entity" data-qualified-name="TPS .........UC_UserAdmin" data-source-line="36" id="ent0028"><ellipse cx="243.7578" cy="1853.1021" fill="#F1F1F1" rx="42.5978" ry="14.3835" style="stroke:#181818;stroke-width:0.5;"/><text fill="#000000" font-family="sans-serif" font-size="14" lengthAdjust="spacing" textLength="55.9998" x="215.7579" y="1857.6514">&#31649;&#29702;&#29992;&#25143;</text></g><!--entity UC_ReportAdmin--><g class="entity" data-qualified-name="TPS .........UC_ReportAdmin" data-source-line="37" id="ent0029"><ellipse cx="243.7578" cy="1645.1021" fill="#F1F1F1" rx="42.5978" ry="14.3835" style="stroke:#181818;stroke-width:0.5;"/><text fill="#000000" font-family="sans-serif" font-size="14" lengthAdjust="spacing" textLength="55.9998" x="215.7579" y="1649.6514">&#22788;&#29702;&#20030;&#25253;</text></g><!--entity UC_Takedown--><g class="entity" data-qualified-name="TPS .........UC_Takedown" data-source-line="38" id="ent0030"><ellipse cx="243.7602" cy="1725.1027" fill="#F1F1F1" rx="61.1702" ry="14.634" style="stroke:#181818;stroke-width:0.5;"/><text fill="#000000" font-family="sans-serif" font-size="14" lengthAdjust="spacing" textLength="83.9996" x="201.7604" y="1729.652">&#24378;&#21046;&#19979;&#26550;&#21830;&#21697;</text></g><!--entity UC_OrderAdmin--><g class="entity" data-qualified-name="TPS .........UC_OrderAdmin" data-source-line="39" id="ent0031"><ellipse cx="243.758" cy="1449.1002" fill="#F1F1F1" rx="77.758" ry="17.9516" style="stroke:#181818;stroke-width:0.5;"/><text fill="#000000" font-family="sans-serif" font-size="14" lengthAdjust="spacing" textLength="125.9995" x="180.7582" y="1453.6495">&#26597;&#30475;&#35746;&#21333;&#24182;&#22788;&#29702;&#32416;&#32439;</text></g><!--entity UC_FeedbackAdmin--><g class="entity" data-qualified-name="TPS .........UC_FeedbackAdmin" data-source-line="40" id="ent0032"><ellipse cx="243.7602" cy="1517.1027" fill="#F1F1F1" rx="61.1702" ry="14.634" style="stroke:#181818;stroke-width:0.5;"/><text fill="#000000" font-family="sans-serif" font-size="14" lengthAdjust="spacing" textLength="83.9996" x="201.7604" y="1521.652">&#22238;&#22797;&#29992;&#25143;&#21453;&#39304;</text></g><!--entity UC_Announcement--><g class="entity" data-qualified-name="TPS .........UC_Announcement" data-source-line="41" id="ent0033"><ellipse cx="243.7602" cy="1581.1027" fill="#F1F1F1" rx="61.1702" ry="14.634" style="stroke:#181818;stroke-width:0.5;"/><text fill="#000000" font-family="sans-serif" font-size="14" lengthAdjust="spacing" textLength="83.9996" x="201.7604" y="1585.652">&#21457;&#24067;&#31995;&#32479;&#20844;&#21578;</text></g><!--entity User--><g class="entity" data-qualified-name="User" data-source-line="8" id="ent0002"><ellipse cx="33.9999" cy="327.0486" fill="#F1F1F1" rx="16" ry="16" style="stroke:#181818;stroke-width:0.5;"/><path d="M33.9999,347.0486 C37.9999,347.0486 40.9999,347.0486 44.9999,343.0486 C52.9999,343.0486 60.9999,351.0486 60.9999,359.0486 L60.9999,363.0486 C60.9999,367.0486 56.9999,371.0486 52.9999,371.0486 L14.9999,371.0486 C10.9999,371.0486 6.9999,367.0486 6.9999,363.0486 L6.9999,359.0486 C6.9999,351.0486 14.9999,343.0486 22.9999,343.0486 C26.9999,347.0486 29.9999,347.0486 33.9999,347.0486" fill="#F1F1F1" style="stroke:#181818;stroke-width:0.5;"/><text fill="#000000" font-family="sans-serif" font-size="14" lengthAdjust="spacing" textLength="55.9998" x="6" y="384.6805">&#26222;&#36890;&#29992;&#25143;</text></g><!--entity Buyer--><g class="entity" data-qualified-name="Buyer" data-source-line="9" id="ent0003"><ellipse cx="34" cy="871.0486" fill="#F1F1F1" rx="16" ry="16" style="stroke:#181818;stroke-width:0.5;"/><path d="M34,891.0486 C38,891.0486 41,891.0486 45,887.0486 C53,887.0486 61,895.0486 61,903.0486 L61,907.0486 C61,911.0486 57,915.0486 53,915.0486 L15,915.0486 C11,915.0486 7,911.0486 7,907.0486 L7,903.0486 C7,895.0486 15,887.0486 23,887.0486 C27,891.0486 30,891.0486 34,891.0486" fill="#F1F1F1" style="stroke:#181818;stroke-width:0.5;"/><text fill="#000000" font-family="sans-serif" font-size="14" lengthAdjust="spacing" textLength="27.9999" x="20.0001" y="928.6805">&#20080;&#23478;</text></g><!--entity Seller--><g class="entity" data-qualified-name="Seller" data-source-line="10" id="ent0004"><ellipse cx="34" cy="1206.0486" fill="#F1F1F1" rx="16" ry="16" style="stroke:#181818;stroke-width:0.5;"/><path d="M34,1226.0486 C38,1226.0486 41,1226.0486 45,1222.0486 C53,1222.0486 61,1230.0486 61,1238.0486 L61,1242.0486 C61,1246.0486 57,1250.0486 53,1250.0486 L15,1250.0486 C11,1250.0486 7,1246.0486 7,1242.0486 L7,1238.0486 C7,1230.0486 15,1222.0486 23,1222.0486 C27,1226.0486 30,1226.0486 34,1226.0486" fill="#F1F1F1" style="stroke:#181818;stroke-width:0.5;"/><text fill="#000000" font-family="sans-serif" font-size="14" lengthAdjust="spacing" textLength="27.9999" x="20.0001" y="1263.6805">&#21334;&#23478;</text></g><!--entity Admin--><g class="entity" data-qualified-name="Admin" data-source-line="11" id="ent0005"><ellipse cx="34" cy="1623.0486" fill="#F1F1F1" rx="16" ry="16" style="stroke:#181818;stroke-width:0.5;"/><path d="M34,1643.0486 C38,1643.0486 41,1643.0486 45,1639.0486 C53,1639.0486 61,1647.0486 61,1655.0486 L61,1659.0486 C61,1663.0486 57,1667.0486 53,1667.0486 L15,1667.0486 C11,1667.0486 7,1663.0486 7,1659.0486 L7,1655.0486 C7,1647.0486 15,1639.0486 23,1639.0486 C27,1643.0486 30,1643.0486 34,1643.0486" fill="#F1F1F1" style="stroke:#181818;stroke-width:0.5;"/><text fill="#000000" font-family="sans-serif" font-size="14" lengthAdjust="spacing" textLength="41.9998" x="13.0001" y="1680.6805">&#31649;&#29702;&#21592;</text></g><!--link User to UC_Login--><g class="link" data-entity-1="ent0002" data-entity-2="ent0007" data-link-type="dependency" data-source-line="44" id="lnk34"><path d="M41.48,310.2686 C52.35,258.5486 79.54,168.5186 142,125.0986 C160.23,112.4186 177.9068,105.9837 197.6268,101.2337" fill="none" id="User-to-UC_Login" style="stroke:#181818;stroke-width:1;"/><polygon fill="#181818" points="203.46,99.8286,193.7736,98.0474,198.599,100.9995,195.6469,105.825,203.46,99.8286" style="stroke:#181818;stroke-width:1;"/></g><!--link User to UC_Profile--><g class="link" data-entity-1="ent0002" data-entity-2="ent0008" data-link-type="dependency" data-source-line="45" id="lnk35"><path d="M50.35,310.1986 C67.12,272.9986 97.66,218.3686 142,189.0986 C157.93,178.5786 171.7682,172.932 189.4382,168.032" fill="none" id="User-to-UC_Profile" style="stroke:#181818;stroke-width:1;"/><polygon fill="#181818" points="195.22,166.4286,185.4784,164.9791,190.4018,167.7647,187.6162,172.6882,195.22,166.4286" style="stroke:#181818;stroke-width:1;"/></g><!--link User to UC_Browse--><g class="link" data-entity-1="ent0002" data-entity-2="ent0009" data-link-type="dependency" data-source-line="46" id="lnk36"><path d="M51.94,387.8386 C69.63,424.2186 100.59,477.8786 142,511.0986 C163.16,528.0686 185.7044,538.6991 206.8744,546.7791" fill="none" id="User-to-UC_Browse" style="stroke:#181818;stroke-width:1;"/><polygon fill="#181818" points="212.48,548.9186,205.498,541.9723,207.8087,547.1357,202.6453,549.4464,212.48,548.9186" style="stroke:#181818;stroke-width:1;"/></g><!--link User to UC_Search--><g class="link" data-entity-1="ent0002" data-entity-2="ent0010" data-link-type="dependency" data-source-line="47" id="lnk37"><path d="M62.36,379.5986 C82.58,400.5486 111.75,427.6186 142,445.0986 C158.42,454.5786 172.1802,460.0639 189.6502,465.2739" fill="none" id="User-to-UC_Search" style="stroke:#181818;stroke-width:1;"/><polygon fill="#181818" points="195.4,466.9886,187.9185,460.5834,190.6085,465.5597,185.6322,468.2497,195.4,466.9886" style="stroke:#181818;stroke-width:1;"/></g><!--link User to UC_Detail--><g class="link" data-entity-1="ent0002" data-entity-2="ent0011" data-link-type="dependency" data-source-line="48" id="lnk38"><path d="M41.93,387.9986 C53.43,441.2686 81.45,536.4886 142,591.0986 C160.27,607.5786 179.6068,617.373 200.1068,625.223" fill="none" id="User-to-UC_Detail" style="stroke:#181818;stroke-width:1;"/><polygon fill="#181818" points="205.71,627.3686,198.7356,620.4147,201.0406,625.5806,195.8747,627.8857,205.71,627.3686" style="stroke:#181818;stroke-width:1;"/></g><!--link User to UC_Favorite--><g class="link" data-entity-1="ent0002" data-entity-2="ent0015" data-link-type="dependency" data-source-line="49" id="lnk39"><path d="M62.33,317.2886 C82.31,296.0086 111.21,269.0786 142,253.0986 C162.69,242.3586 181.8514,235.9401 201.7514,230.6501" fill="none" id="User-to-UC_Favorite" style="stroke:#181818;stroke-width:1;"/><polygon fill="#181818" points="207.55,229.1086,197.8244,227.5551,202.7178,230.3932,199.8797,235.2865,207.55,229.1086" style="stroke:#181818;stroke-width:1;"/></g><!--link User to UC_History--><g class="link" data-entity-1="ent0002" data-entity-2="ent0016" data-link-type="dependency" data-source-line="50" id="lnk40"><path d="M62.42,335.3786 C71.67,331.0786 82.15,326.5586 92,323.0986 C126.13,311.1286 159.9822,302.5771 190.0722,295.9071" fill="none" id="User-to-UC_History" style="stroke:#181818;stroke-width:1;"/><polygon fill="#181818" points="195.93,294.6086,186.2776,292.6512,191.0485,295.6907,188.0089,300.4616,195.93,294.6086" style="stroke:#181818;stroke-width:1;"/></g><!--link User to UC_Notice--><g class="link" data-entity-1="ent0002" data-entity-2="ent0026" data-link-type="dependency" data-source-line="51" id="lnk41"><path d="M62.16,357.4686 C100.55,369.2886 164.7757,389.0829 205.4357,401.6029" fill="none" id="User-to-UC_Notice" style="stroke:#181818;stroke-width:1;"/><polygon fill="#181818" points="211.17,403.3686,203.7457,396.8972,206.3914,401.8972,201.3914,404.5429,211.17,403.3686" style="stroke:#181818;stroke-width:1;"/></g><!--link User to UC_Feedback--><g class="link" data-entity-1="ent0002" data-entity-2="ent0025" data-link-type="dependency" data-source-line="52" id="lnk42"><path d="M62.16,349.0986 C97.47,349.0986 153.49,349.0986 194.85,349.0986" fill="none" id="User-to-UC_Feedback" style="stroke:#181818;stroke-width:1;"/><polygon fill="#181818" points="200.85,349.0986,191.85,345.0986,195.85,349.0986,191.85,353.0986,200.85,349.0986" style="stroke:#181818;stroke-width:1;"/></g><!--link Buyer to UC_Chat--><g class="link" data-entity-1="ent0003" data-entity-2="ent0017" data-link-type="dependency" data-source-line="54" id="lnk43"><path d="M40.71,932.0986 C49.31,985.2386 67.26,1076.2986 92,1098.0986 C114.03,1117.5086 139.3071,1123.9269 167.6571,1125.3069" fill="none" id="Buyer-to-UC_Chat" style="stroke:#181818;stroke-width:1;"/><polygon fill="#181818" points="173.65,1125.5986,164.8551,1121.1658,168.6559,1125.3555,164.4662,1129.1563,173.65,1125.5986" style="stroke:#181818;stroke-width:1;"/></g><!--link Buyer to UC_Order--><g class="link" data-entity-1="ent0003" data-entity-2="ent0018" data-link-type="dependency" data-source-line="55" id="lnk44"><path d="M61.93,886.3386 C71.42,883.9886 82.17,881.3786 92,879.0986 C131.15,870.0086 170.3123,861.4916 200.8923,854.9616" fill="none" id="Buyer-to-UC_Order" style="stroke:#181818;stroke-width:1;"/><polygon fill="#181818" points="206.76,853.7086,197.1231,851.6763,201.8702,854.7528,198.7938,859.4999,206.76,853.7086" style="stroke:#181818;stroke-width:1;"/></g><!--link Buyer to UC_Pay--><g class="link" data-entity-1="ent0003" data-entity-2="ent0019" data-link-type="dependency" data-source-line="56" id="lnk45"><path d="M61.95,871.1786 C71.35,863.7086 82.04,855.4086 92,848.0986 C113.67,832.2086 118.64,827.3786 142,814.0986 C166.16,800.3686 189.5089,789.5809 210.1389,780.7009" fill="none" id="Buyer-to-UC_Pay" style="stroke:#181818;stroke-width:1;"/><polygon fill="#181818" points="215.65,778.3286,205.8018,778.2129,211.0574,780.3055,208.9648,785.561,215.65,778.3286" style="stroke:#181818;stroke-width:1;"/></g><!--link Buyer to UC_Confirm--><g class="link" data-entity-1="ent0003" data-entity-2="ent0021" data-link-type="dependency" data-source-line="57" id="lnk46"><path d="M61.74,897.2186 C98.01,902.8086 157.1099,911.9056 198.5499,918.2856" fill="none" id="Buyer-to-UC_Confirm" style="stroke:#181818;stroke-width:1;"/><polygon fill="#181818" points="204.48,919.1986,196.1935,913.8757,199.5382,918.4378,194.9761,921.7826,204.48,919.1986" style="stroke:#181818;stroke-width:1;"/></g><!--link Buyer to UC_Refund--><g class="link" data-entity-1="ent0003" data-entity-2="ent0022" data-link-type="dependency" data-source-line="58" id="lnk47"><path d="M61.86,928.8686 C70.54,938.3086 80.83,947.6486 92,954.0986 C125.85,973.6486 163.9728,981.5633 195.7028,985.3733" fill="none" id="Buyer-to-UC_Refund" style="stroke:#181818;stroke-width:1;"/><polygon fill="#181818" points="201.66,986.0886,193.2011,981.0442,196.6957,985.4925,192.2473,988.9871,201.66,986.0886" style="stroke:#181818;stroke-width:1;"/></g><!--link Buyer to UC_Review--><g class="link" data-entity-1="ent0003" data-entity-2="ent0023" data-link-type="dependency" data-source-line="59" id="lnk48"><path d="M56.58,932.0886 C75.16,961.6786 104.83,1000.6386 142,1021.0986 C159.37,1030.6586 174.2364,1036.2159 192.3064,1041.3259" fill="none" id="Buyer-to-UC_Review" style="stroke:#181818;stroke-width:1;"/><polygon fill="#181818" points="198.08,1042.9586,190.5081,1036.6605,193.2687,1041.598,188.3312,1044.3586,198.08,1042.9586" style="stroke:#181818;stroke-width:1;"/></g><!--link Buyer to UC_Report--><g class="link" data-entity-1="ent0003" data-entity-2="ent0024" data-link-type="dependency" data-source-line="60" id="lnk49"><path d="M52.06,854.0586 C69.66,818.1786 100.38,766.0186 142,735.0986 C160.27,721.5286 178.6292,714.9282 198.7392,710.3582" fill="none" id="Buyer-to-UC_Report" style="stroke:#181818;stroke-width:1;"/><polygon fill="#181818" points="204.59,709.0286,194.9274,707.1225,199.7143,710.1366,196.7002,714.9236,204.59,709.0286" style="stroke:#181818;stroke-width:1;"/></g><!--link Seller to UC_Publish--><g class="link" data-entity-1="ent0004" data-entity-2="ent0012" data-link-type="dependency" data-source-line="62" id="lnk50"><path d="M61.74,1222.6986 C98.56,1215.2486 159.129,1203.0079 200.469,1194.6479" fill="none" id="Seller-to-UC_Publish" style="stroke:#181818;stroke-width:1;"/><polygon fill="#181818" points="206.35,1193.4586,196.7357,1191.3219,201.4492,1194.4497,198.3214,1199.1632,206.35,1193.4586" style="stroke:#181818;stroke-width:1;"/></g><!--link Seller to UC_Edit--><g class="link" data-entity-1="ent0004" data-entity-2="ent0013" data-link-type="dependency" data-source-line="63" id="lnk51"><path d="M61.74,1230.9286 C97.46,1234.7086 155.1134,1240.8162 196.6234,1245.2162" fill="none" id="Seller-to-UC_Edit" style="stroke:#181818;stroke-width:1;"/><polygon fill="#181818" points="202.59,1245.8486,194.0618,1240.9222,197.6179,1245.3216,193.2185,1248.8777,202.59,1245.8486" style="stroke:#181818;stroke-width:1;"/></g><!--link Seller to UC_OffShelf--><g class="link" data-entity-1="ent0004" data-entity-2="ent0014" data-link-type="dependency" data-source-line="64" id="lnk52"><path d="M61.77,1242.9486 C83.11,1254.4586 113.98,1270.3686 142,1282.0986 C159.88,1289.5786 174.3357,1294.7883 191.9057,1300.5183" fill="none" id="Seller-to-UC_OffShelf" style="stroke:#181818;stroke-width:1;"/><polygon fill="#181818" points="197.61,1302.3786,190.2937,1295.7853,192.8564,1300.8284,187.8133,1303.391,197.61,1302.3786" style="stroke:#181818;stroke-width:1;"/></g><!--link Seller to UC_Chat--><g class="link" data-entity-1="ent0004" data-entity-2="ent0017" data-link-type="dependency" data-source-line="65" id="lnk53"><path d="M61.99,1207.6486 C71.39,1200.6786 82.07,1192.9186 92,1186.0986 C113.74,1171.1586 118.21,1165.5086 142,1154.0986 C158.98,1145.9486 172.7074,1140.7333 189.9574,1135.1933" fill="none" id="Seller-to-UC_Chat" style="stroke:#181818;stroke-width:1;"/><polygon fill="#181818" points="195.67,1133.3586,185.878,1132.3022,190.9095,1134.8875,188.3242,1139.919,195.67,1133.3586" style="stroke:#181818;stroke-width:1;"/></g><!--link Seller to UC_Ship--><g class="link" data-entity-1="ent0004" data-entity-2="ent0020" data-link-type="dependency" data-source-line="66" id="lnk54"><path d="M60.12,1267.0886 C79.48,1294.2386 108.55,1329.3386 142,1351.0986 C166.55,1367.0686 193.8643,1374.1191 215.3243,1377.9691" fill="none" id="Seller-to-UC_Ship" style="stroke:#181818;stroke-width:1;"/><polygon fill="#181818" points="221.23,1379.0286,213.0778,1373.5022,216.3086,1378.1457,211.6651,1381.3765,221.23,1379.0286" style="stroke:#181818;stroke-width:1;"/></g><!--link Seller to UC_Review--><g class="link" data-entity-1="ent0004" data-entity-2="ent0023" data-link-type="dependency" data-source-line="67" id="lnk55"><path d="M39.36,1189.1886 C45.32,1155.1686 59.3,1107.0986 92,1080.0986 C117.12,1059.3586 146.7299,1052.6327 177.0199,1050.8927" fill="none" id="Seller-to-UC_Review" style="stroke:#181818;stroke-width:1;"/><polygon fill="#181818" points="183.01,1050.5486,173.7954,1047.0714,178.0182,1050.8354,174.2542,1055.0582,183.01,1050.5486" style="stroke:#181818;stroke-width:1;"/></g><!--link Admin to UC_Stats--><g class="link" data-entity-1="ent0005" data-entity-2="ent0027" data-link-type="dependency" data-source-line="69" id="lnk56"><path d="M61.96,1681.7586 C81.67,1706.2186 110.4,1737.3786 142,1757.0986 C158.43,1767.3486 172.6495,1772.9806 190.4795,1777.9406" fill="none" id="Admin-to-UC_Stats" style="stroke:#181818;stroke-width:1;"/><polygon fill="#181818" points="196.26,1779.5486,188.6613,1773.2829,191.4429,1778.2086,186.5172,1780.9902,196.26,1779.5486" style="stroke:#181818;stroke-width:1;"/></g><!--link Admin to UC_UserAdmin--><g class="link" data-entity-1="ent0005" data-entity-2="ent0028" data-link-type="dependency" data-source-line="70" id="lnk57"><path d="M47.82,1684.0486 C63.39,1724.9386 93.72,1787.8086 142,1821.0986 C160.74,1834.0186 179.1211,1840.5477 199.1211,1845.2777" fill="none" id="Admin-to-UC_UserAdmin" style="stroke:#181818;stroke-width:1;"/><polygon fill="#181818" points="204.96,1846.6586,197.1222,1840.6947,200.0942,1845.5079,195.281,1848.4799,204.96,1846.6586" style="stroke:#181818;stroke-width:1;"/></g><!--link Admin to UC_ReportAdmin--><g class="link" data-entity-1="ent0005" data-entity-2="ent0029" data-link-type="dependency" data-source-line="71" id="lnk58"><path d="M61.74,1645.0986 C96.91,1645.0986 153.14,1645.0986 194.66,1645.0986" fill="none" id="Admin-to-UC_ReportAdmin" style="stroke:#181818;stroke-width:1;"/><polygon fill="#181818" points="200.66,1645.0986,191.66,1641.0986,195.66,1645.0986,191.66,1649.0986,200.66,1645.0986" style="stroke:#181818;stroke-width:1;"/></g><!--link Admin to UC_Takedown--><g class="link" data-entity-1="ent0005" data-entity-2="ent0030" data-link-type="dependency" data-source-line="72" id="lnk59"><path d="M61.74,1655.3886 C99.65,1669.9986 163.3903,1694.5438 204.3703,1710.3138" fill="none" id="Admin-to-UC_Takedown" style="stroke:#181818;stroke-width:1;"/><polygon fill="#181818" points="209.97,1712.4686,203.0071,1705.5032,205.3036,1710.6729,200.1339,1712.9694,209.97,1712.4686" style="stroke:#181818;stroke-width:1;"/></g><!--link Admin to UC_OrderAdmin--><g class="link" data-entity-1="ent0005" data-entity-2="ent0031" data-link-type="dependency" data-source-line="73" id="lnk60"><path d="M50.73,1606.1886 C67.71,1569.2586 98.32,1515.0586 142,1485.0986 C156.32,1475.2786 167.9374,1469.7444 184.1374,1464.2544" fill="none" id="Admin-to-UC_OrderAdmin" style="stroke:#181818;stroke-width:1;"/><polygon fill="#181818" points="189.82,1462.3286,180.0123,1461.4289,185.0845,1463.9334,182.58,1469.0056,189.82,1462.3286" style="stroke:#181818;stroke-width:1;"/></g><!--link Admin to UC_FeedbackAdmin--><g class="link" data-entity-1="ent0005" data-entity-2="ent0032" data-link-type="dependency" data-source-line="74" id="lnk61"><path d="M61.9,1613.7386 C81.89,1592.3986 110.99,1565.1886 142,1549.0986 C159.92,1539.7986 175.2692,1534.2211 193.5392,1529.0211" fill="none" id="Admin-to-UC_FeedbackAdmin" style="stroke:#181818;stroke-width:1;"/><polygon fill="#181818" points="199.31,1527.3786,189.5588,1525.9952,194.501,1528.7474,191.7488,1533.6896,199.31,1527.3786" style="stroke:#181818;stroke-width:1;"/></g><!--link Admin to UC_Announcement--><g class="link" data-entity-1="ent0005" data-entity-2="ent0033" data-link-type="dependency" data-source-line="75" id="lnk62"><path d="M61.84,1631.6486 C71.23,1627.2686 81.94,1622.6286 92,1619.0986 C126.13,1607.1286 159.9822,1598.5771 190.0722,1591.9071" fill="none" id="Admin-to-UC_Announcement" style="stroke:#181818;stroke-width:1;"/><polygon fill="#181818" points="195.93,1590.6086,186.2776,1588.6512,191.0485,1591.6907,188.0089,1596.4616,195.93,1590.6086" style="stroke:#181818;stroke-width:1;"/></g><!--link UC_Search to UC_Browse--><g class="link" data-entity-1="ent0010" data-entity-2="ent0009" data-link-type="dependency" data-source-line="77" id="lnk63"><path d="M243.76,494.2486 C243.76,508.8186 243.76,524.0886 243.76,538.2386" fill="none" id="UC_Search-to-UC_Browse" style="stroke:#181818;stroke-width:1;stroke-dasharray:7,7;"/><polygon fill="#181818" points="243.76,544.2386,247.76,535.2386,243.76,539.2386,239.76,535.2386,243.76,544.2386" style="stroke:#181818;stroke-width:1;"/><text fill="#000000" font-family="sans-serif" font-size="13" lengthAdjust="spacing" textLength="40.46" x="212.76" y="524.4425">&#171;&#25193;&#23637;&#187;</text></g><!--link UC_Detail to UC_Browse--><g class="link" data-entity-1="ent0011" data-entity-2="ent0009" data-link-type="dependency" data-source-line="78" id="lnk64"><path d="M243.76,624.0486 C243.76,609.6586 243.76,594.0886 243.76,579.8086" fill="none" id="UC_Detail-to-UC_Browse" style="stroke:#181818;stroke-width:1;stroke-dasharray:7,7;"/><polygon fill="#181818" points="243.76,573.8086,239.76,582.8086,243.76,578.8086,247.76,582.8086,243.76,573.8086" style="stroke:#181818;stroke-width:1;"/><text fill="#000000" font-family="sans-serif" font-size="13" lengthAdjust="spacing" textLength="40.46" x="212.76" y="604.1625">&#171;&#21253;&#21547;&#187;</text></g><!--link UC_Pay to UC_Order--><g class="link" data-entity-1="ent0019" data-entity-2="ent0018" data-link-type="dependency" data-source-line="79" id="lnk65"><path d="M243.76,781.8886 C243.76,795.9886 243.76,811.1186 243.76,825.2386" fill="none" id="UC_Pay-to-UC_Order" style="stroke:#181818;stroke-width:1;stroke-dasharray:7,7;"/><polygon fill="#181818" points="243.76,831.2386,247.76,822.2386,243.76,826.2386,239.76,822.2386,243.76,831.2386" style="stroke:#181818;stroke-width:1;"/><text fill="#000000" font-family="sans-serif" font-size="13" lengthAdjust="spacing" textLength="40.46" x="212.76" y="811.7925">&#171;&#25193;&#23637;&#187;</text></g><!--link UC_Ship to UC_Order--><g class="link" data-entity-1="ent0020" data-entity-2="ent0018" data-link-type="dependency" data-source-line="80" id="lnk66"><path d="M220.84,1381.9686 C197.22,1380.4986 161.23,1374.2586 142,1351.0986 C64.94,1258.2686 104.82,1201.4186 113.79,1081.0986 C120.08,996.8386 91.3,960.6886 142,893.0986 C157.65,872.2386 179.0363,862.04 201.3563,855.44" fill="none" id="UC_Ship-to-UC_Order" style="stroke:#181818;stroke-width:1;stroke-dasharray:7,7;"/><polygon fill="#181818" points="207.11,853.7386,197.3452,852.4549,202.3152,855.1564,199.6137,860.1265,207.11,853.7386" style="stroke:#181818;stroke-width:1;"/><text fill="#000000" font-family="sans-serif" font-size="13" lengthAdjust="spacing" textLength="40.46" x="93" y="1094.2925">&#171;&#25193;&#23637;&#187;</text></g><!--link UC_Confirm to UC_Order--><g class="link" data-entity-1="ent0021" data-entity-2="ent0018" data-link-type="dependency" data-source-line="81" id="lnk67"><path d="M243.76,910.2386 C243.76,896.1186 243.76,880.9886 243.76,866.8886" fill="none" id="UC_Confirm-to-UC_Order" style="stroke:#181818;stroke-width:1;stroke-dasharray:7,7;"/><polygon fill="#181818" points="243.76,860.8886,239.76,869.8886,243.76,865.8886,247.76,869.8886,243.76,860.8886" style="stroke:#181818;stroke-width:1;"/><text fill="#000000" font-family="sans-serif" font-size="13" lengthAdjust="spacing" textLength="40.46" x="212.76" y="890.7925">&#171;&#25193;&#23637;&#187;</text></g><!--link UC_Refund to UC_Order--><g class="link" data-entity-1="ent0022" data-entity-2="ent0018" data-link-type="dependency" data-source-line="82" id="lnk68"><path d="M202.52,985.0986 C170.41,979.3886 128.86,965.5786 113.79,932.0986 C94.42,889.0386 156.016,866.171 200.916,855.051" fill="none" id="UC_Refund-to-UC_Order" style="stroke:#181818;stroke-width:1;stroke-dasharray:7,7;"/><polygon fill="#181818" points="206.74,853.6086,197.0423,851.8895,201.8866,854.8106,198.9655,859.6549,206.74,853.6086" style="stroke:#181818;stroke-width:1;"/><text fill="#000000" font-family="sans-serif" font-size="13" lengthAdjust="spacing" textLength="40.46" x="93" y="929.2925">&#171;&#25193;&#23637;&#187;</text></g><!--link UC_Review to UC_Order--><g class="link" data-entity-1="ent0023" data-entity-2="ent0018" data-link-type="dependency" data-source-line="83" id="lnk69"><path d="M190.62,1045.5786 C173.44,1040.9086 155.39,1033.3486 142,1021.0986 C117.86,999.0086 120.18,985.1886 113.79,953.0986 C103.69,902.3686 164.0234,872.6395 205.7234,857.8895" fill="none" id="UC_Review-to-UC_Order" style="stroke:#181818;stroke-width:1;stroke-dasharray:7,7;"/><polygon fill="#181818" points="211.38,855.8886,201.5613,855.1188,206.6662,857.556,204.229,862.6609,211.38,855.8886" style="stroke:#181818;stroke-width:1;"/><text fill="#000000" font-family="sans-serif" font-size="13" lengthAdjust="spacing" textLength="40.46" x="93" y="950.2925">&#171;&#25193;&#23637;&#187;</text></g><!--link UC_ReportAdmin to UC_Takedown--><g class="link" data-entity-1="ent0029" data-entity-2="ent0030" data-link-type="dependency" data-source-line="84" id="lnk70"><path d="M243.76,1659.8086 C243.76,1674.0886 243.76,1689.6586 243.76,1704.0486" fill="none" id="UC_ReportAdmin-to-UC_Takedown" style="stroke:#181818;stroke-width:1;stroke-dasharray:7,7;"/><polygon fill="#181818" points="243.76,1710.0486,247.76,1701.0486,243.76,1705.0486,239.76,1701.0486,243.76,1710.0486" style="stroke:#181818;stroke-width:1;"/><text fill="#000000" font-family="sans-serif" font-size="13" lengthAdjust="spacing" textLength="40.46" x="212.76" y="1690.1625">&#171;&#21253;&#21547;&#187;</text></g><?plantuml-src XPLRJnf15CVVzrDCVBU-DyP4RPi-D9MKzjcCCC34PPViBZMcQQBnKhnGD2fLiIe6jLUmLG71qY-pixjyYovxOuxRw2F_-StikVpFGIG93MaoKcWofQ4uLKXCex8agDDKoc05fr46nwPnaaIrMP6WtZ6MaYBX01pJPCKznZD4bTFyePh2SNc6IacKmA9A146ZcWs-ZaIHSLncfPzwQzrOMTDR5MDtoxnic-qZS_kBtbbZfOuWE4-Z0MElsftRjtKZrnX0M4LlLABuX_hD1QlM7NaiEzlNMRxewr4YYlq3iresDvRPvgvpDXfFKqaGWiJGm7sn3Q1t0a9PbSImQgF6vHUsl3vaxhNPdnqtil795tBIVf6ZpFQLiLhHcz_qLikwNZIAUpuQKUG4jOl9FtbTiCvpR6UPRStxs9WYpwYGsZWmhqxqvaVpPwaxjmBnAC5AB0NmerFpOCsbhDgPiR3aiq-8Xgd8iwomoPeByCL8TagaAdZIl2rQdKs8FOrJZMVqvffnM1_gViWRnGkzkMh_W1Sc4ebeYeW94EjstVfKWDmp_5PMg4R2ENdb-hZC2hzz-ZbLxKRFtadAkcxej_jMxVEGUJwl_oqRluziK_btnbCOXCvo9TPkMTKJbWyQEw74RHU1K6jwUnT24HpwyDLvq9aKpO0YbgjMjTBBkC-CorA2Acc0RLzQjKPtRixuqV6nLoIHbU8yPTKMzNR3TIkhtLY_odtsBIKpi3CTO_KK5laLoSWAA89HsB2VOuLyzomNj8AG-9Iz4iAjw8teqQdFlPGr6hFdFUp2cqjMkB1doQe60KOrhAaWOsT6-OaVd-mDlJkjV7qhYpRefWCJ2QEtBPQhkvw4cR_6qyJUKb8uMBUtxARkViTi7Pkj1l13-3EbGrR9kw7_ltJXAyx8kHk6BVrWcwl-bL59ahDIZAI9f0dl1Q5N0pGuEDBVCxpYhnDUytO7BtdxWPUyDS1BmSpneZzQlEPr6jprJI8uAzcNdI43YZjIGEeD4Bpb3GGGFVlVqHoRtz4SKmlkNq3m3M-VGTLPNr0A5XIKdKIWv8msbBnu1AVV0UTO7KXzOmEPjp4u2EmALCwDG8Uk0qV0NKBW3FI8SmvwZ8Q7ZPMlxDVEo8WGM2NCiFKbjl7TPUmUUe0JLUYDNh7k1RoUtyku5dW0wNNW0IIeiiVvvOLP_GC0?></g></svg>