<?plantuml 1.2026.1?><svg xmlns="http://www.w3.org/2000/svg" xmlns:xlink="http://www.w3.org/1999/xlink" contentStyleType="text/css" data-diagram-type="DESCRIPTION" height="586px" preserveAspectRatio="none" style="width:733px;height:586px;background:#FFFFFF;" version="1.1" viewBox="0 0 733 586" width="733px" zoomAndPan="magnify"><title>TPS &#26657;&#22253;&#20108;&#25163;&#20132;&#26131;&#31995;&#32479;&#19978;&#19979;&#25991;&#22270;</title><defs/><g><g class="title" data-source-line="4"><text fill="#000000" font-family="sans-serif" font-size="14" font-weight="bold" lengthAdjust="spacing" textLength="199.1165" x="260.3037" y="23.1318">TPS &#26657;&#22253;&#20108;&#25163;&#20132;&#26131;&#31995;&#32479;&#19978;&#19979;&#25991;&#22270;</text></g><!--entity User--><g class="entity" data-qualified-name="User" data-source-line="6" id="ent0002"><ellipse cx="420.5599" cy="51.0986" fill="#F1F1F1" rx="8" ry="8" style="stroke:#181818;stroke-width:0.5;"/><path d="M420.5599,59.0986 L420.5599,86.0986 M407.5599,67.0986 L433.5599,67.0986 M420.5599,86.0986 L407.5599,101.0986 M420.5599,86.0986 L433.5599,101.0986" fill="none" style="stroke:#181818;stroke-width:0.5;"/><text fill="#000000" font-family="sans-serif" font-size="14" lengthAdjust="spacing" textLength="55.9998" x="392.56" y="115.7305">&#26222;&#36890;&#29992;&#25143;</text></g><!--entity Admin--><g class="entity" data-qualified-name="Admin" data-source-line="7" id="ent0003"><ellipse cx="595.5599" cy="51.0986" fill="#F1F1F1" rx="8" ry="8" style="stroke:#181818;stroke-width:0.5;"/><path d="M595.5599,59.0986 L595.5599,86.0986 M582.5599,67.0986 L608.5599,67.0986 M595.5599,86.0986 L582.5599,101.0986 M595.5599,86.0986 L608.5599,101.0986" fill="none" style="stroke:#181818;stroke-width:0.5;"/><text fill="#000000" font-family="sans-serif" font-size="14" lengthAdjust="spacing" textLength="41.9998" x="574.56" y="115.7305">&#31649;&#29702;&#21592;</text></g><!--entity TPS--><g class="entity" data-qualified-name="TPS" data-source-line="9" id="ent0004"><rect fill="#F1F1F1" height="36.0986" rx="2.5" ry="2.5" style="stroke:#181818;stroke-width:0.5;" width="163.1167" x="7" y="62.5986"/><text fill="#000000" font-family="sans-serif" font-size="14" lengthAdjust="spacing" textLength="143.1167" x="17" y="85.7305">TPS &#26657;&#22253;&#20108;&#25163;&#20132;&#26131;&#31995;&#32479;</text></g><!--entity App--><g class="entity" data-qualified-name="App" data-source-line="11" id="ent0005"><rect fill="#F1F1F1" height="36.0986" rx="2.5" ry="2.5" style="stroke:#181818;stroke-width:0.5;" width="89.9997" x="322.56" y="194.6986"/><text fill="#000000" font-family="sans-serif" font-size="14" lengthAdjust="spacing" textLength="69.9997" x="332.56" y="217.8305">&#23433;&#21331;&#23458;&#25143;&#31471;</text></g><!--entity Backend--><g class="entity" data-qualified-name="Backend" data-source-line="12" id="ent0006"><rect fill="#F1F1F1" height="36.0986" rx="2.5" ry="2.5" style="stroke:#181818;stroke-width:0.5;" width="75.9998" x="187.56" y="408.8886"/><text fill="#000000" font-family="sans-serif" font-size="14" lengthAdjust="spacing" textLength="55.9998" x="197.56" y="432.0205">&#21518;&#31471;&#26381;&#21153;</text></g><!--entity DB--><g class="entity" data-qualified-name="DB" data-source-line="13" id="ent0007"><path d="M103.56,534.5386 C103.56,524.5386 134.5599,524.5386 134.5599,524.5386 C134.5599,524.5386 165.5598,524.5386 165.5598,534.5386 L165.5598,559.6373 C165.5598,569.6373 134.5599,569.6373 134.5599,569.6373 C134.5599,569.6373 103.56,569.6373 103.56,559.6373 L103.56,534.5386" fill="#F1F1F1" style="stroke:#181818;stroke-width:0.5;"/><path d="M103.56,534.5386 C103.56,544.5386 134.5599,544.5386 134.5599,544.5386 C134.5599,544.5386 165.5598,544.5386 165.5598,534.5386" fill="none" style="stroke:#181818;stroke-width:0.5;"/><text fill="#000000" font-family="sans-serif" font-size="14" lengthAdjust="spacing" textLength="41.9998" x="113.56" y="561.6705">&#25968;&#25454;&#24211;</text></g><!--entity Storage--><g class="entity" data-qualified-name="Storage" data-source-line="14" id="ent0008"><rect fill="#F1F1F1" height="48.1973" rx="2.5" ry="2.5" style="stroke:#181818;stroke-width:0.5;" width="99.9996" x="268.56" y="524.9886"/><rect fill="#F1F1F1" height="48.1973" rx="2.5" ry="2.5" style="stroke:#181818;stroke-width:0.5;" width="99.9996" x="264.56" y="520.9886"/><text fill="#000000" font-family="sans-serif" font-size="14" lengthAdjust="spacing" textLength="83.9996" x="272.56" y="542.1205">&#22270;&#29255;&#23384;&#20648;&#30446;&#24405;</text><text fill="#000000" font-family="sans-serif" font-size="14" lengthAdjust="spacing" textLength="26.4482" x="272.56" y="558.2191">img/</text></g><!--entity WS--><g class="entity" data-qualified-name="WS" data-source-line="15" id="ent0009"><path d="M178.56,306.7986 L272.5596,306.7986 C277.5596,306.7986 277.5596,319.8479 277.5596,319.8479 C277.5596,319.8479 277.5596,332.8973 272.5596,332.8973 L178.56,332.8973 C173.56,332.8973 173.56,319.8479 173.56,319.8479 C173.56,319.8479 173.56,306.7986 178.56,306.7986" fill="#F1F1F1" style="stroke:#181818;stroke-width:0.5;"/><path d="M272.5596,306.7986 C267.5596,306.7986 267.5596,319.8479 267.5596,319.8479 C267.5596,332.8973 272.5596,332.8973 272.5596,332.8973" fill="none" style="stroke:#181818;stroke-width:0.5;"/><text fill="#000000" font-family="sans-serif" font-size="14" lengthAdjust="spacing" textLength="83.9996" x="178.56" y="324.9305">&#23454;&#26102;&#28040;&#24687;&#36890;&#36947;</text></g><g class="entity" data-qualified-name="GMN17" data-source-line="27" id="ent0018"><path d="M205.33,45.7486 L205.33,76.6486 L170.36,80.6486 L205.33,84.6486 L205.33,115.5436 A0,0 0 0 0 205.33,115.5436 L357.7838,115.5436 A0,0 0 0 0 357.7838,115.5436 L357.7838,55.7486 L347.7838,45.7486 L205.33,45.7486 A0,0 0 0 0 205.33,45.7486" fill="#FEFFDD" style="stroke:#181818;stroke-width:0.5;"/><path d="M347.7838,45.7486 L347.7838,55.7486 L357.7838,55.7486 L347.7838,45.7486" fill="#FEFFDD" style="stroke:#181818;stroke-width:0.5;"/><text fill="#000000" font-family="sans-serif" font-size="13" lengthAdjust="spacing" textLength="91.0001" x="211.33" y="62.9425">&#31995;&#32479;&#36793;&#30028;&#21253;&#21547;&#65306;</text><text fill="#000000" font-family="sans-serif" font-size="13" lengthAdjust="spacing" textLength="79.4537" x="211.33" y="77.8912">1. &#23433;&#21331;&#29992;&#25143;&#31471;</text><text fill="#000000" font-family="sans-serif" font-size="13" lengthAdjust="spacing" textLength="66.4537" x="211.33" y="92.8399">2. &#19994;&#21153;&#21518;&#31471;</text><text fill="#000000" font-family="sans-serif" font-size="13" lengthAdjust="spacing" textLength="131.4538" x="211.33" y="107.7887">3. &#25968;&#25454;&#19982;&#22270;&#29255;&#36164;&#28304;&#31649;&#29702;</text></g><!--link User to App--><g class="link" data-entity-1="ent0002" data-entity-2="ent0005" data-link-type="dependency" data-source-line="17" id="lnk10"><path d="M405.37,118.9286 C395.28,143.7086 384.7542,169.5423 376.9342,188.7323" fill="none" id="User-to-App" style="stroke:#181818;stroke-width:1;"/><polygon fill="#181818" points="374.67,194.2886,381.7706,187.4636,376.5569,189.6583,374.3621,184.4446,374.67,194.2886" style="stroke:#181818;stroke-width:1;"/><text fill="#000000" font-family="sans-serif" font-size="13" lengthAdjust="spacing" textLength="144.4474" x="393.47" y="161.8925">&#27983;&#35272;/&#21457;&#24067;/&#32842;&#22825;/&#19979;&#21333;/&#35780;&#20215;</text></g><!--link Admin to App--><g class="link" data-entity-1="ent0003" data-entity-2="ent0005" data-link-type="dependency" data-source-line="18" id="lnk11"><path d="M581.31,118.9086 C573.36,135.1486 561.91,153.0886 546.56,164.6986 C507.6,194.1486 457.7666,204.5869 418.8566,208.7069" fill="none" id="Admin-to-App" style="stroke:#181818;stroke-width:1;"/><polygon fill="#181818" points="412.89,209.3386,422.2612,212.3687,417.8622,208.8121,421.4188,204.4132,412.89,209.3386" style="stroke:#181818;stroke-width:1;"/><text fill="#000000" font-family="sans-serif" font-size="13" lengthAdjust="spacing" textLength="163.2238" x="562.5" y="161.8925">&#29992;&#25143;&#31649;&#29702;/&#21830;&#21697;&#31649;&#29702;/&#35746;&#21333;&#31649;&#29702;</text></g><!--link App to Backend--><g class="link" data-entity-1="ent0005" data-entity-2="ent0006" data-link-type="dependency" data-source-line="20" id="lnk12"><path d="M367.92,231.0886 C367.68,263.7386 362.72,334.9986 326.56,378.8886 C310.69,398.1486 290.8763,408.0945 269.4563,415.0545" fill="none" id="App-to-Backend" style="stroke:#181818;stroke-width:1;"/><polygon fill="#181818" points="263.75,416.9086,273.5456,417.9316,268.5053,415.3635,271.0734,410.3232,263.75,416.9086" style="stroke:#181818;stroke-width:1;"/><text fill="#000000" font-family="sans-serif" font-size="13" lengthAdjust="spacing" textLength="52.0001" x="360.15" y="325.0325">&#25509;&#21475;&#35843;&#29992;</text></g><!--link App to WS--><g class="link" data-entity-1="ent0005" data-entity-2="ent0009" data-link-type="dependency" data-source-line="21" id="lnk13"><path d="M322.14,215.0986 C288.64,218.7786 245.12,229.7486 222.56,260.7986 C212.95,274.0186 214.8784,288.0318 218.9284,300.7418" fill="none" id="App-to-WS" style="stroke:#181818;stroke-width:1;"/><polygon fill="#181818" points="220.75,306.4586,221.8287,296.669,219.232,301.6946,214.2064,299.0979,220.75,306.4586" style="stroke:#181818;stroke-width:1;"/><text fill="#000000" font-family="sans-serif" font-size="13" lengthAdjust="spacing" textLength="117.0001" x="223.56" y="273.9925">&#23454;&#26102;&#28040;&#24687;&#35746;&#38405;&#19982;&#21457;&#36865;</text></g><!--link WS to Backend--><g class="link" data-entity-1="ent0009" data-entity-2="ent0006" data-link-type="dependency" data-source-line="22" id="lnk14"><path d="M225.56,333.3086 C225.56,352.0186 225.56,381.3986 225.56,402.6086" fill="none" id="WS-to-Backend" style="stroke:#181818;stroke-width:1;"/><polygon fill="#181818" points="225.56,408.6086,229.56,399.6086,225.56,403.6086,221.56,399.6086,225.56,408.6086" style="stroke:#181818;stroke-width:1;"/><text fill="#000000" font-family="sans-serif" font-size="13" lengthAdjust="spacing" textLength="91.0001" x="226.56" y="376.0825">&#28040;&#24687;&#37492;&#26435;&#19982;&#36716;&#21457;</text></g><!--link Backend to DB--><g class="link" data-entity-1="ent0006" data-entity-2="ent0007" data-link-type="dependency" data-source-line="23" id="lnk15"><path d="M187.29,436.7186 C166.97,443.5386 143.74,455.2686 131.56,474.9886 C122.53,489.5986 122.8566,503.4587 126.2666,518.4187" fill="none" id="Backend-to-DB" style="stroke:#181818;stroke-width:1;"/><polygon fill="#181818" points="127.6,524.2686,129.4998,514.6047,126.4888,519.3937,121.6999,516.3827,127.6,524.2686" style="stroke:#181818;stroke-width:1;"/><text fill="#000000" font-family="sans-serif" font-size="13" lengthAdjust="spacing" textLength="140.8356" x="132.56" y="488.1825">&#29992;&#25143;/&#21830;&#21697;/&#35746;&#21333;/&#28040;&#24687;&#25968;&#25454;</text></g><!--link Backend to Storage--><g class="link" data-entity-1="ent0006" data-entity-2="ent0008" data-link-type="dependency" data-source-line="24" id="lnk16"><path d="M248.13,445.4786 C257.9,453.7586 269.03,464.1986 277.56,474.9886 C288.64,489.0186 295.6924,501.2395 302.6324,515.4195" fill="none" id="Backend-to-Storage" style="stroke:#181818;stroke-width:1;"/><polygon fill="#181818" points="305.27,520.8086,304.9064,510.9665,303.072,516.3177,297.7209,514.4833,305.27,520.8086" style="stroke:#181818;stroke-width:1;"/><text fill="#000000" font-family="sans-serif" font-size="13" lengthAdjust="spacing" textLength="117.0001" x="288.8" y="488.1825">&#21830;&#21697;&#22270;&#29255;&#19978;&#20256;&#19982;&#35775;&#38382;</text></g><!--link TPS to App--><!--link TPS to Backend--><?plantuml-src VL9DRn9H5DtVN_727YRgpeM9f3_014qNwkB9J65Ic45c6kEkI3-0yjKW5i6FKckimGvDj2r2YtzctfjXvL_mlda3ALsud7VEkVVSCyTQruqSpTCiiT9KDL_fHegiqOobWRL0SZIvJbDQmdwTqKXUIzhKI6Kq05ktyU7nemJXXttMEtN7LLxUSyV7lDFoVawyoMTtL757U_pTBkjD0MZIDlCamjyxiyskz_Q4bouZX5haYQNbvw3dzBtc3jll1CX3DQiR08kT9FA_RO442Ki2vfHPhSMS8zpc3OPoR2wtH6dM4U4VQgpI3_0u7gmPAgZKfY-eXHJUFkCrXurR0RuIXwIPoU04tJGi7D2RUkLTTjfXRqwydiEksyyCFPjI0d82xyBquEM6jX7u-SGFBlX5YHU66CEi84UkeckH0ub67mX_v3xXvmt_MqbXZNqsAYf-eSAEloiO9wkr5N-uvKuk8SZdXaI6AZDKM7k7jGhXX-ySeKv-00YsK8M7YcNrhwpnnJyhueW5l9f0vAPXd3BhRBkZEfgQRHO02RV6oBlAl_Z78jBywn_8X3akk2lnXS_GOUXDaLgPz98aJ51u2GGoRj6jgqEnnFapEt003DF6Ukgfj4tCjQ07iXR-zBVNhhBgDciE_bvruKwCo5A4QGs6S3T6t54NVx-i0joB4Ub3d1fiyy-t-BWPvYUCYMq0eexHfsbTLJNZUJGergsdUPV-0G00?></g></svg>