<?plantuml 1.2026.1?><svg xmlns="http://www.w3.org/2000/svg" xmlns:xlink="http://www.w3.org/1999/xlink" contentStyleType="text/css" data-diagram-type="DESCRIPTION" height="936px" preserveAspectRatio="none" style="width:465px;height:936px;background:#FFFFFF;" version="1.1" viewBox="0 0 465 936" width="465px" zoomAndPan="magnify"><title>TPS &#26657;&#22253;&#20108;&#25163;&#20132;&#26131;&#31995;&#32479;&#24635;&#20307;&#26550;&#26500;&#22270;</title><defs/><g><g class="title" data-source-line="4"><text fill="#000000" font-family="sans-serif" font-size="14" font-weight="bold" lengthAdjust="spacing" textLength="213.1164" x="118.9418" y="23.1318">TPS &#26657;&#22253;&#20108;&#25163;&#20132;&#26131;&#31995;&#32479;&#24635;&#20307;&#26550;&#26500;&#22270;</text></g><!--cluster ????--><g class="cluster" data-qualified-name="...." data-source-line="6" id="ent0002"><polygon fill="none" points="16,53.0986,26,43.0986,448,43.0986,448,365.4886,438,375.4886,16,375.4886,16,53.0986" style="stroke:#181818;stroke-width:1;"/><line style="stroke:#181818;stroke-width:1;" x1="438" x2="448" y1="53.0986" y2="43.0986"/><line style="stroke:#181818;stroke-width:1;" x1="16" x2="438" y1="53.0986" y2="53.0986"/><line style="stroke:#181818;stroke-width:1;" x1="438" x2="438" y1="53.0986" y2="375.4886"/><text fill="#000000" font-family="sans-serif" font-size="14" font-weight="bold" lengthAdjust="spacing" textLength="55.9998" x="200.0001" y="69.2305">&#23433;&#21331;&#24212;&#29992;</text></g><!--cluster ????--><g class="cluster" data-qualified-name="...." data-source-line="14" id="ent0008"><polygon fill="none" points="16,433.4886,26,423.4886,317,423.4886,317,780.1586,307,790.1586,16,790.1586,16,433.4886" style="stroke:#181818;stroke-width:1;"/><line style="stroke:#181818;stroke-width:1;" x1="307" x2="317" y1="433.4886" y2="423.4886"/><line style="stroke:#181818;stroke-width:1;" x1="16" x2="307" y1="433.4886" y2="433.4886"/><line style="stroke:#181818;stroke-width:1;" x1="307" x2="307" y1="433.4886" y2="790.1586"/><text fill="#000000" font-family="sans-serif" font-size="14" font-weight="bold" lengthAdjust="spacing" textLength="55.9998" x="134.5001" y="449.6205">&#21518;&#31471;&#26381;&#21153;</text></g><!--entity UI--><g class="entity" data-qualified-name=".....UI" data-source-line="7" id="ent0003"><rect fill="#F1F1F1" height="62.1973" rx="2.5" ry="2.5" style="stroke:#181818;stroke-width:0.5;" width="255.4474" x="104.28" y="83.0986"/><rect fill="#F1F1F1" height="10" style="stroke:#181818;stroke-width:0.5;" width="15" x="339.7274" y="88.0986"/><rect fill="#F1F1F1" height="2" style="stroke:#181818;stroke-width:0.5;" width="4" x="337.7274" y="90.0986"/><rect fill="#F1F1F1" height="2" style="stroke:#181818;stroke-width:0.5;" width="4" x="337.7274" y="94.0986"/><text fill="#000000" font-family="sans-serif" font-size="14" lengthAdjust="spacing" textLength="41.9998" x="119.28" y="116.2305">&#30028;&#38754;&#23618;</text><text fill="#000000" font-family="sans-serif" font-size="14" lengthAdjust="spacing" textLength="215.4474" x="119.28" y="132.3291">&#30331;&#24405;/&#39318;&#39029;/&#21830;&#21697;/&#28040;&#24687;/&#20010;&#20154;&#20013;&#24515;/&#31649;&#29702;</text></g><!--entity VM--><g class="entity" data-qualified-name=".....VM" data-source-line="8" id="ent0004"><rect fill="#F1F1F1" height="46.0986" rx="2.5" ry="2.5" style="stroke:#181818;stroke-width:0.5;" width="95.9998" x="184" y="206.2986"/><rect fill="#F1F1F1" height="10" style="stroke:#181818;stroke-width:0.5;" width="15" x="259.9998" y="211.2986"/><rect fill="#F1F1F1" height="2" style="stroke:#181818;stroke-width:0.5;" width="4" x="257.9998" y="213.2986"/><rect fill="#F1F1F1" height="2" style="stroke:#181818;stroke-width:0.5;" width="4" x="257.9998" y="217.2986"/><text fill="#000000" font-family="sans-serif" font-size="14" lengthAdjust="spacing" textLength="55.9998" x="199" y="239.4305">&#35270;&#22270;&#27169;&#22411;</text></g><!--entity API--><g class="entity" data-qualified-name=".....API" data-source-line="9" id="ent0005"><rect fill="#F1F1F1" height="46.0986" rx="2.5" ry="2.5" style="stroke:#181818;stroke-width:0.5;" width="95.9998" x="32" y="313.3986"/><rect fill="#F1F1F1" height="10" style="stroke:#181818;stroke-width:0.5;" width="15" x="107.9998" y="318.3986"/><rect fill="#F1F1F1" height="2" style="stroke:#181818;stroke-width:0.5;" width="4" x="105.9998" y="320.3986"/><rect fill="#F1F1F1" height="2" style="stroke:#181818;stroke-width:0.5;" width="4" x="105.9998" y="324.3986"/><text fill="#000000" font-family="sans-serif" font-size="14" lengthAdjust="spacing" textLength="55.9998" x="47" y="346.5305">&#25509;&#21475;&#26381;&#21153;</text></g><!--entity WSClient--><g class="entity" data-qualified-name=".....WSClient" data-source-line="10" id="ent0006"><rect fill="#F1F1F1" height="46.0986" rx="2.5" ry="2.5" style="stroke:#181818;stroke-width:0.5;" width="137.9996" x="163" y="313.3986"/><rect fill="#F1F1F1" height="10" style="stroke:#181818;stroke-width:0.5;" width="15" x="280.9996" y="318.3986"/><rect fill="#F1F1F1" height="2" style="stroke:#181818;stroke-width:0.5;" width="4" x="278.9996" y="320.3986"/><rect fill="#F1F1F1" height="2" style="stroke:#181818;stroke-width:0.5;" width="4" x="278.9996" y="324.3986"/><text fill="#000000" font-family="sans-serif" font-size="14" lengthAdjust="spacing" textLength="97.9996" x="178" y="346.5305">&#23454;&#26102;&#36890;&#20449;&#23458;&#25143;&#31471;</text></g><!--entity TokenManager--><g class="entity" data-qualified-name=".....TokenManager" data-source-line="11" id="ent0007"><rect fill="#F1F1F1" height="46.0986" rx="2.5" ry="2.5" style="stroke:#181818;stroke-width:0.5;" width="95.9998" x="336" y="313.3986"/><rect fill="#F1F1F1" height="10" style="stroke:#181818;stroke-width:0.5;" width="15" x="411.9998" y="318.3986"/><rect fill="#F1F1F1" height="2" style="stroke:#181818;stroke-width:0.5;" width="4" x="409.9998" y="320.3986"/><rect fill="#F1F1F1" height="2" style="stroke:#181818;stroke-width:0.5;" width="4" x="409.9998" y="324.3986"/><text fill="#000000" font-family="sans-serif" font-size="14" lengthAdjust="spacing" textLength="55.9998" x="351" y="346.5305">&#20196;&#29260;&#31649;&#29702;</text></g><!--entity Controller--><g class="entity" data-qualified-name=".....Controller" data-source-line="15" id="ent0009"><rect fill="#F1F1F1" height="46.0986" rx="2.5" ry="2.5" style="stroke:#181818;stroke-width:0.5;" width="95.9998" x="32" y="463.4886"/><rect fill="#F1F1F1" height="10" style="stroke:#181818;stroke-width:0.5;" width="15" x="107.9998" y="468.4886"/><rect fill="#F1F1F1" height="2" style="stroke:#181818;stroke-width:0.5;" width="4" x="105.9998" y="470.4886"/><rect fill="#F1F1F1" height="2" style="stroke:#181818;stroke-width:0.5;" width="4" x="105.9998" y="474.4886"/><text fill="#000000" font-family="sans-serif" font-size="14" lengthAdjust="spacing" textLength="55.9998" x="47" y="496.6205">&#25511;&#21046;&#22120;&#23618;</text></g><!--entity Service--><g class="entity" data-qualified-name=".....Service" data-source-line="16" id="ent0010"><rect fill="#F1F1F1" height="46.0986" rx="2.5" ry="2.5" style="stroke:#181818;stroke-width:0.5;" width="81.9998" x="207" y="578.6386"/><rect fill="#F1F1F1" height="10" style="stroke:#181818;stroke-width:0.5;" width="15" x="268.9998" y="583.6386"/><rect fill="#F1F1F1" height="2" style="stroke:#181818;stroke-width:0.5;" width="4" x="266.9998" y="585.6386"/><rect fill="#F1F1F1" height="2" style="stroke:#181818;stroke-width:0.5;" width="4" x="266.9998" y="589.6386"/><text fill="#000000" font-family="sans-serif" font-size="14" lengthAdjust="spacing" textLength="41.9998" x="222" y="611.7705">&#19994;&#21153;&#23618;</text></g><!--entity Repository--><g class="entity" data-qualified-name=".....Repository" data-source-line="17" id="ent0011"><rect fill="#F1F1F1" height="46.0986" rx="2.5" ry="2.5" style="stroke:#181818;stroke-width:0.5;" width="109.9997" x="56" y="728.0586"/><rect fill="#F1F1F1" height="10" style="stroke:#181818;stroke-width:0.5;" width="15" x="145.9997" y="733.0586"/><rect fill="#F1F1F1" height="2" style="stroke:#181818;stroke-width:0.5;" width="4" x="143.9997" y="735.0586"/><rect fill="#F1F1F1" height="2" style="stroke:#181818;stroke-width:0.5;" width="4" x="143.9997" y="739.0586"/><text fill="#000000" font-family="sans-serif" font-size="14" lengthAdjust="spacing" textLength="69.9997" x="71" y="761.1905">&#25968;&#25454;&#35775;&#38382;&#23618;</text></g><!--entity Security--><g class="entity" data-qualified-name=".....Security" data-source-line="18" id="ent0012"><rect fill="#F1F1F1" height="62.1973" rx="2.5" ry="2.5" style="stroke:#181818;stroke-width:0.5;" width="140.7205" x="31.64" y="570.5886"/><rect fill="#F1F1F1" height="10" style="stroke:#181818;stroke-width:0.5;" width="15" x="152.3605" y="575.5886"/><rect fill="#F1F1F1" height="2" style="stroke:#181818;stroke-width:0.5;" width="4" x="150.3605" y="577.5886"/><rect fill="#F1F1F1" height="2" style="stroke:#181818;stroke-width:0.5;" width="4" x="150.3605" y="581.5886"/><text fill="#000000" font-family="sans-serif" font-size="14" lengthAdjust="spacing" textLength="55.9998" x="46.64" y="603.7205">&#23433;&#20840;&#25511;&#21046;</text><text fill="#000000" font-family="sans-serif" font-size="14" lengthAdjust="spacing" textLength="100.7205" x="46.64" y="619.8191">JWT + &#35282;&#33394;&#26435;&#38480;</text></g><!--entity WSController--><g class="entity" data-qualified-name=".....WSController" data-source-line="19" id="ent0013"><rect fill="#F1F1F1" height="46.0986" rx="2.5" ry="2.5" style="stroke:#181818;stroke-width:0.5;" width="137.9996" x="163" y="463.4886"/><rect fill="#F1F1F1" height="10" style="stroke:#181818;stroke-width:0.5;" width="15" x="280.9996" y="468.4886"/><rect fill="#F1F1F1" height="2" style="stroke:#181818;stroke-width:0.5;" width="4" x="278.9996" y="470.4886"/><rect fill="#F1F1F1" height="2" style="stroke:#181818;stroke-width:0.5;" width="4" x="278.9996" y="474.4886"/><text fill="#000000" font-family="sans-serif" font-size="14" lengthAdjust="spacing" textLength="97.9996" x="178" y="496.6205">&#23454;&#26102;&#28040;&#24687;&#25511;&#21046;&#22120;</text></g><!--entity FileService--><g class="entity" data-qualified-name=".....FileService" data-source-line="20" id="ent0014"><rect fill="#F1F1F1" height="46.0986" rx="2.5" ry="2.5" style="stroke:#181818;stroke-width:0.5;" width="95.9998" x="201" y="728.0586"/><rect fill="#F1F1F1" height="10" style="stroke:#181818;stroke-width:0.5;" width="15" x="276.9998" y="733.0586"/><rect fill="#F1F1F1" height="2" style="stroke:#181818;stroke-width:0.5;" width="4" x="274.9998" y="735.0586"/><rect fill="#F1F1F1" height="2" style="stroke:#181818;stroke-width:0.5;" width="4" x="274.9998" y="739.0586"/><text fill="#000000" font-family="sans-serif" font-size="14" lengthAdjust="spacing" textLength="55.9998" x="216" y="761.1905">&#25991;&#20214;&#26381;&#21153;</text></g><!--entity MySQL--><g class="entity" data-qualified-name="MySQL" data-source-line="23" id="ent0015"><path d="M80,883.9286 C80,873.9286 110.9999,873.9286 110.9999,873.9286 C110.9999,873.9286 141.9998,873.9286 141.9998,883.9286 L141.9998,909.0273 C141.9998,919.0273 110.9999,919.0273 110.9999,919.0273 C110.9999,919.0273 80,919.0273 80,909.0273 L80,883.9286" fill="#F1F1F1" style="stroke:#181818;stroke-width:0.5;"/><path d="M80,883.9286 C80,893.9286 110.9999,893.9286 110.9999,893.9286 C110.9999,893.9286 141.9998,893.9286 141.9998,883.9286" fill="none" style="stroke:#181818;stroke-width:0.5;"/><text fill="#000000" font-family="sans-serif" font-size="14" lengthAdjust="spacing" textLength="41.9998" x="90" y="911.0605">&#25968;&#25454;&#24211;</text></g><!--entity ImgDir--><g class="entity" data-qualified-name="ImgDir" data-source-line="24" id="ent0016"><path d="M179.33,869.4286 L220.33,869.4286 A3.75,3.75 0 0 1 222.83,871.9286 L229.83,890.4286 L318.6675,890.4286 A2.5,2.5 0 0 1 321.1675,892.9286 L321.1675,921.0273 A2.5,2.5 0 0 1 318.6675,923.5273 L179.33,923.5273 A2.5,2.5 0 0 1 176.83,921.0273 L176.83,871.9286 A2.5,2.5 0 0 1 179.33,869.4286" fill="#F1F1F1" style="stroke:#181818;stroke-width:0.5;"/><line style="stroke:#181818;stroke-width:0.5;" x1="176.83" x2="229.83" y1="890.4286" y2="890.4286"/><text fill="#000000" font-family="sans-serif" font-size="14" lengthAdjust="spacing" textLength="114.3375" x="186.83" y="910.5605">&#26412;&#22320;&#22270;&#29255;&#30446;&#24405; img/</text></g><g class="entity" data-qualified-name="GMN30" data-source-line="42" id="ent0031"><path d="M333,693.7886 L333,696.2886 L267.44,625.0786 L333,704.2886 L333,808.4297 A0,0 0 0 0 333,808.4297 L419.0001,808.4297 A0,0 0 0 0 419.0001,808.4297 L419.0001,703.7886 L409.0001,693.7886 L333,693.7886 A0,0 0 0 0 333,693.7886" fill="#FEFFDD" style="stroke:#181818;stroke-width:0.5;"/><path d="M409.0001,693.7886 L409.0001,703.7886 L419.0001,703.7886 L409.0001,693.7886" fill="#FEFFDD" style="stroke:#181818;stroke-width:0.5;"/><text fill="#000000" font-family="sans-serif" font-size="13" lengthAdjust="spacing" textLength="65.0001" x="339" y="710.9825">&#26680;&#24515;&#26381;&#21153;&#65306;</text><text fill="#000000" font-family="sans-serif" font-size="13" lengthAdjust="spacing" textLength="59.941" x="339" y="725.9312">- &#35748;&#35777;&#26381;&#21153;</text><text fill="#000000" font-family="sans-serif" font-size="13" lengthAdjust="spacing" textLength="59.941" x="339" y="740.8799">- &#21830;&#21697;&#26381;&#21153;</text><text fill="#000000" font-family="sans-serif" font-size="13" lengthAdjust="spacing" textLength="59.941" x="339" y="755.8287">- &#35746;&#21333;&#26381;&#21153;</text><text fill="#000000" font-family="sans-serif" font-size="13" lengthAdjust="spacing" textLength="59.941" x="339" y="770.7774">- &#28040;&#24687;&#26381;&#21153;</text><text fill="#000000" font-family="sans-serif" font-size="13" lengthAdjust="spacing" textLength="59.941" x="339" y="785.7261">- &#31649;&#29702;&#26381;&#21153;</text><text fill="#000000" font-family="sans-serif" font-size="13" lengthAdjust="spacing" textLength="59.941" x="339" y="800.6749">- &#21453;&#39304;&#26381;&#21153;</text></g><!--link UI to VM--><g class="link" data-entity-1="ent0003" data-entity-2="ent0004" data-link-type="dependency" data-source-line="26" id="lnk17"><path d="M232,145.5186 C232,164.4986 232,182.5486 232,199.8386" fill="none" id="UI-to-VM" style="stroke:#181818;stroke-width:1;"/><polygon fill="#181818" points="232,205.8386,236,196.8386,232,200.8386,228,196.8386,232,205.8386" style="stroke:#181818;stroke-width:1;"/></g><!--link VM to API--><g class="link" data-entity-1="ent0004" data-entity-2="ent0005" data-link-type="dependency" data-source-line="27" id="lnk18"><path d="M199.39,252.8886 C173.75,270.6286 143.125,291.7961 117.485,309.5261" fill="none" id="VM-to-API" style="stroke:#181818;stroke-width:1;"/><polygon fill="#181818" points="112.55,312.9386,122.2276,311.1098,116.6625,310.0948,117.6775,304.5298,112.55,312.9386" style="stroke:#181818;stroke-width:1;"/></g><!--link VM to WSClient--><g class="link" data-entity-1="ent0004" data-entity-2="ent0006" data-link-type="dependency" data-source-line="28" id="lnk19"><path d="M232,252.8886 C232,270.6286 232,289.2086 232,306.9386" fill="none" id="VM-to-WSClient" style="stroke:#181818;stroke-width:1;"/><polygon fill="#181818" points="232,312.9386,236,303.9386,232,307.9386,228,303.9386,232,312.9386" style="stroke:#181818;stroke-width:1;"/></g><!--link VM to TokenManager--><g class="link" data-entity-1="ent0004" data-entity-2="ent0007" data-link-type="dependency" data-source-line="29" id="lnk20"><path d="M264.61,252.8886 C290.25,270.6286 320.875,291.7961 346.515,309.5261" fill="none" id="VM-to-TokenManager" style="stroke:#181818;stroke-width:1;"/><polygon fill="#181818" points="351.45,312.9386,346.3225,304.5298,347.3375,310.0948,341.7724,311.1098,351.45,312.9386" style="stroke:#181818;stroke-width:1;"/></g><!--link API to Controller--><g class="link" data-entity-1="ent0005" data-entity-2="ent0009" data-link-type="dependency" data-source-line="31" id="lnk21"><path d="M80,359.9386 C80,387.9386 80,429.4486 80,457.3186" fill="none" id="API-to-Controller" style="stroke:#181818;stroke-width:1;"/><polygon fill="#181818" points="80,463.3186,84,454.3186,80,458.3186,76,454.3186,80,463.3186" style="stroke:#181818;stroke-width:1;"/><text fill="#000000" font-family="sans-serif" font-size="13" lengthAdjust="spacing" textLength="52.0001" x="81" y="404.6825">&#25509;&#21475;&#35831;&#27714;</text></g><!--link WSClient to WSController--><g class="link" data-entity-1="ent0006" data-entity-2="ent0013" data-link-type="dependency" data-source-line="32" id="lnk22"><path d="M232,359.9386 C232,387.9386 232,429.4486 232,457.3186" fill="none" id="WSClient-to-WSController" style="stroke:#181818;stroke-width:1;"/><polygon fill="#181818" points="232,463.3186,236,454.3186,232,458.3186,228,454.3186,232,463.3186" style="stroke:#181818;stroke-width:1;"/><text fill="#000000" font-family="sans-serif" font-size="13" lengthAdjust="spacing" textLength="52.0001" x="233" y="404.6825">&#23454;&#26102;&#28040;&#24687;</text></g><!--link Controller to Security--><g class="link" data-entity-1="ent0009" data-entity-2="ent0012" data-link-type="dependency" data-source-line="33" id="lnk23"><path d="M84.35,509.8986 C87.7,527.1586 91.2337,545.3392 94.9337,564.3492" fill="none" id="Controller-to-Security" style="stroke:#181818;stroke-width:1;"/><polygon fill="#181818" points="96.08,570.2386,98.2869,560.6402,95.1248,565.3307,90.4342,562.1686,96.08,570.2386" style="stroke:#181818;stroke-width:1;"/></g><!--link Controller to Service--><g class="link" data-entity-1="ent0009" data-entity-2="ent0010" data-link-type="dependency" data-source-line="34" id="lnk24"><path d="M113.19,509.8986 C142.55,529.6686 180.1939,555.0163 209.6139,574.8363" fill="none" id="Controller-to-Service" style="stroke:#181818;stroke-width:1;"/><polygon fill="#181818" points="214.59,578.1886,209.3607,569.8427,210.4432,575.395,204.8909,576.4775,214.59,578.1886" style="stroke:#181818;stroke-width:1;"/></g><!--link WSController to Service--><g class="link" data-entity-1="ent0013" data-entity-2="ent0010" data-link-type="dependency" data-source-line="35" id="lnk25"><path d="M235.16,509.8986 C237.97,529.7286 241.1978,552.618 244.0078,572.438" fill="none" id="WSController-to-Service" style="stroke:#181818;stroke-width:1;"/><polygon fill="#181818" points="244.85,578.3786,247.547,568.9063,244.1481,573.4281,239.6263,570.0292,244.85,578.3786" style="stroke:#181818;stroke-width:1;"/></g><!--link Service to Repository--><g class="link" data-entity-1="ent0010" data-entity-2="ent0011" data-link-type="dependency" data-source-line="36" id="lnk26"><path d="M227.19,625.0786 C201.29,652.9486 161.4254,695.8544 135.6354,723.5944" fill="none" id="Service-to-Repository" style="stroke:#181818;stroke-width:1;"/><polygon fill="#181818" points="131.55,727.9886,140.6076,724.1208,134.9545,724.3267,134.7486,718.6736,131.55,727.9886" style="stroke:#181818;stroke-width:1;"/></g><!--link Service to FileService--><g class="link" data-entity-1="ent0010" data-entity-2="ent0014" data-link-type="dependency" data-source-line="37" id="lnk27"><path d="M248.15,625.0786 C248.34,652.9486 248.6189,694.2488 248.8089,721.9888" fill="none" id="Service-to-FileService" style="stroke:#181818;stroke-width:1;"/><polygon fill="#181818" points="248.85,727.9886,252.7883,718.9614,248.8158,722.9888,244.7885,719.0162,248.85,727.9886" style="stroke:#181818;stroke-width:1;"/></g><!--link Repository to MySQL--><g class="link" data-entity-1="ent0011" data-entity-2="ent0015" data-link-type="dependency" data-source-line="38" id="lnk28"><path d="M111,774.5086 C111,801.5986 111,840.8986 111,867.7086" fill="none" id="Repository-to-MySQL" style="stroke:#181818;stroke-width:1;"/><polygon fill="#181818" points="111,873.7086,115,864.7086,111,868.7086,107,864.7086,111,873.7086" style="stroke:#181818;stroke-width:1;"/></g><!--link FileService to ImgDir--><g class="link" data-entity-1="ent0014" data-entity-2="ent0016" data-link-type="dependency" data-source-line="39" id="lnk29"><path d="M249,774.5086 C249,800.1086 249,856.9486 249,884.0986" fill="none" id="FileService-to-ImgDir" style="stroke:#181818;stroke-width:1;"/><polygon fill="#181818" points="249,890.0986,253,881.0986,249,885.0986,245,881.0986,249,890.0986" style="stroke:#181818;stroke-width:1;"/></g><?plantuml-src TLD1Rn915BxFhvXmDGrt3oQcngH6aYgqlVIoXIbkkioGtLL36fFIAcLjQHifhIqK2s8XQfTM8oLWvS_ipEwU_0iEk-ooe9vsttlVVE-zxvjHraIS5cGX1PLdGeAy574IhWgIWe3YLz92V4r8egYQaH2KKLmLS5920AYYoXEn-IXavpLQlZHwkqpRCNeDzhveVk-R_Gzies_S5bcrmwglQVaN09Wa40nHNQE58kqTceUj45m74CP9AaqmmYeCcQLT-wnEhpUNiNdIfxUbi7rnPDT-X6afHulPCElaMROTDhgVZLxFw5xImLROr6lcGIu41GKkp4tIMSqSxynQDLhTSG2BaKa0s_j4zp-oIe6-hJc0-_DJ55IlikEElN5g36fKhxFyZVcbxK2NehEIo36JUAFVCBNTm4mniePmHC1SH1cyybKusECyNkFrwQcQDD-X9oqkXCCnIx0g4qdY39FDkgVyl8UA8lc564TJNAKhLj0jVM0VwnxmAKeJHLI9d9dULQDlMcxtPVneAGRlGAlvpjA-iRCj--HWr2N-N1RLpBzaSktnn_Ta-i_qx6ZRw7S2uZyK9UGjmPLA2Agm8YZ8MuBsYWuiaea-UGnMYPH0CgzLljBA5RVPrBRDiixl31HJoR23d4ib7uWo00jpS6Rctj3znOZpDxHvzElRE8ed_08Sw6J7Ey2xqBqrLlk6NMy2xxn75WG6LG61oX3gw_XNtXLWWYfO67sTNC39O3eev1ZYb5pn0W0dwmc5YOhW2b5Lae9arM_9phlyfRbE_Vvv2cQWfJUiTjRDyD1zddvewNLQAFdXw5fueViuncVt2_P5VXGYd8338S0V?></g></svg>