<?plantuml 1.2026.1?><svg xmlns="http://www.w3.org/2000/svg" xmlns:xlink="http://www.w3.org/1999/xlink" contentStyleType="text/css" data-diagram-type="CLASS" height="1075px" preserveAspectRatio="none" style="width:1444px;height:1075px;background:#FFFFFF;" version="1.1" viewBox="0 0 1444 1075" width="1444px" zoomAndPan="magnify"><title>TPS &#25968;&#25454;&#24211; ER &#22270;</title><defs/><g><g class="title" data-source-line="5"><text fill="#000000" font-family="sans-serif" font-size="14" font-weight="bold" lengthAdjust="spacing" textLength="114.3445" x="658.0103" y="23.1318">TPS &#25968;&#25454;&#24211; ER &#22270;</text></g><!--class ??--><g class="entity" data-qualified-name=".." data-source-line="7" id="ent0002"><rect fill="#F1F1F1" height="251.3809" rx="2.5" ry="2.5" style="stroke:#181818;stroke-width:0.5;" width="133.365" x="862" y="44.0986"/><text fill="#000000" font-family="sans-serif" font-size="14" lengthAdjust="spacing" textLength="27.9999" x="914.6826" y="62.2305">&#29992;&#25143;</text><line style="stroke:#181818;stroke-width:0.5;" x1="863" x2="994.365" y1="70.1973" y2="70.1973"/><g data-visibility-modifier="IE_MANDATORY"><ellipse cx="873" cy="83.7466" fill="#000000" rx="3" ry="3" style="stroke:#000000;stroke-width:1;"/></g><text fill="#000000" font-family="sans-serif" font-size="14" lengthAdjust="spacing" textLength="73.1376" x="882" y="87.3291">&#32534;&#21495; : bigint</text><line style="stroke:#181818;stroke-width:1;" x1="863" x2="994.365" y1="94.2959" y2="94.2959"/><text fill="#000000" font-family="sans-serif" font-size="14" lengthAdjust="spacing" textLength="100.3514" x="868" y="111.4277">&#25163;&#26426;&#21495; : varchar</text><text fill="#000000" font-family="sans-serif" font-size="14" lengthAdjust="spacing" textLength="86.3514" x="868" y="127.5264">&#23398;&#21495; : varchar</text><text fill="#000000" font-family="sans-serif" font-size="14" lengthAdjust="spacing" textLength="114.3513" x="868" y="143.625">&#23494;&#30721;&#21704;&#24076; : varchar</text><text fill="#000000" font-family="sans-serif" font-size="14" lengthAdjust="spacing" textLength="86.3514" x="868" y="159.7236">&#26165;&#31216; : varchar</text><text fill="#000000" font-family="sans-serif" font-size="14" lengthAdjust="spacing" textLength="114.3513" x="868" y="175.8223">&#22836;&#20687;&#22320;&#22336; : varchar</text><text fill="#000000" font-family="sans-serif" font-size="14" lengthAdjust="spacing" textLength="68.4549" x="868" y="191.9209">&#20449;&#29992;&#20998; : int</text><text fill="#000000" font-family="sans-serif" font-size="14" lengthAdjust="spacing" textLength="74.6893" x="868" y="208.0195">&#35282;&#33394; : enum</text><text fill="#000000" font-family="sans-serif" font-size="14" lengthAdjust="spacing" textLength="74.6893" x="868" y="224.1182">&#29366;&#24577; : enum</text><text fill="#000000" font-family="sans-serif" font-size="14" lengthAdjust="spacing" textLength="114.3513" x="868" y="240.2168">&#20010;&#20154;&#31616;&#20171; : varchar</text><text fill="#000000" font-family="sans-serif" font-size="14" lengthAdjust="spacing" textLength="100.3514" x="868" y="256.3154">&#25152;&#22312;&#22320; : varchar</text><text fill="#000000" font-family="sans-serif" font-size="14" lengthAdjust="spacing" textLength="114.3513" x="868" y="272.4141">&#25910;&#36135;&#22320;&#22336; : varchar</text><text fill="#000000" font-family="sans-serif" font-size="14" lengthAdjust="spacing" textLength="121.365" x="868" y="288.5127">&#21019;&#24314;&#26102;&#38388; : datetime</text></g><!--class ??--><g class="entity" data-qualified-name=".." data-source-line="24" id="ent0003"><rect fill="#F1F1F1" height="251.3809" rx="2.5" ry="2.5" style="stroke:#181818;stroke-width:0.5;" width="161.3649" x="501" y="355.4786"/><text fill="#000000" font-family="sans-serif" font-size="14" lengthAdjust="spacing" textLength="27.9999" x="567.6825" y="373.6105">&#21830;&#21697;</text><line style="stroke:#181818;stroke-width:0.5;" x1="502" x2="661.3649" y1="381.5773" y2="381.5773"/><g data-visibility-modifier="IE_MANDATORY"><ellipse cx="512" cy="395.1266" fill="#000000" rx="3" ry="3" style="stroke:#000000;stroke-width:1;"/></g><text fill="#000000" font-family="sans-serif" font-size="14" lengthAdjust="spacing" textLength="73.1376" x="521" y="398.7091">&#32534;&#21495; : bigint</text><line style="stroke:#181818;stroke-width:1;" x1="502" x2="661.3649" y1="405.6759" y2="405.6759"/><text fill="#000000" font-family="sans-serif" font-size="14" lengthAdjust="spacing" textLength="101.1375" x="507" y="422.8077">&#29992;&#25143;&#32534;&#21495; : bigint</text><text fill="#000000" font-family="sans-serif" font-size="14" lengthAdjust="spacing" textLength="86.3514" x="507" y="438.9064">&#26631;&#39064; : varchar</text><text fill="#000000" font-family="sans-serif" font-size="14" lengthAdjust="spacing" textLength="62.2343" x="507" y="455.005">&#25551;&#36848; : text</text><text fill="#000000" font-family="sans-serif" font-size="14" lengthAdjust="spacing" textLength="87.91" x="507" y="471.1036">&#20215;&#26684; : decimal</text><text fill="#000000" font-family="sans-serif" font-size="14" lengthAdjust="spacing" textLength="86.3514" x="507" y="487.2023">&#20998;&#31867; : varchar</text><text fill="#000000" font-family="sans-serif" font-size="14" lengthAdjust="spacing" textLength="74.6893" x="507" y="503.3009">&#25104;&#33394; : enum</text><text fill="#000000" font-family="sans-serif" font-size="14" lengthAdjust="spacing" textLength="74.6893" x="507" y="519.3995">&#29366;&#24577; : enum</text><text fill="#000000" font-family="sans-serif" font-size="14" lengthAdjust="spacing" textLength="100.3514" x="507" y="535.4982">&#25152;&#22312;&#22320; : varchar</text><text fill="#000000" font-family="sans-serif" font-size="14" lengthAdjust="spacing" textLength="68.4549" x="507" y="551.5968">&#27983;&#35272;&#37327; : int</text><text fill="#000000" font-family="sans-serif" font-size="14" lengthAdjust="spacing" textLength="68.4549" x="507" y="567.6954">&#25910;&#34255;&#25968; : int</text><text fill="#000000" font-family="sans-serif" font-size="14" lengthAdjust="spacing" textLength="149.3649" x="507" y="583.7941">&#26368;&#26032;&#25830;&#20142;&#26102;&#38388; : datetime</text><text fill="#000000" font-family="sans-serif" font-size="14" lengthAdjust="spacing" textLength="121.365" x="507" y="599.8927">&#21019;&#24314;&#26102;&#38388; : datetime</text></g><!--class ????--><g class="entity" data-qualified-name="...." data-source-line="41" id="ent0004"><rect fill="#F1F1F1" height="106.4932" rx="2.5" ry="2.5" style="stroke:#181818;stroke-width:0.5;" width="126.3513" x="343.51" y="707.1086"/><text fill="#000000" font-family="sans-serif" font-size="14" lengthAdjust="spacing" textLength="55.9998" x="378.6858" y="725.2405">&#21830;&#21697;&#22270;&#29255;</text><line style="stroke:#181818;stroke-width:0.5;" x1="344.51" x2="468.8613" y1="733.2073" y2="733.2073"/><g data-visibility-modifier="IE_MANDATORY"><ellipse cx="354.51" cy="746.7566" fill="#000000" rx="3" ry="3" style="stroke:#000000;stroke-width:1;"/></g><text fill="#000000" font-family="sans-serif" font-size="14" lengthAdjust="spacing" textLength="73.1376" x="363.51" y="750.3391">&#32534;&#21495; : bigint</text><line style="stroke:#181818;stroke-width:1;" x1="344.51" x2="468.8613" y1="757.3059" y2="757.3059"/><text fill="#000000" font-family="sans-serif" font-size="14" lengthAdjust="spacing" textLength="101.1375" x="349.51" y="774.4377">&#21830;&#21697;&#32534;&#21495; : bigint</text><text fill="#000000" font-family="sans-serif" font-size="14" lengthAdjust="spacing" textLength="114.3513" x="349.51" y="790.5364">&#22270;&#29255;&#22320;&#22336; : varchar</text><text fill="#000000" font-family="sans-serif" font-size="14" lengthAdjust="spacing" textLength="68.4549" x="349.51" y="806.635">&#25490;&#24207;&#21495; : int</text></g><!--class ??--><g class="entity" data-qualified-name=".." data-source-line="49" id="ent0005"><rect fill="#F1F1F1" height="106.4932" rx="2.5" ry="2.5" style="stroke:#181818;stroke-width:0.5;" width="133.365" x="7" y="707.1086"/><text fill="#000000" font-family="sans-serif" font-size="14" lengthAdjust="spacing" textLength="27.9999" x="59.6826" y="725.2405">&#25910;&#34255;</text><line style="stroke:#181818;stroke-width:0.5;" x1="8" x2="139.365" y1="733.2073" y2="733.2073"/><g data-visibility-modifier="IE_MANDATORY"><ellipse cx="18" cy="746.7566" fill="#000000" rx="3" ry="3" style="stroke:#000000;stroke-width:1;"/></g><text fill="#000000" font-family="sans-serif" font-size="14" lengthAdjust="spacing" textLength="73.1376" x="27" y="750.3391">&#32534;&#21495; : bigint</text><line style="stroke:#181818;stroke-width:1;" x1="8" x2="139.365" y1="757.3059" y2="757.3059"/><text fill="#000000" font-family="sans-serif" font-size="14" lengthAdjust="spacing" textLength="101.1375" x="13" y="774.4377">&#29992;&#25143;&#32534;&#21495; : bigint</text><text fill="#000000" font-family="sans-serif" font-size="14" lengthAdjust="spacing" textLength="101.1375" x="13" y="790.5364">&#21830;&#21697;&#32534;&#21495; : bigint</text><text fill="#000000" font-family="sans-serif" font-size="14" lengthAdjust="spacing" textLength="121.365" x="13" y="806.635">&#21019;&#24314;&#26102;&#38388; : datetime</text></g><!--class ????--><g class="entity" data-qualified-name="...." data-source-line="57" id="ent0006"><rect fill="#F1F1F1" height="106.4932" rx="2.5" ry="2.5" style="stroke:#181818;stroke-width:0.5;" width="133.365" x="175" y="707.1086"/><text fill="#000000" font-family="sans-serif" font-size="14" lengthAdjust="spacing" textLength="55.9998" x="213.6826" y="725.2405">&#27983;&#35272;&#21382;&#21490;</text><line style="stroke:#181818;stroke-width:0.5;" x1="176" x2="307.365" y1="733.2073" y2="733.2073"/><g data-visibility-modifier="IE_MANDATORY"><ellipse cx="186" cy="746.7566" fill="#000000" rx="3" ry="3" style="stroke:#000000;stroke-width:1;"/></g><text fill="#000000" font-family="sans-serif" font-size="14" lengthAdjust="spacing" textLength="73.1376" x="195" y="750.3391">&#32534;&#21495; : bigint</text><line style="stroke:#181818;stroke-width:1;" x1="176" x2="307.365" y1="757.3059" y2="757.3059"/><text fill="#000000" font-family="sans-serif" font-size="14" lengthAdjust="spacing" textLength="101.1375" x="181" y="774.4377">&#29992;&#25143;&#32534;&#21495; : bigint</text><text fill="#000000" font-family="sans-serif" font-size="14" lengthAdjust="spacing" textLength="101.1375" x="181" y="790.5364">&#21830;&#21697;&#32534;&#21495; : bigint</text><text fill="#000000" font-family="sans-serif" font-size="14" lengthAdjust="spacing" textLength="121.365" x="181" y="806.635">&#27983;&#35272;&#26102;&#38388; : datetime</text></g><!--class ??--><g class="entity" data-qualified-name=".." data-source-line="65" id="ent0007"><rect fill="#F1F1F1" height="170.8877" rx="2.5" ry="2.5" style="stroke:#181818;stroke-width:0.5;" width="154.3512" x="504.51" y="674.9086"/><text fill="#000000" font-family="sans-serif" font-size="14" lengthAdjust="spacing" textLength="27.9999" x="567.6857" y="693.0405">&#20250;&#35805;</text><line style="stroke:#181818;stroke-width:0.5;" x1="505.51" x2="657.8612" y1="701.0073" y2="701.0073"/><g data-visibility-modifier="IE_MANDATORY"><ellipse cx="515.51" cy="714.5566" fill="#000000" rx="3" ry="3" style="stroke:#000000;stroke-width:1;"/></g><text fill="#000000" font-family="sans-serif" font-size="14" lengthAdjust="spacing" textLength="73.1376" x="524.51" y="718.1391">&#32534;&#21495; : bigint</text><line style="stroke:#181818;stroke-width:1;" x1="505.51" x2="657.8612" y1="725.1059" y2="725.1059"/><text fill="#000000" font-family="sans-serif" font-size="14" lengthAdjust="spacing" textLength="101.1375" x="510.51" y="742.2377">&#20080;&#23478;&#32534;&#21495; : bigint</text><text fill="#000000" font-family="sans-serif" font-size="14" lengthAdjust="spacing" textLength="101.1375" x="510.51" y="758.3364">&#21334;&#23478;&#32534;&#21495; : bigint</text><text fill="#000000" font-family="sans-serif" font-size="14" lengthAdjust="spacing" textLength="101.1375" x="510.51" y="774.435">&#21830;&#21697;&#32534;&#21495; : bigint</text><text fill="#000000" font-family="sans-serif" font-size="14" lengthAdjust="spacing" textLength="142.3512" x="510.51" y="790.5336">&#26368;&#21518;&#19968;&#26465;&#28040;&#24687; : varchar</text><text fill="#000000" font-family="sans-serif" font-size="14" lengthAdjust="spacing" textLength="96.4548" x="510.51" y="806.6323">&#20080;&#23478;&#26410;&#35835;&#25968; : int</text><text fill="#000000" font-family="sans-serif" font-size="14" lengthAdjust="spacing" textLength="96.4548" x="510.51" y="822.7309">&#21334;&#23478;&#26410;&#35835;&#25968; : int</text><text fill="#000000" font-family="sans-serif" font-size="14" lengthAdjust="spacing" textLength="121.365" x="510.51" y="838.8295">&#26356;&#26032;&#26102;&#38388; : datetime</text></g><!--class ??--><g class="entity" data-qualified-name=".." data-source-line="77" id="ent0008"><rect fill="#F1F1F1" height="154.7891" rx="2.5" ry="2.5" style="stroke:#181818;stroke-width:0.5;" width="133.365" x="201" y="913.8486"/><text fill="#000000" font-family="sans-serif" font-size="14" lengthAdjust="spacing" textLength="27.9999" x="253.6826" y="931.9805">&#28040;&#24687;</text><line style="stroke:#181818;stroke-width:0.5;" x1="202" x2="333.365" y1="939.9473" y2="939.9473"/><g data-visibility-modifier="IE_MANDATORY"><ellipse cx="212" cy="953.4966" fill="#000000" rx="3" ry="3" style="stroke:#000000;stroke-width:1;"/></g><text fill="#000000" font-family="sans-serif" font-size="14" lengthAdjust="spacing" textLength="73.1376" x="221" y="957.0791">&#32534;&#21495; : bigint</text><line style="stroke:#181818;stroke-width:1;" x1="202" x2="333.365" y1="964.0459" y2="964.0459"/><text fill="#000000" font-family="sans-serif" font-size="14" lengthAdjust="spacing" textLength="101.1375" x="207" y="981.1777">&#20250;&#35805;&#32534;&#21495; : bigint</text><text fill="#000000" font-family="sans-serif" font-size="14" lengthAdjust="spacing" textLength="115.1374" x="207" y="997.2764">&#21457;&#36865;&#32773;&#32534;&#21495; : bigint</text><text fill="#000000" font-family="sans-serif" font-size="14" lengthAdjust="spacing" textLength="62.2343" x="207" y="1013.375">&#20869;&#23481; : text</text><text fill="#000000" font-family="sans-serif" font-size="14" lengthAdjust="spacing" textLength="74.6893" x="207" y="1029.4736">&#31867;&#22411; : enum</text><text fill="#000000" font-family="sans-serif" font-size="14" lengthAdjust="spacing" textLength="117.4958" x="207" y="1045.5723">&#26159;&#21542;&#24050;&#35835; : boolean</text><text fill="#000000" font-family="sans-serif" font-size="14" lengthAdjust="spacing" textLength="121.365" x="207" y="1061.6709">&#21019;&#24314;&#26102;&#38388; : datetime</text></g><!--class ??--><g class="entity" data-qualified-name=".." data-source-line="88" id="ent0009"><rect fill="#F1F1F1" height="186.9863" rx="2.5" ry="2.5" style="stroke:#181818;stroke-width:0.5;" width="133.365" x="862" y="666.8586"/><text fill="#000000" font-family="sans-serif" font-size="14" lengthAdjust="spacing" textLength="27.9999" x="914.6826" y="684.9905">&#35746;&#21333;</text><line style="stroke:#181818;stroke-width:0.5;" x1="863" x2="994.365" y1="692.9573" y2="692.9573"/><g data-visibility-modifier="IE_MANDATORY"><ellipse cx="873" cy="706.5066" fill="#000000" rx="3" ry="3" style="stroke:#000000;stroke-width:1;"/></g><text fill="#000000" font-family="sans-serif" font-size="14" lengthAdjust="spacing" textLength="73.1376" x="882" y="710.0891">&#32534;&#21495; : bigint</text><line style="stroke:#181818;stroke-width:1;" x1="863" x2="994.365" y1="717.0559" y2="717.0559"/><text fill="#000000" font-family="sans-serif" font-size="14" lengthAdjust="spacing" textLength="101.1375" x="868" y="734.1877">&#21830;&#21697;&#32534;&#21495; : bigint</text><text fill="#000000" font-family="sans-serif" font-size="14" lengthAdjust="spacing" textLength="101.1375" x="868" y="750.2864">&#20080;&#23478;&#32534;&#21495; : bigint</text><text fill="#000000" font-family="sans-serif" font-size="14" lengthAdjust="spacing" textLength="101.1375" x="868" y="766.385">&#21334;&#23478;&#32534;&#21495; : bigint</text><text fill="#000000" font-family="sans-serif" font-size="14" lengthAdjust="spacing" textLength="87.91" x="868" y="782.4836">&#20215;&#26684; : decimal</text><text fill="#000000" font-family="sans-serif" font-size="14" lengthAdjust="spacing" textLength="74.6893" x="868" y="798.5823">&#29366;&#24577; : enum</text><text fill="#000000" font-family="sans-serif" font-size="14" lengthAdjust="spacing" textLength="86.3514" x="868" y="814.6809">&#22791;&#27880; : varchar</text><text fill="#000000" font-family="sans-serif" font-size="14" lengthAdjust="spacing" textLength="114.3513" x="868" y="830.7795">&#29289;&#27969;&#21333;&#21495; : varchar</text><text fill="#000000" font-family="sans-serif" font-size="14" lengthAdjust="spacing" textLength="121.365" x="868" y="846.8782">&#21019;&#24314;&#26102;&#38388; : datetime</text></g><!--class ??--><g class="entity" data-qualified-name=".." data-source-line="101" id="ent0010"><rect fill="#F1F1F1" height="154.7891" rx="2.5" ry="2.5" style="stroke:#181818;stroke-width:0.5;" width="141.1373" x="995.11" y="913.8486"/><text fill="#000000" font-family="sans-serif" font-size="14" lengthAdjust="spacing" textLength="27.9999" x="1051.6787" y="931.9805">&#35780;&#20215;</text><line style="stroke:#181818;stroke-width:0.5;" x1="996.11" x2="1135.2473" y1="939.9473" y2="939.9473"/><g data-visibility-modifier="IE_MANDATORY"><ellipse cx="1006.11" cy="953.4966" fill="#000000" rx="3" ry="3" style="stroke:#000000;stroke-width:1;"/></g><text fill="#000000" font-family="sans-serif" font-size="14" lengthAdjust="spacing" textLength="73.1376" x="1015.11" y="957.0791">&#32534;&#21495; : bigint</text><line style="stroke:#181818;stroke-width:1;" x1="996.11" x2="1135.2473" y1="964.0459" y2="964.0459"/><text fill="#000000" font-family="sans-serif" font-size="14" lengthAdjust="spacing" textLength="101.1375" x="1001.11" y="981.1777">&#35746;&#21333;&#32534;&#21495; : bigint</text><text fill="#000000" font-family="sans-serif" font-size="14" lengthAdjust="spacing" textLength="115.1374" x="1001.11" y="997.2764">&#35780;&#20215;&#32773;&#32534;&#21495; : bigint</text><text fill="#000000" font-family="sans-serif" font-size="14" lengthAdjust="spacing" textLength="129.1373" x="1001.11" y="1013.375">&#34987;&#35780;&#20215;&#32773;&#32534;&#21495; : bigint</text><text fill="#000000" font-family="sans-serif" font-size="14" lengthAdjust="spacing" textLength="54.455" x="1001.11" y="1029.4736">&#35780;&#20998; : int</text><text fill="#000000" font-family="sans-serif" font-size="14" lengthAdjust="spacing" textLength="86.3514" x="1001.11" y="1045.5723">&#20869;&#23481; : varchar</text><text fill="#000000" font-family="sans-serif" font-size="14" lengthAdjust="spacing" textLength="121.365" x="1001.11" y="1061.6709">&#21019;&#24314;&#26102;&#38388; : datetime</text></g><!--class ??--><g class="entity" data-qualified-name=".." data-source-line="112" id="ent0011"><rect fill="#F1F1F1" height="138.6904" rx="2.5" ry="2.5" style="stroke:#181818;stroke-width:0.5;" width="133.365" x="694" y="691.0086"/><text fill="#000000" font-family="sans-serif" font-size="14" lengthAdjust="spacing" textLength="27.9999" x="746.6826" y="709.1405">&#20030;&#25253;</text><line style="stroke:#181818;stroke-width:0.5;" x1="695" x2="826.365" y1="717.1073" y2="717.1073"/><g data-visibility-modifier="IE_MANDATORY"><ellipse cx="705" cy="730.6566" fill="#000000" rx="3" ry="3" style="stroke:#000000;stroke-width:1;"/></g><text fill="#000000" font-family="sans-serif" font-size="14" lengthAdjust="spacing" textLength="73.1376" x="714" y="734.2391">&#32534;&#21495; : bigint</text><line style="stroke:#181818;stroke-width:1;" x1="695" x2="826.365" y1="741.2059" y2="741.2059"/><text fill="#000000" font-family="sans-serif" font-size="14" lengthAdjust="spacing" textLength="115.1374" x="700" y="758.3377">&#20030;&#25253;&#32773;&#32534;&#21495; : bigint</text><text fill="#000000" font-family="sans-serif" font-size="14" lengthAdjust="spacing" textLength="101.1375" x="700" y="774.4364">&#21830;&#21697;&#32534;&#21495; : bigint</text><text fill="#000000" font-family="sans-serif" font-size="14" lengthAdjust="spacing" textLength="86.3514" x="700" y="790.535">&#21407;&#22240; : varchar</text><text fill="#000000" font-family="sans-serif" font-size="14" lengthAdjust="spacing" textLength="74.6893" x="700" y="806.6336">&#29366;&#24577; : enum</text><text fill="#000000" font-family="sans-serif" font-size="14" lengthAdjust="spacing" textLength="121.365" x="700" y="822.7323">&#21019;&#24314;&#26102;&#38388; : datetime</text></g><!--class ??--><g class="entity" data-qualified-name=".." data-source-line="122" id="ent0012"><rect fill="#F1F1F1" height="154.7891" rx="2.5" ry="2.5" style="stroke:#181818;stroke-width:0.5;" width="133.365" x="1136" y="403.7786"/><text fill="#000000" font-family="sans-serif" font-size="14" lengthAdjust="spacing" textLength="27.9999" x="1188.6826" y="421.9105">&#36890;&#30693;</text><line style="stroke:#181818;stroke-width:0.5;" x1="1137" x2="1268.365" y1="429.8773" y2="429.8773"/><g data-visibility-modifier="IE_MANDATORY"><ellipse cx="1147" cy="443.4266" fill="#000000" rx="3" ry="3" style="stroke:#000000;stroke-width:1;"/></g><text fill="#000000" font-family="sans-serif" font-size="14" lengthAdjust="spacing" textLength="73.1376" x="1156" y="447.0091">&#32534;&#21495; : bigint</text><line style="stroke:#181818;stroke-width:1;" x1="1137" x2="1268.365" y1="453.9759" y2="453.9759"/><text fill="#000000" font-family="sans-serif" font-size="14" lengthAdjust="spacing" textLength="101.1375" x="1142" y="471.1077">&#29992;&#25143;&#32534;&#21495; : bigint</text><text fill="#000000" font-family="sans-serif" font-size="14" lengthAdjust="spacing" textLength="86.3514" x="1142" y="487.2064">&#31867;&#22411; : varchar</text><text fill="#000000" font-family="sans-serif" font-size="14" lengthAdjust="spacing" textLength="86.3514" x="1142" y="503.305">&#26631;&#39064; : varchar</text><text fill="#000000" font-family="sans-serif" font-size="14" lengthAdjust="spacing" textLength="86.3514" x="1142" y="519.4036">&#20869;&#23481; : varchar</text><text fill="#000000" font-family="sans-serif" font-size="14" lengthAdjust="spacing" textLength="117.4958" x="1142" y="535.5023">&#26159;&#21542;&#24050;&#35835; : boolean</text><text fill="#000000" font-family="sans-serif" font-size="14" lengthAdjust="spacing" textLength="121.365" x="1142" y="551.6009">&#21019;&#24314;&#26102;&#38388; : datetime</text></g><!--class ??--><g class="entity" data-qualified-name=".." data-source-line="133" id="ent0013"><rect fill="#F1F1F1" height="138.6904" rx="2.5" ry="2.5" style="stroke:#181818;stroke-width:0.5;" width="133.365" x="1304" y="411.8286"/><text fill="#000000" font-family="sans-serif" font-size="14" lengthAdjust="spacing" textLength="27.9999" x="1356.6826" y="429.9605">&#21453;&#39304;</text><line style="stroke:#181818;stroke-width:0.5;" x1="1305" x2="1436.365" y1="437.9273" y2="437.9273"/><g data-visibility-modifier="IE_MANDATORY"><ellipse cx="1315" cy="451.4766" fill="#000000" rx="3" ry="3" style="stroke:#000000;stroke-width:1;"/></g><text fill="#000000" font-family="sans-serif" font-size="14" lengthAdjust="spacing" textLength="73.1376" x="1324" y="455.0591">&#32534;&#21495; : bigint</text><line style="stroke:#181818;stroke-width:1;" x1="1305" x2="1436.365" y1="462.0259" y2="462.0259"/><text fill="#000000" font-family="sans-serif" font-size="14" lengthAdjust="spacing" textLength="101.1375" x="1310" y="479.1577">&#29992;&#25143;&#32534;&#21495; : bigint</text><text fill="#000000" font-family="sans-serif" font-size="14" lengthAdjust="spacing" textLength="62.2343" x="1310" y="495.2564">&#20869;&#23481; : text</text><text fill="#000000" font-family="sans-serif" font-size="14" lengthAdjust="spacing" textLength="62.2343" x="1310" y="511.355">&#22238;&#22797; : text</text><text fill="#000000" font-family="sans-serif" font-size="14" lengthAdjust="spacing" textLength="74.6893" x="1310" y="527.4536">&#29366;&#24577; : enum</text><text fill="#000000" font-family="sans-serif" font-size="14" lengthAdjust="spacing" textLength="121.365" x="1310" y="543.5523">&#21019;&#24314;&#26102;&#38388; : datetime</text></g><!--link ?? to ??--><g class="link" data-entity-1="ent0002" data-entity-2="ent0003" data-link-type="crowfoot" data-source-line="143" id="lnk14"><path codeLine="143" d="M888.67,303.7986 C888.67,348.3686 888.67,379.6386 888.67,379.6386 C888.67,379.6386 771.69,379.6386 680.74,379.6386" fill="none" id="&#29992;&#25143;-&#21830;&#21697;" style="stroke:#181818;stroke-width:1;"/><line style="stroke:#181818;stroke-width:1;" x1="884.67" x2="892.67" y1="299.7986" y2="299.7986"/><line style="stroke:#181818;stroke-width:1;" x1="884.67" x2="892.67" y1="302.7986" y2="302.7986"/><line style="stroke:#181818;stroke-width:1;" x1="888.67" x2="888.67" y1="303.7986" y2="295.7986"/><line style="stroke:#181818;stroke-width:1;" x1="670.74" x2="662.74" y1="379.6386" y2="385.6386"/><line style="stroke:#181818;stroke-width:1;" x1="670.74" x2="662.74" y1="379.6386" y2="373.6386"/><line style="stroke:#181818;stroke-width:1;" x1="670.74" x2="662.74" y1="379.6386" y2="379.6386"/><ellipse cx="676.74" cy="379.6386" fill="none" rx="4" ry="4" style="stroke:#181818;stroke-width:1;"/><text fill="#000000" font-family="sans-serif" font-size="13" lengthAdjust="spacing" textLength="26" x="790.63" y="376.8325">&#21457;&#24067;</text></g><!--link ?? to ????--><g class="link" data-entity-1="ent0003" data-entity-2="ent0004" data-link-type="crowfoot" data-source-line="144" id="lnk15"><path codeLine="144" d="M492.59,543.6386 C446.81,543.6386 406.68,543.6386 406.68,543.6386 C406.68,543.6386 406.68,624.6086 406.68,688.7886" fill="none" id="&#21830;&#21697;-&#21830;&#21697;&#22270;&#29255;" style="stroke:#181818;stroke-width:1;"/><line style="stroke:#181818;stroke-width:1;" x1="496.59" x2="496.59" y1="539.6386" y2="547.6386"/><line style="stroke:#181818;stroke-width:1;" x1="493.59" x2="493.59" y1="539.6386" y2="547.6386"/><line style="stroke:#181818;stroke-width:1;" x1="492.59" x2="500.59" y1="543.6386" y2="543.6386"/><line style="stroke:#181818;stroke-width:1;" x1="406.68" x2="412.68" y1="698.7886" y2="706.7886"/><line style="stroke:#181818;stroke-width:1;" x1="406.68" x2="400.68" y1="698.7886" y2="706.7886"/><line style="stroke:#181818;stroke-width:1;" x1="406.68" x2="406.68" y1="698.7886" y2="706.7886"/><ellipse cx="406.68" cy="692.7886" fill="none" rx="4" ry="4" style="stroke:#181818;stroke-width:1;"/><text fill="#000000" font-family="sans-serif" font-size="13" lengthAdjust="spacing" textLength="26" x="379.68" y="575.4525">&#21253;&#21547;</text></g><!--link ?? to ??--><g class="link" data-entity-1="ent0002" data-entity-2="ent0005" data-link-type="crowfoot" data-source-line="145" id="lnk16"><path codeLine="145" d="M853.67,94.6386 C648.6,94.6386 51.46,94.6386 51.46,94.6386 C51.46,94.6386 51.46,530.4986 51.46,688.7186" fill="none" id="&#29992;&#25143;-&#25910;&#34255;" style="stroke:#181818;stroke-width:1;"/><line style="stroke:#181818;stroke-width:1;" x1="857.67" x2="857.67" y1="90.6386" y2="98.6386"/><line style="stroke:#181818;stroke-width:1;" x1="854.67" x2="854.67" y1="90.6386" y2="98.6386"/><line style="stroke:#181818;stroke-width:1;" x1="853.67" x2="861.67" y1="94.6386" y2="94.6386"/><line style="stroke:#181818;stroke-width:1;" x1="51.46" x2="57.46" y1="698.7186" y2="706.7186"/><line style="stroke:#181818;stroke-width:1;" x1="51.46" x2="45.46" y1="698.7186" y2="706.7186"/><line style="stroke:#181818;stroke-width:1;" x1="51.46" x2="51.46" y1="698.7186" y2="706.7186"/><ellipse cx="51.46" cy="692.7186" fill="none" rx="4" ry="4" style="stroke:#181818;stroke-width:1;"/><text fill="#000000" font-family="sans-serif" font-size="13" lengthAdjust="spacing" textLength="26" x="123.52" y="91.8325">&#21019;&#24314;</text></g><!--link ?? to ??--><g class="link" data-entity-1="ent0003" data-entity-2="ent0005" data-link-type="crowfoot" data-source-line="146" id="lnk17"><path codeLine="146" d="M492.65,418.6386 C354.44,418.6386 95.91,418.6386 95.91,418.6386 C95.91,418.6386 95.91,592.8586 95.91,688.9586" fill="none" id="&#21830;&#21697;-&#25910;&#34255;" style="stroke:#181818;stroke-width:1;"/><line style="stroke:#181818;stroke-width:1;" x1="496.65" x2="496.65" y1="414.6386" y2="422.6386"/><line style="stroke:#181818;stroke-width:1;" x1="493.65" x2="493.65" y1="414.6386" y2="422.6386"/><line style="stroke:#181818;stroke-width:1;" x1="492.65" x2="500.65" y1="418.6386" y2="418.6386"/><line style="stroke:#181818;stroke-width:1;" x1="95.91" x2="101.91" y1="698.9586" y2="706.9586"/><line style="stroke:#181818;stroke-width:1;" x1="95.91" x2="89.91" y1="698.9586" y2="706.9586"/><line style="stroke:#181818;stroke-width:1;" x1="95.91" x2="95.91" y1="698.9586" y2="706.9586"/><ellipse cx="95.91" cy="692.9586" fill="none" rx="4" ry="4" style="stroke:#181818;stroke-width:1;"/><text fill="#000000" font-family="sans-serif" font-size="13" lengthAdjust="spacing" textLength="39" x="114.12" y="415.8325">&#34987;&#25910;&#34255;</text></g><!--link ?? to ????--><g class="link" data-entity-1="ent0002" data-entity-2="ent0006" data-link-type="crowfoot" data-source-line="147" id="lnk18"><path codeLine="147" d="M853.64,144.6386 C676.85,144.6386 219.46,144.6386 219.46,144.6386 C219.46,144.6386 219.46,538.9886 219.46,688.7886" fill="none" id="&#29992;&#25143;-&#27983;&#35272;&#21382;&#21490;" style="stroke:#181818;stroke-width:1;"/><line style="stroke:#181818;stroke-width:1;" x1="857.64" x2="857.64" y1="140.6386" y2="148.6386"/><line style="stroke:#181818;stroke-width:1;" x1="854.64" x2="854.64" y1="140.6386" y2="148.6386"/><line style="stroke:#181818;stroke-width:1;" x1="853.64" x2="861.64" y1="144.6386" y2="144.6386"/><line style="stroke:#181818;stroke-width:1;" x1="219.46" x2="225.46" y1="698.7886" y2="706.7886"/><line style="stroke:#181818;stroke-width:1;" x1="219.46" x2="213.46" y1="698.7886" y2="706.7886"/><line style="stroke:#181818;stroke-width:1;" x1="219.46" x2="219.46" y1="698.7886" y2="706.7886"/><ellipse cx="219.46" cy="692.7886" fill="none" rx="4" ry="4" style="stroke:#181818;stroke-width:1;"/><text fill="#000000" font-family="sans-serif" font-size="13" lengthAdjust="spacing" textLength="26" x="232.47" y="141.8325">&#20135;&#29983;</text></g><!--link ?? to ????--><g class="link" data-entity-1="ent0003" data-entity-2="ent0006" data-link-type="crowfoot" data-source-line="148" id="lnk19"><path codeLine="148" d="M492.67,481.6386 C398.52,481.6386 263.91,481.6386 263.91,481.6386 C263.91,481.6386 263.91,607.6286 263.91,688.6186" fill="none" id="&#21830;&#21697;-&#27983;&#35272;&#21382;&#21490;" style="stroke:#181818;stroke-width:1;"/><line style="stroke:#181818;stroke-width:1;" x1="496.67" x2="496.67" y1="477.6386" y2="485.6386"/><line style="stroke:#181818;stroke-width:1;" x1="493.67" x2="493.67" y1="477.6386" y2="485.6386"/><line style="stroke:#181818;stroke-width:1;" x1="492.67" x2="500.67" y1="481.6386" y2="481.6386"/><line style="stroke:#181818;stroke-width:1;" x1="263.91" x2="269.91" y1="698.6186" y2="706.6186"/><line style="stroke:#181818;stroke-width:1;" x1="263.91" x2="257.91" y1="698.6186" y2="706.6186"/><line style="stroke:#181818;stroke-width:1;" x1="263.91" x2="263.91" y1="698.6186" y2="706.6186"/><ellipse cx="263.91" cy="692.6186" fill="none" rx="4" ry="4" style="stroke:#181818;stroke-width:1;"/><text fill="#000000" font-family="sans-serif" font-size="13" lengthAdjust="spacing" textLength="39" x="229.8" y="478.8325">&#34987;&#27983;&#35272;</text></g><!--link ?? to ??--><g class="link" data-entity-1="ent0003" data-entity-2="ent0007" data-link-type="crowfoot" data-source-line="149" id="lnk20"><path codeLine="149" d="M555.96,615.2886 C555.96,638.1186 555.96,635.4386 555.96,656.7686" fill="none" id="&#21830;&#21697;-&#20250;&#35805;" style="stroke:#181818;stroke-width:1;"/><line style="stroke:#181818;stroke-width:1;" x1="551.96" x2="559.96" y1="611.2886" y2="611.2886"/><line style="stroke:#181818;stroke-width:1;" x1="551.96" x2="559.96" y1="614.2886" y2="614.2886"/><line style="stroke:#181818;stroke-width:1;" x1="555.96" x2="555.96" y1="615.2886" y2="607.2886"/><line style="stroke:#181818;stroke-width:1;" x1="555.96" x2="561.96" y1="666.7686" y2="674.7686"/><line style="stroke:#181818;stroke-width:1;" x1="555.96" x2="549.96" y1="666.7686" y2="674.7686"/><line style="stroke:#181818;stroke-width:1;" x1="555.96" x2="555.96" y1="666.7686" y2="674.7686"/><ellipse cx="555.96" cy="660.7686" fill="none" rx="4" ry="4" style="stroke:#181818;stroke-width:1;"/><text fill="#000000" font-family="sans-serif" font-size="13" lengthAdjust="spacing" textLength="26" x="528.96" y="638.2225">&#20851;&#32852;</text></g><!--link ?? to ??--><g class="link" data-entity-1="ent0007" data-entity-2="ent0008" data-link-type="crowfoot" data-source-line="150" id="lnk21"><path codeLine="150" d="M496.18,829.6386 C420.84,829.6386 325.7,829.6386 325.7,829.6386 C325.7,829.6386 325.7,854.2786 325.7,895.7586" fill="none" id="&#20250;&#35805;-&#28040;&#24687;" style="stroke:#181818;stroke-width:1;"/><line style="stroke:#181818;stroke-width:1;" x1="500.18" x2="500.18" y1="825.6386" y2="833.6386"/><line style="stroke:#181818;stroke-width:1;" x1="497.18" x2="497.18" y1="825.6386" y2="833.6386"/><line style="stroke:#181818;stroke-width:1;" x1="496.18" x2="504.18" y1="829.6386" y2="829.6386"/><line style="stroke:#181818;stroke-width:1;" x1="325.7" x2="331.7" y1="905.7586" y2="913.7586"/><line style="stroke:#181818;stroke-width:1;" x1="325.7" x2="319.7" y1="905.7586" y2="913.7586"/><line style="stroke:#181818;stroke-width:1;" x1="325.7" x2="325.7" y1="905.7586" y2="913.7586"/><ellipse cx="325.7" cy="899.7586" fill="none" rx="4" ry="4" style="stroke:#181818;stroke-width:1;"/><text fill="#000000" font-family="sans-serif" font-size="13" lengthAdjust="spacing" textLength="26" x="345.88" y="826.8325">&#21253;&#21547;</text></g><!--link ?? to ??--><g class="link" data-entity-1="ent0002" data-entity-2="ent0008" data-link-type="crowfoot" data-source-line="151" id="lnk22"><path codeLine="151" d="M853.77,194.6386 C695.06,194.6386 317.03,194.6386 317.03,194.6386 C317.03,194.6386 317.03,694.9686 317.03,895.4086" fill="none" id="&#29992;&#25143;-&#28040;&#24687;" style="stroke:#181818;stroke-width:1;"/><line style="stroke:#181818;stroke-width:1;" x1="857.77" x2="857.77" y1="190.6386" y2="198.6386"/><line style="stroke:#181818;stroke-width:1;" x1="854.77" x2="854.77" y1="190.6386" y2="198.6386"/><line style="stroke:#181818;stroke-width:1;" x1="853.77" x2="861.77" y1="194.6386" y2="194.6386"/><line style="stroke:#181818;stroke-width:1;" x1="317.03" x2="323.03" y1="905.4086" y2="913.4086"/><line style="stroke:#181818;stroke-width:1;" x1="317.03" x2="311.03" y1="905.4086" y2="913.4086"/><line style="stroke:#181818;stroke-width:1;" x1="317.03" x2="317.03" y1="905.4086" y2="913.4086"/><ellipse cx="317.03" cy="899.4086" fill="none" rx="4" ry="4" style="stroke:#181818;stroke-width:1;"/><text fill="#000000" font-family="sans-serif" font-size="13" lengthAdjust="spacing" textLength="26" x="290.03" y="278.8525">&#21457;&#36865;</text></g><!--link ?? to ??--><g class="link" data-entity-1="ent0003" data-entity-2="ent0009" data-link-type="crowfoot" data-source-line="152" id="lnk23"><path codeLine="152" d="M607.41,615.2886 C607.41,650.1586 607.41,670.6386 607.41,670.6386 C607.41,670.6386 749.57,670.6386 843.72,670.6386" fill="none" id="&#21830;&#21697;-&#35746;&#21333;" style="stroke:#181818;stroke-width:1;"/><line style="stroke:#181818;stroke-width:1;" x1="603.41" x2="611.41" y1="611.2886" y2="611.2886"/><line style="stroke:#181818;stroke-width:1;" x1="603.41" x2="611.41" y1="614.2886" y2="614.2886"/><line style="stroke:#181818;stroke-width:1;" x1="607.41" x2="607.41" y1="615.2886" y2="607.2886"/><line style="stroke:#181818;stroke-width:1;" x1="853.72" x2="861.72" y1="670.6386" y2="664.6386"/><line style="stroke:#181818;stroke-width:1;" x1="853.72" x2="861.72" y1="670.6386" y2="676.6386"/><line style="stroke:#181818;stroke-width:1;" x1="853.72" x2="861.72" y1="670.6386" y2="670.6386"/><ellipse cx="847.72" cy="670.6386" fill="none" rx="4" ry="4" style="stroke:#181818;stroke-width:1;"/><text fill="#000000" font-family="sans-serif" font-size="13" lengthAdjust="spacing" textLength="26" x="675.89" y="667.8325">&#23545;&#24212;</text></g><!--link ?? to ??--><g class="link" data-entity-1="ent0002" data-entity-2="ent0009" data-link-type="crowfoot" data-source-line="153" id="lnk24"><path codeLine="153" d="M915.35,303.7586 C915.35,414.8686 915.35,548.2886 915.35,648.5286" fill="none" id="&#29992;&#25143;-&#35746;&#21333;" style="stroke:#181818;stroke-width:1;"/><line style="stroke:#181818;stroke-width:1;" x1="911.35" x2="919.35" y1="299.7586" y2="299.7586"/><line style="stroke:#181818;stroke-width:1;" x1="911.35" x2="919.35" y1="302.7586" y2="302.7586"/><line style="stroke:#181818;stroke-width:1;" x1="915.35" x2="915.35" y1="303.7586" y2="295.7586"/><line style="stroke:#181818;stroke-width:1;" x1="915.35" x2="921.35" y1="658.5286" y2="666.5286"/><line style="stroke:#181818;stroke-width:1;" x1="915.35" x2="909.35" y1="658.5286" y2="666.5286"/><line style="stroke:#181818;stroke-width:1;" x1="915.35" x2="915.35" y1="658.5286" y2="666.5286"/><ellipse cx="915.35" cy="652.5286" fill="none" rx="4" ry="4" style="stroke:#181818;stroke-width:1;"/><text fill="#000000" font-family="sans-serif" font-size="13" lengthAdjust="spacing" textLength="26" x="888.35" y="478.3325">&#36141;&#20080;</text></g><!--link ?? to ??--><g class="link" data-entity-1="ent0002" data-entity-2="ent0009" data-link-type="crowfoot" data-source-line="154" id="lnk25"><path codeLine="154" d="M942.02,303.7586 C942.02,414.8686 942.02,548.2886 942.02,648.5286" fill="none" id="&#29992;&#25143;-&#35746;&#21333;-1" style="stroke:#181818;stroke-width:1;"/><line style="stroke:#181818;stroke-width:1;" x1="938.02" x2="946.02" y1="299.7586" y2="299.7586"/><line style="stroke:#181818;stroke-width:1;" x1="938.02" x2="946.02" y1="302.7586" y2="302.7586"/><line style="stroke:#181818;stroke-width:1;" x1="942.02" x2="942.02" y1="303.7586" y2="295.7586"/><line style="stroke:#181818;stroke-width:1;" x1="942.02" x2="948.02" y1="658.5286" y2="666.5286"/><line style="stroke:#181818;stroke-width:1;" x1="942.02" x2="936.02" y1="658.5286" y2="666.5286"/><line style="stroke:#181818;stroke-width:1;" x1="942.02" x2="942.02" y1="658.5286" y2="666.5286"/><ellipse cx="942.02" cy="652.5286" fill="none" rx="4" ry="4" style="stroke:#181818;stroke-width:1;"/><text fill="#000000" font-family="sans-serif" font-size="13" lengthAdjust="spacing" textLength="26" x="915.02" y="494.3325">&#20986;&#21806;</text></g><!--link ?? to ??--><g class="link" data-entity-1="ent0009" data-entity-2="ent0010" data-link-type="crowfoot" data-source-line="155" id="lnk26"><path codeLine="155" d="M928.56,862.0986 C928.56,926.2086 928.56,991.6386 928.56,991.6386 C928.56,991.6386 943.25,991.6386 976.71,991.6386" fill="none" id="&#35746;&#21333;-&#35780;&#20215;" style="stroke:#181818;stroke-width:1;"/><line style="stroke:#181818;stroke-width:1;" x1="924.56" x2="932.56" y1="858.0986" y2="858.0986"/><line style="stroke:#181818;stroke-width:1;" x1="924.56" x2="932.56" y1="861.0986" y2="861.0986"/><line style="stroke:#181818;stroke-width:1;" x1="928.56" x2="928.56" y1="862.0986" y2="854.0986"/><line style="stroke:#181818;stroke-width:1;" x1="986.71" x2="994.71" y1="991.6386" y2="985.6386"/><line style="stroke:#181818;stroke-width:1;" x1="986.71" x2="994.71" y1="991.6386" y2="997.6386"/><line style="stroke:#181818;stroke-width:1;" x1="986.71" x2="994.71" y1="991.6386" y2="991.6386"/><ellipse cx="980.71" cy="991.6386" fill="none" rx="4" ry="4" style="stroke:#181818;stroke-width:1;"/><text fill="#000000" font-family="sans-serif" font-size="13" lengthAdjust="spacing" textLength="26" x="901.56" y="953.1325">&#20135;&#29983;</text></g><!--link ?? to ??--><g class="link" data-entity-1="ent0002" data-entity-2="ent0010" data-link-type="crowfoot" data-source-line="156" id="lnk27"><path codeLine="156" d="M1003.73,106.6386 C1028.31,106.6386 1042.24,106.6386 1042.24,106.6386 C1042.24,106.6386 1042.24,679.6586 1042.24,895.5186" fill="none" id="&#29992;&#25143;-&#35780;&#20215;" style="stroke:#181818;stroke-width:1;"/><line style="stroke:#181818;stroke-width:1;" x1="999.73" x2="999.73" y1="110.6386" y2="102.6386"/><line style="stroke:#181818;stroke-width:1;" x1="1002.73" x2="1002.73" y1="110.6386" y2="102.6386"/><line style="stroke:#181818;stroke-width:1;" x1="1003.73" x2="995.73" y1="106.6386" y2="106.6386"/><line style="stroke:#181818;stroke-width:1;" x1="1042.24" x2="1048.24" y1="905.5186" y2="913.5186"/><line style="stroke:#181818;stroke-width:1;" x1="1042.24" x2="1036.24" y1="905.5186" y2="913.5186"/><line style="stroke:#181818;stroke-width:1;" x1="1042.24" x2="1042.24" y1="905.5186" y2="913.5186"/><ellipse cx="1042.24" cy="899.5186" fill="none" rx="4" ry="4" style="stroke:#181818;stroke-width:1;"/><text fill="#000000" font-family="sans-serif" font-size="13" lengthAdjust="spacing" textLength="26" x="1015.24" y="484.0125">&#32534;&#20889;</text></g><!--link ?? to ??--><g class="link" data-entity-1="ent0002" data-entity-2="ent0010" data-link-type="crowfoot" data-source-line="157" id="lnk28"><path codeLine="157" d="M1003.79,169.6386 C1047.76,169.6386 1089.12,169.6386 1089.12,169.6386 C1089.12,169.6386 1089.12,690.7686 1089.12,895.5786" fill="none" id="&#29992;&#25143;-&#35780;&#20215;-1" style="stroke:#181818;stroke-width:1;"/><line style="stroke:#181818;stroke-width:1;" x1="999.79" x2="999.79" y1="173.6386" y2="165.6386"/><line style="stroke:#181818;stroke-width:1;" x1="1002.79" x2="1002.79" y1="173.6386" y2="165.6386"/><line style="stroke:#181818;stroke-width:1;" x1="1003.79" x2="995.79" y1="169.6386" y2="169.6386"/><line style="stroke:#181818;stroke-width:1;" x1="1089.12" x2="1095.12" y1="905.5786" y2="913.5786"/><line style="stroke:#181818;stroke-width:1;" x1="1089.12" x2="1083.12" y1="905.5786" y2="913.5786"/><line style="stroke:#181818;stroke-width:1;" x1="1089.12" x2="1089.12" y1="905.5786" y2="913.5786"/><ellipse cx="1089.12" cy="899.5786" fill="none" rx="4" ry="4" style="stroke:#181818;stroke-width:1;"/><text fill="#000000" font-family="sans-serif" font-size="13" lengthAdjust="spacing" textLength="26" x="1062.12" y="492.1425">&#25509;&#25910;</text></g><!--link ?? to ??--><g class="link" data-entity-1="ent0002" data-entity-2="ent0011" data-link-type="crowfoot" data-source-line="158" id="lnk29"><path codeLine="158" d="M853.77,245.6386 C815.45,245.6386 782.91,245.6386 782.91,245.6386 C782.91,245.6386 782.91,532.0586 782.91,672.6686" fill="none" id="&#29992;&#25143;-&#20030;&#25253;" style="stroke:#181818;stroke-width:1;"/><line style="stroke:#181818;stroke-width:1;" x1="857.77" x2="857.77" y1="241.6386" y2="249.6386"/><line style="stroke:#181818;stroke-width:1;" x1="854.77" x2="854.77" y1="241.6386" y2="249.6386"/><line style="stroke:#181818;stroke-width:1;" x1="853.77" x2="861.77" y1="245.6386" y2="245.6386"/><line style="stroke:#181818;stroke-width:1;" x1="782.91" x2="788.91" y1="682.6686" y2="690.6686"/><line style="stroke:#181818;stroke-width:1;" x1="782.91" x2="776.91" y1="682.6686" y2="690.6686"/><line style="stroke:#181818;stroke-width:1;" x1="782.91" x2="782.91" y1="682.6686" y2="690.6686"/><ellipse cx="782.91" cy="676.6686" fill="none" rx="4" ry="4" style="stroke:#181818;stroke-width:1;"/><text fill="#000000" font-family="sans-serif" font-size="13" lengthAdjust="spacing" textLength="26" x="755.91" y="425.9225">&#25552;&#20132;</text></g><!--link ?? to ??--><g class="link" data-entity-1="ent0003" data-entity-2="ent0011" data-link-type="crowfoot" data-source-line="159" id="lnk30"><path codeLine="159" d="M670.82,582.6386 C709.08,582.6386 738.46,582.6386 738.46,582.6386 C738.46,582.6386 738.46,622.8386 738.46,672.6286" fill="none" id="&#21830;&#21697;-&#20030;&#25253;" style="stroke:#181818;stroke-width:1;"/><line style="stroke:#181818;stroke-width:1;" x1="666.82" x2="666.82" y1="586.6386" y2="578.6386"/><line style="stroke:#181818;stroke-width:1;" x1="669.82" x2="669.82" y1="586.6386" y2="578.6386"/><line style="stroke:#181818;stroke-width:1;" x1="670.82" x2="662.82" y1="582.6386" y2="582.6386"/><line style="stroke:#181818;stroke-width:1;" x1="738.46" x2="744.46" y1="682.6286" y2="690.6286"/><line style="stroke:#181818;stroke-width:1;" x1="738.46" x2="732.46" y1="682.6286" y2="690.6286"/><line style="stroke:#181818;stroke-width:1;" x1="738.46" x2="738.46" y1="682.6286" y2="690.6286"/><ellipse cx="738.46" cy="676.6286" fill="none" rx="4" ry="4" style="stroke:#181818;stroke-width:1;"/><text fill="#000000" font-family="sans-serif" font-size="13" lengthAdjust="spacing" textLength="39" x="698.46" y="596.0125">&#34987;&#20030;&#25253;</text></g><!--link ?? to ??--><g class="link" data-entity-1="ent0002" data-entity-2="ent0012" data-link-type="crowfoot" data-source-line="160" id="lnk31"><path codeLine="160" d="M968.69,303.7286 C968.69,390.2786 968.69,481.6386 968.69,481.6386 C968.69,481.6386 1048.49,481.6386 1117.63,481.6386" fill="none" id="&#29992;&#25143;-&#36890;&#30693;" style="stroke:#181818;stroke-width:1;"/><line style="stroke:#181818;stroke-width:1;" x1="964.69" x2="972.69" y1="299.7286" y2="299.7286"/><line style="stroke:#181818;stroke-width:1;" x1="964.69" x2="972.69" y1="302.7286" y2="302.7286"/><line style="stroke:#181818;stroke-width:1;" x1="968.69" x2="968.69" y1="303.7286" y2="295.7286"/><line style="stroke:#181818;stroke-width:1;" x1="1127.63" x2="1135.63" y1="481.6386" y2="475.6386"/><line style="stroke:#181818;stroke-width:1;" x1="1127.63" x2="1135.63" y1="481.6386" y2="487.6386"/><line style="stroke:#181818;stroke-width:1;" x1="1127.63" x2="1135.63" y1="481.6386" y2="481.6386"/><ellipse cx="1121.63" cy="481.6386" fill="none" rx="4" ry="4" style="stroke:#181818;stroke-width:1;"/><text fill="#000000" font-family="sans-serif" font-size="13" lengthAdjust="spacing" textLength="26" x="941.69" y="469.3525">&#25509;&#25910;</text></g><!--link ?? to ??--><g class="link" data-entity-1="ent0002" data-entity-2="ent0013" data-link-type="crowfoot" data-source-line="161" id="lnk32"><path codeLine="161" d="M1003.81,232.6386 C1127.46,232.6386 1370.68,232.6386 1370.68,232.6386 C1370.68,232.6386 1370.68,320.0886 1370.68,393.6086" fill="none" id="&#29992;&#25143;-&#21453;&#39304;" style="stroke:#181818;stroke-width:1;"/><line style="stroke:#181818;stroke-width:1;" x1="999.81" x2="999.81" y1="236.6386" y2="228.6386"/><line style="stroke:#181818;stroke-width:1;" x1="1002.81" x2="1002.81" y1="236.6386" y2="228.6386"/><line style="stroke:#181818;stroke-width:1;" x1="1003.81" x2="995.81" y1="232.6386" y2="232.6386"/><line style="stroke:#181818;stroke-width:1;" x1="1370.68" x2="1376.68" y1="403.6086" y2="411.6086"/><line style="stroke:#181818;stroke-width:1;" x1="1370.68" x2="1364.68" y1="403.6086" y2="411.6086"/><line style="stroke:#181818;stroke-width:1;" x1="1370.68" x2="1370.68" y1="403.6086" y2="411.6086"/><ellipse cx="1370.68" cy="397.6086" fill="none" rx="4" ry="4" style="stroke:#181818;stroke-width:1;"/><text fill="#000000" font-family="sans-serif" font-size="13" lengthAdjust="spacing" textLength="26" x="1245.73" y="229.8325">&#25552;&#20132;</text></g><?plantuml-src hLRRKjfG57tFL-IvC_m0xttljFs155F9b8k3wSNHpeHHGb0XLF3IWeeEWjMHK4N0uEZFP9-4l-W99mHo8Ihj2vEprxwki_S-HBa5bevmgKYCfPO_SOab9iN4wHYNOFcL9PPEflXeSWfOZZ8BoQzSOf7-oCIMMOhYEJx6qk_VlAFHRXlbMw2MwDTlQQWyK1IRmEWAhPVFaTIZLocQVgNVxu7SeyFq1swHI_1O50hX7vJRGbML85-OL2JAfB0KhXeUaIBgjJIK9EXlEm1qSAitsqxTUWVMPQYsuL1m0DhZ2Su9915BIH96SyV8NUCZc_WSnsTziuk4zEIizIyqLTLRWZROSeRD2L0znp6SqdBNw3Hz8eDKWO6Azhl3_Gu65XYUvRauItstoO9T4KhfGB88druGrRB3qmDd8h9iF9gvyUmtKqKRz53jtepCHhWu4nkb9Ef_1auhgHZ8neoYRsMZAGspiisgISE-ZFjY8gaAQA-DIWrDRNbPU3u_kBtqN3QG9QBe1OcfpzsWmWweCj4sLISnIHrptSdCB9uibD091H7aw_yQcZWE2gtT_pAKmy2WsbqRMbsVeFazV_ciPAe250jQNq279wWheRJYdDHH65IzC9J1T1-HC5uvgdJC_WgYbGG9h6rKlayDye-Xa3Q4Z0yaPg1rDvapF55mj3KrCGSA51lGkyRvcdR9P8nb4i_g0wDr2ldTkLhzfPVaintSem_rBBevTzoHdlkDRjCuHy-kVhesPGF73AoDbEy5YQdlPHYdbq6eiZ6z-UsRUqdUMly1RPu5Dz58nRzPPks4mZ5KQavktVG_cTfG-AKVdysrCEocdTg9tYV5Xx1_w6wGyyE6DDz-SyqSL8wWdf-QmUTpP_r3MLiBXPAhuoSuR0uyzDSfw-n0hGS8wsnde7Zfyc0z664hfik3ZU969Tzky-dL7wOrjQcNZzrEd3gcgv74fMQjSfn9viP8bodhF7OothZ-LTZeQF6vF5jx2QFA7QXbbwsD6fqhl8PceP1LeToYhFCO9Ll1BjnbEqRDZX1_pa9HuGnpwqAjkSMeNDJKkfkhCOh99DykSsksPZYtMjbs_XS0?></g></svg>