<?plantuml 1.2026.1?><svg xmlns="http://www.w3.org/2000/svg" xmlns:xlink="http://www.w3.org/1999/xlink" contentStyleType="text/css" data-diagram-type="CLASS" height="537px" preserveAspectRatio="none" style="width:2461px;height:537px;background:#FFFFFF;" version="1.1" viewBox="0 0 2461 537" width="2461px" zoomAndPan="magnify"><title>TPS &#26680;&#24515;&#31867;&#22270;</title><defs/><g><g class="title" data-source-line="4"><text fill="#000000" font-family="sans-serif" font-size="14" font-weight="bold" lengthAdjust="spacing" textLength="87.1169" x="1180.0465" y="23.1318">TPS &#26680;&#24515;&#31867;&#22270;</text></g><!--cluster ????--><g class="cluster" data-qualified-name="...." data-source-line="6" id="ent0002"><path d="M1681.5,43.0986 L1738.4998,43.0986 A3.75,3.75 0 0 1 1740.9998,45.5986 L1747.9998,65.1973 L2358.5,65.1973 A2.5,2.5 0 0 1 2361,67.6973 L2361,139.5986 A2.5,2.5 0 0 1 2358.5,142.0986 L1681.5,142.0986 A2.5,2.5 0 0 1 1679,139.5986 L1679,45.5986 A2.5,2.5 0 0 1 1681.5,43.0986" fill="none" style="stroke:#000000;stroke-width:1.5;"/><line style="stroke:#000000;stroke-width:1.5;" x1="1679" x2="1747.9998" y1="65.1973" y2="65.1973"/><text fill="#000000" font-family="sans-serif" font-size="14" font-weight="bold" lengthAdjust="spacing" textLength="55.9998" x="1683" y="58.2305">&#25511;&#21046;&#22120;&#23618;</text></g><!--cluster ???--><g class="cluster" data-qualified-name="..." data-source-line="14" id="ent0008"><path d="M1688.5,190.0986 L1731.4998,190.0986 A3.75,3.75 0 0 1 1733.9998,192.5986 L1740.9998,212.1973 L2418.5,212.1973 A2.5,2.5 0 0 1 2421,214.6973 L2421,416.5986 A2.5,2.5 0 0 1 2418.5,419.0986 L1688.5,419.0986 A2.5,2.5 0 0 1 1686,416.5986 L1686,192.5986 A2.5,2.5 0 0 1 1688.5,190.0986" fill="none" style="stroke:#000000;stroke-width:1.5;"/><line style="stroke:#000000;stroke-width:1.5;" x1="1686" x2="1740.9998" y1="212.1973" y2="212.1973"/><text fill="#000000" font-family="sans-serif" font-size="14" font-weight="bold" lengthAdjust="spacing" textLength="41.9998" x="1690" y="205.2305">&#19994;&#21153;&#23618;</text></g><!--cluster ???--><g class="cluster" data-qualified-name="..." data-source-line="24" id="ent0016"><path d="M8.5,43.0986 L51.4998,43.0986 A3.75,3.75 0 0 1 53.9998,45.5986 L60.9998,65.1973 L408.5,65.1973 A2.5,2.5 0 0 1 411,67.6973 L411,527.5986 A2.5,2.5 0 0 1 408.5,530.0986 L8.5,530.0986 A2.5,2.5 0 0 1 6,527.5986 L6,45.5986 A2.5,2.5 0 0 1 8.5,43.0986" fill="none" style="stroke:#000000;stroke-width:1.5;"/><line style="stroke:#000000;stroke-width:1.5;" x1="6" x2="60.9998" y1="65.1973" y2="65.1973"/><text fill="#000000" font-family="sans-serif" font-size="14" font-weight="bold" lengthAdjust="spacing" textLength="41.9998" x="10" y="58.2305">&#23454;&#20307;&#23618;</text></g><!--cluster ?????--><g class="cluster" data-qualified-name="....." data-source-line="39" id="ent0029"><path d="M437.5,320.0986 L508.4997,320.0986 A3.75,3.75 0 0 1 510.9997,322.5986 L517.9997,342.1973 L1659.5,342.1973 A2.5,2.5 0 0 1 1662,344.6973 L1662,416.5986 A2.5,2.5 0 0 1 1659.5,419.0986 L437.5,419.0986 A2.5,2.5 0 0 1 435,416.5986 L435,322.5986 A2.5,2.5 0 0 1 437.5,320.0986" fill="none" style="stroke:#000000;stroke-width:1.5;"/><line style="stroke:#000000;stroke-width:1.5;" x1="435" x2="517.9997" y1="342.1973" y2="342.1973"/><text fill="#000000" font-family="sans-serif" font-size="14" font-weight="bold" lengthAdjust="spacing" textLength="69.9997" x="439" y="335.2305">&#25968;&#25454;&#35775;&#38382;&#23618;</text></g><!--class ?????--><g class="entity" data-qualified-name=".........." data-source-line="7" id="ent0003"><rect fill="#F1F1F1" height="48" rx="2.5" ry="2.5" style="stroke:#181818;stroke-width:0.5;" width="101.9997" x="1695" y="78.0986"/><ellipse cx="1710" cy="94.0986" fill="#ADD1B2" rx="11" ry="11" style="stroke:#181818;stroke-width:1;"/><path d="M1710.2344,100.7705 Q1709.0313,100.7705 1708.1406,100.3174 Q1707.2656,99.8643 1706.7813,99.0518 Q1706.2969,98.2236 1706.2969,97.0986 L1706.2969,91.6924 Q1706.2969,90.5674 1706.7813,89.7549 Q1707.2656,88.9268 1708.1406,88.4736 Q1709.0313,88.0205 1710.2344,88.0205 Q1711.4219,88.0205 1712.2969,88.4736 Q1713.1875,88.9268 1713.6875,89.7549 Q1714.1875,90.5674 1714.1875,91.6924 L1712.0313,91.6924 Q1712.0313,90.8174 1711.5625,90.3643 Q1711.1094,89.8955 1710.2344,89.8955 Q1709.375,89.8955 1708.8906,90.3643 Q1708.4219,90.8174 1708.4219,91.6924 L1708.4219,97.0986 Q1708.4219,97.958 1708.8906,98.4268 Q1709.375,98.8955 1710.2344,98.8955 Q1711.1094,98.8955 1711.5625,98.4268 Q1712.0313,97.958 1712.0313,97.0986 L1714.1875,97.0986 Q1714.1875,98.2236 1713.6875,99.0518 Q1713.1875,99.8643 1712.2969,100.3174 Q1711.4219,100.7705 1710.2344,100.7705 Z " fill="#000000"/><text fill="#000000" font-family="sans-serif" font-size="14" lengthAdjust="spacing" textLength="69.9997" x="1724" y="99.1812">&#35748;&#35777;&#25511;&#21046;&#22120;</text><line style="stroke:#181818;stroke-width:0.5;" x1="1696" x2="1795.9997" y1="110.0986" y2="110.0986"/><line style="stroke:#181818;stroke-width:0.5;" x1="1696" x2="1795.9997" y1="118.0986" y2="118.0986"/></g><!--class ?????--><g class="entity" data-qualified-name=".........." data-source-line="8" id="ent0004"><rect fill="#F1F1F1" height="48" rx="2.5" ry="2.5" style="stroke:#181818;stroke-width:0.5;" width="101.9997" x="2243" y="78.0986"/><ellipse cx="2258" cy="94.0986" fill="#ADD1B2" rx="11" ry="11" style="stroke:#181818;stroke-width:1;"/><path d="M2258.2344,100.7705 Q2257.0313,100.7705 2256.1406,100.3174 Q2255.2656,99.8643 2254.7813,99.0518 Q2254.2969,98.2236 2254.2969,97.0986 L2254.2969,91.6924 Q2254.2969,90.5674 2254.7813,89.7549 Q2255.2656,88.9268 2256.1406,88.4736 Q2257.0313,88.0205 2258.2344,88.0205 Q2259.4219,88.0205 2260.2969,88.4736 Q2261.1875,88.9268 2261.6875,89.7549 Q2262.1875,90.5674 2262.1875,91.6924 L2260.0313,91.6924 Q2260.0313,90.8174 2259.5625,90.3643 Q2259.1094,89.8955 2258.2344,89.8955 Q2257.375,89.8955 2256.8906,90.3643 Q2256.4219,90.8174 2256.4219,91.6924 L2256.4219,97.0986 Q2256.4219,97.958 2256.8906,98.4268 Q2257.375,98.8955 2258.2344,98.8955 Q2259.1094,98.8955 2259.5625,98.4268 Q2260.0313,97.958 2260.0313,97.0986 L2262.1875,97.0986 Q2262.1875,98.2236 2261.6875,99.0518 Q2261.1875,99.8643 2260.2969,100.3174 Q2259.4219,100.7705 2258.2344,100.7705 Z " fill="#000000"/><text fill="#000000" font-family="sans-serif" font-size="14" lengthAdjust="spacing" textLength="69.9997" x="2272" y="99.1812">&#21830;&#21697;&#25511;&#21046;&#22120;</text><line style="stroke:#181818;stroke-width:0.5;" x1="2244" x2="2343.9997" y1="110.0986" y2="110.0986"/><line style="stroke:#181818;stroke-width:0.5;" x1="2244" x2="2343.9997" y1="118.0986" y2="118.0986"/></g><!--class ?????--><g class="entity" data-qualified-name=".........." data-source-line="9" id="ent0005"><rect fill="#F1F1F1" height="48" rx="2.5" ry="2.5" style="stroke:#181818;stroke-width:0.5;" width="101.9997" x="1832" y="78.0986"/><ellipse cx="1847" cy="94.0986" fill="#ADD1B2" rx="11" ry="11" style="stroke:#181818;stroke-width:1;"/><path d="M1847.2344,100.7705 Q1846.0313,100.7705 1845.1406,100.3174 Q1844.2656,99.8643 1843.7813,99.0518 Q1843.2969,98.2236 1843.2969,97.0986 L1843.2969,91.6924 Q1843.2969,90.5674 1843.7813,89.7549 Q1844.2656,88.9268 1845.1406,88.4736 Q1846.0313,88.0205 1847.2344,88.0205 Q1848.4219,88.0205 1849.2969,88.4736 Q1850.1875,88.9268 1850.6875,89.7549 Q1851.1875,90.5674 1851.1875,91.6924 L1849.0313,91.6924 Q1849.0313,90.8174 1848.5625,90.3643 Q1848.1094,89.8955 1847.2344,89.8955 Q1846.375,89.8955 1845.8906,90.3643 Q1845.4219,90.8174 1845.4219,91.6924 L1845.4219,97.0986 Q1845.4219,97.958 1845.8906,98.4268 Q1846.375,98.8955 1847.2344,98.8955 Q1848.1094,98.8955 1848.5625,98.4268 Q1849.0313,97.958 1849.0313,97.0986 L1851.1875,97.0986 Q1851.1875,98.2236 1850.6875,99.0518 Q1850.1875,99.8643 1849.2969,100.3174 Q1848.4219,100.7705 1847.2344,100.7705 Z " fill="#000000"/><text fill="#000000" font-family="sans-serif" font-size="14" lengthAdjust="spacing" textLength="69.9997" x="1861" y="99.1812">&#35746;&#21333;&#25511;&#21046;&#22120;</text><line style="stroke:#181818;stroke-width:0.5;" x1="1833" x2="1932.9997" y1="110.0986" y2="110.0986"/><line style="stroke:#181818;stroke-width:0.5;" x1="1833" x2="1932.9997" y1="118.0986" y2="118.0986"/></g><!--class ?????--><g class="entity" data-qualified-name=".........." data-source-line="10" id="ent0006"><rect fill="#F1F1F1" height="48" rx="2.5" ry="2.5" style="stroke:#181818;stroke-width:0.5;" width="101.9997" x="1969" y="78.0986"/><ellipse cx="1984" cy="94.0986" fill="#ADD1B2" rx="11" ry="11" style="stroke:#181818;stroke-width:1;"/><path d="M1984.2344,100.7705 Q1983.0313,100.7705 1982.1406,100.3174 Q1981.2656,99.8643 1980.7813,99.0518 Q1980.2969,98.2236 1980.2969,97.0986 L1980.2969,91.6924 Q1980.2969,90.5674 1980.7813,89.7549 Q1981.2656,88.9268 1982.1406,88.4736 Q1983.0313,88.0205 1984.2344,88.0205 Q1985.4219,88.0205 1986.2969,88.4736 Q1987.1875,88.9268 1987.6875,89.7549 Q1988.1875,90.5674 1988.1875,91.6924 L1986.0313,91.6924 Q1986.0313,90.8174 1985.5625,90.3643 Q1985.1094,89.8955 1984.2344,89.8955 Q1983.375,89.8955 1982.8906,90.3643 Q1982.4219,90.8174 1982.4219,91.6924 L1982.4219,97.0986 Q1982.4219,97.958 1982.8906,98.4268 Q1983.375,98.8955 1984.2344,98.8955 Q1985.1094,98.8955 1985.5625,98.4268 Q1986.0313,97.958 1986.0313,97.0986 L1988.1875,97.0986 Q1988.1875,98.2236 1987.6875,99.0518 Q1987.1875,99.8643 1986.2969,100.3174 Q1985.4219,100.7705 1984.2344,100.7705 Z " fill="#000000"/><text fill="#000000" font-family="sans-serif" font-size="14" lengthAdjust="spacing" textLength="69.9997" x="1998" y="99.1812">&#28040;&#24687;&#25511;&#21046;&#22120;</text><line style="stroke:#181818;stroke-width:0.5;" x1="1970" x2="2069.9997" y1="110.0986" y2="110.0986"/><line style="stroke:#181818;stroke-width:0.5;" x1="1970" x2="2069.9997" y1="118.0986" y2="118.0986"/></g><!--class ?????--><g class="entity" data-qualified-name=".........." data-source-line="11" id="ent0007"><rect fill="#F1F1F1" height="48" rx="2.5" ry="2.5" style="stroke:#181818;stroke-width:0.5;" width="101.9997" x="2106" y="78.0986"/><ellipse cx="2121" cy="94.0986" fill="#ADD1B2" rx="11" ry="11" style="stroke:#181818;stroke-width:1;"/><path d="M2121.2344,100.7705 Q2120.0313,100.7705 2119.1406,100.3174 Q2118.2656,99.8643 2117.7813,99.0518 Q2117.2969,98.2236 2117.2969,97.0986 L2117.2969,91.6924 Q2117.2969,90.5674 2117.7813,89.7549 Q2118.2656,88.9268 2119.1406,88.4736 Q2120.0313,88.0205 2121.2344,88.0205 Q2122.4219,88.0205 2123.2969,88.4736 Q2124.1875,88.9268 2124.6875,89.7549 Q2125.1875,90.5674 2125.1875,91.6924 L2123.0313,91.6924 Q2123.0313,90.8174 2122.5625,90.3643 Q2122.1094,89.8955 2121.2344,89.8955 Q2120.375,89.8955 2119.8906,90.3643 Q2119.4219,90.8174 2119.4219,91.6924 L2119.4219,97.0986 Q2119.4219,97.958 2119.8906,98.4268 Q2120.375,98.8955 2121.2344,98.8955 Q2122.1094,98.8955 2122.5625,98.4268 Q2123.0313,97.958 2123.0313,97.0986 L2125.1875,97.0986 Q2125.1875,98.2236 2124.6875,99.0518 Q2124.1875,99.8643 2123.2969,100.3174 Q2122.4219,100.7705 2121.2344,100.7705 Z " fill="#000000"/><text fill="#000000" font-family="sans-serif" font-size="14" lengthAdjust="spacing" textLength="69.9997" x="2135" y="99.1812">&#31649;&#29702;&#25511;&#21046;&#22120;</text><line style="stroke:#181818;stroke-width:0.5;" x1="2107" x2="2206.9997" y1="110.0986" y2="110.0986"/><line style="stroke:#181818;stroke-width:0.5;" x1="2107" x2="2206.9997" y1="118.0986" y2="118.0986"/></g><!--class ????--><g class="entity" data-qualified-name="........" data-source-line="15" id="ent0009"><rect fill="#F1F1F1" height="48" rx="2.5" ry="2.5" style="stroke:#181818;stroke-width:0.5;" width="87.9998" x="1702" y="225.0986"/><ellipse cx="1717" cy="241.0986" fill="#ADD1B2" rx="11" ry="11" style="stroke:#181818;stroke-width:1;"/><path d="M1717.2344,247.7705 Q1716.0313,247.7705 1715.1406,247.3174 Q1714.2656,246.8643 1713.7813,246.0518 Q1713.2969,245.2236 1713.2969,244.0986 L1713.2969,238.6924 Q1713.2969,237.5674 1713.7813,236.7549 Q1714.2656,235.9268 1715.1406,235.4736 Q1716.0313,235.0205 1717.2344,235.0205 Q1718.4219,235.0205 1719.2969,235.4736 Q1720.1875,235.9268 1720.6875,236.7549 Q1721.1875,237.5674 1721.1875,238.6924 L1719.0313,238.6924 Q1719.0313,237.8174 1718.5625,237.3643 Q1718.1094,236.8955 1717.2344,236.8955 Q1716.375,236.8955 1715.8906,237.3643 Q1715.4219,237.8174 1715.4219,238.6924 L1715.4219,244.0986 Q1715.4219,244.958 1715.8906,245.4268 Q1716.375,245.8955 1717.2344,245.8955 Q1718.1094,245.8955 1718.5625,245.4268 Q1719.0313,244.958 1719.0313,244.0986 L1721.1875,244.0986 Q1721.1875,245.2236 1720.6875,246.0518 Q1720.1875,246.8643 1719.2969,247.3174 Q1718.4219,247.7705 1717.2344,247.7705 Z " fill="#000000"/><text fill="#000000" font-family="sans-serif" font-size="14" lengthAdjust="spacing" textLength="55.9998" x="1731" y="246.1812">&#35748;&#35777;&#26381;&#21153;</text><line style="stroke:#181818;stroke-width:0.5;" x1="1703" x2="1788.9998" y1="257.0986" y2="257.0986"/><line style="stroke:#181818;stroke-width:0.5;" x1="1703" x2="1788.9998" y1="265.0986" y2="265.0986"/></g><!--class ????--><g class="entity" data-qualified-name="........" data-source-line="16" id="ent0010"><rect fill="#F1F1F1" height="48" rx="2.5" ry="2.5" style="stroke:#181818;stroke-width:0.5;" width="87.9998" x="2317" y="225.0986"/><ellipse cx="2332" cy="241.0986" fill="#ADD1B2" rx="11" ry="11" style="stroke:#181818;stroke-width:1;"/><path d="M2332.2344,247.7705 Q2331.0313,247.7705 2330.1406,247.3174 Q2329.2656,246.8643 2328.7813,246.0518 Q2328.2969,245.2236 2328.2969,244.0986 L2328.2969,238.6924 Q2328.2969,237.5674 2328.7813,236.7549 Q2329.2656,235.9268 2330.1406,235.4736 Q2331.0313,235.0205 2332.2344,235.0205 Q2333.4219,235.0205 2334.2969,235.4736 Q2335.1875,235.9268 2335.6875,236.7549 Q2336.1875,237.5674 2336.1875,238.6924 L2334.0313,238.6924 Q2334.0313,237.8174 2333.5625,237.3643 Q2333.1094,236.8955 2332.2344,236.8955 Q2331.375,236.8955 2330.8906,237.3643 Q2330.4219,237.8174 2330.4219,238.6924 L2330.4219,244.0986 Q2330.4219,244.958 2330.8906,245.4268 Q2331.375,245.8955 2332.2344,245.8955 Q2333.1094,245.8955 2333.5625,245.4268 Q2334.0313,244.958 2334.0313,244.0986 L2336.1875,244.0986 Q2336.1875,245.2236 2335.6875,246.0518 Q2335.1875,246.8643 2334.2969,247.3174 Q2333.4219,247.7705 2332.2344,247.7705 Z " fill="#000000"/><text fill="#000000" font-family="sans-serif" font-size="14" lengthAdjust="spacing" textLength="55.9998" x="2346" y="246.1812">&#21830;&#21697;&#26381;&#21153;</text><line style="stroke:#181818;stroke-width:0.5;" x1="2318" x2="2403.9998" y1="257.0986" y2="257.0986"/><line style="stroke:#181818;stroke-width:0.5;" x1="2318" x2="2403.9998" y1="265.0986" y2="265.0986"/></g><!--class ????--><g class="entity" data-qualified-name="........" data-source-line="17" id="ent0011"><rect fill="#F1F1F1" height="48" rx="2.5" ry="2.5" style="stroke:#181818;stroke-width:0.5;" width="87.9998" x="1825" y="225.0986"/><ellipse cx="1840" cy="241.0986" fill="#ADD1B2" rx="11" ry="11" style="stroke:#181818;stroke-width:1;"/><path d="M1840.2344,247.7705 Q1839.0313,247.7705 1838.1406,247.3174 Q1837.2656,246.8643 1836.7813,246.0518 Q1836.2969,245.2236 1836.2969,244.0986 L1836.2969,238.6924 Q1836.2969,237.5674 1836.7813,236.7549 Q1837.2656,235.9268 1838.1406,235.4736 Q1839.0313,235.0205 1840.2344,235.0205 Q1841.4219,235.0205 1842.2969,235.4736 Q1843.1875,235.9268 1843.6875,236.7549 Q1844.1875,237.5674 1844.1875,238.6924 L1842.0313,238.6924 Q1842.0313,237.8174 1841.5625,237.3643 Q1841.1094,236.8955 1840.2344,236.8955 Q1839.375,236.8955 1838.8906,237.3643 Q1838.4219,237.8174 1838.4219,238.6924 L1838.4219,244.0986 Q1838.4219,244.958 1838.8906,245.4268 Q1839.375,245.8955 1840.2344,245.8955 Q1841.1094,245.8955 1841.5625,245.4268 Q1842.0313,244.958 1842.0313,244.0986 L1844.1875,244.0986 Q1844.1875,245.2236 1843.6875,246.0518 Q1843.1875,246.8643 1842.2969,247.3174 Q1841.4219,247.7705 1840.2344,247.7705 Z " fill="#000000"/><text fill="#000000" font-family="sans-serif" font-size="14" lengthAdjust="spacing" textLength="55.9998" x="1854" y="246.1812">&#35746;&#21333;&#26381;&#21153;</text><line style="stroke:#181818;stroke-width:0.5;" x1="1826" x2="1911.9998" y1="257.0986" y2="257.0986"/><line style="stroke:#181818;stroke-width:0.5;" x1="1826" x2="1911.9998" y1="265.0986" y2="265.0986"/></g><!--class ????--><g class="entity" data-qualified-name="........" data-source-line="18" id="ent0012"><rect fill="#F1F1F1" height="48" rx="2.5" ry="2.5" style="stroke:#181818;stroke-width:0.5;" width="87.9998" x="1948" y="225.0986"/><ellipse cx="1963" cy="241.0986" fill="#ADD1B2" rx="11" ry="11" style="stroke:#181818;stroke-width:1;"/><path d="M1963.2344,247.7705 Q1962.0313,247.7705 1961.1406,247.3174 Q1960.2656,246.8643 1959.7813,246.0518 Q1959.2969,245.2236 1959.2969,244.0986 L1959.2969,238.6924 Q1959.2969,237.5674 1959.7813,236.7549 Q1960.2656,235.9268 1961.1406,235.4736 Q1962.0313,235.0205 1963.2344,235.0205 Q1964.4219,235.0205 1965.2969,235.4736 Q1966.1875,235.9268 1966.6875,236.7549 Q1967.1875,237.5674 1967.1875,238.6924 L1965.0313,238.6924 Q1965.0313,237.8174 1964.5625,237.3643 Q1964.1094,236.8955 1963.2344,236.8955 Q1962.375,236.8955 1961.8906,237.3643 Q1961.4219,237.8174 1961.4219,238.6924 L1961.4219,244.0986 Q1961.4219,244.958 1961.8906,245.4268 Q1962.375,245.8955 1963.2344,245.8955 Q1964.1094,245.8955 1964.5625,245.4268 Q1965.0313,244.958 1965.0313,244.0986 L1967.1875,244.0986 Q1967.1875,245.2236 1966.6875,246.0518 Q1966.1875,246.8643 1965.2969,247.3174 Q1964.4219,247.7705 1963.2344,247.7705 Z " fill="#000000"/><text fill="#000000" font-family="sans-serif" font-size="14" lengthAdjust="spacing" textLength="55.9998" x="1977" y="246.1812">&#28040;&#24687;&#26381;&#21153;</text><line style="stroke:#181818;stroke-width:0.5;" x1="1949" x2="2034.9998" y1="257.0986" y2="257.0986"/><line style="stroke:#181818;stroke-width:0.5;" x1="1949" x2="2034.9998" y1="265.0986" y2="265.0986"/></g><!--class ????--><g class="entity" data-qualified-name="........" data-source-line="19" id="ent0013"><rect fill="#F1F1F1" height="48" rx="2.5" ry="2.5" style="stroke:#181818;stroke-width:0.5;" width="87.9998" x="2071" y="225.0986"/><ellipse cx="2086" cy="241.0986" fill="#ADD1B2" rx="11" ry="11" style="stroke:#181818;stroke-width:1;"/><path d="M2086.2344,247.7705 Q2085.0313,247.7705 2084.1406,247.3174 Q2083.2656,246.8643 2082.7813,246.0518 Q2082.2969,245.2236 2082.2969,244.0986 L2082.2969,238.6924 Q2082.2969,237.5674 2082.7813,236.7549 Q2083.2656,235.9268 2084.1406,235.4736 Q2085.0313,235.0205 2086.2344,235.0205 Q2087.4219,235.0205 2088.2969,235.4736 Q2089.1875,235.9268 2089.6875,236.7549 Q2090.1875,237.5674 2090.1875,238.6924 L2088.0313,238.6924 Q2088.0313,237.8174 2087.5625,237.3643 Q2087.1094,236.8955 2086.2344,236.8955 Q2085.375,236.8955 2084.8906,237.3643 Q2084.4219,237.8174 2084.4219,238.6924 L2084.4219,244.0986 Q2084.4219,244.958 2084.8906,245.4268 Q2085.375,245.8955 2086.2344,245.8955 Q2087.1094,245.8955 2087.5625,245.4268 Q2088.0313,244.958 2088.0313,244.0986 L2090.1875,244.0986 Q2090.1875,245.2236 2089.6875,246.0518 Q2089.1875,246.8643 2088.2969,247.3174 Q2087.4219,247.7705 2086.2344,247.7705 Z " fill="#000000"/><text fill="#000000" font-family="sans-serif" font-size="14" lengthAdjust="spacing" textLength="55.9998" x="2100" y="246.1812">&#31649;&#29702;&#26381;&#21153;</text><line style="stroke:#181818;stroke-width:0.5;" x1="2072" x2="2157.9998" y1="257.0986" y2="257.0986"/><line style="stroke:#181818;stroke-width:0.5;" x1="2072" x2="2157.9998" y1="265.0986" y2="265.0986"/></g><!--class ????--><g class="entity" data-qualified-name="........" data-source-line="20" id="ent0014"><rect fill="#F1F1F1" height="48" rx="2.5" ry="2.5" style="stroke:#181818;stroke-width:0.5;" width="87.9998" x="2194" y="225.0986"/><ellipse cx="2209" cy="241.0986" fill="#ADD1B2" rx="11" ry="11" style="stroke:#181818;stroke-width:1;"/><path d="M2209.2344,247.7705 Q2208.0313,247.7705 2207.1406,247.3174 Q2206.2656,246.8643 2205.7813,246.0518 Q2205.2969,245.2236 2205.2969,244.0986 L2205.2969,238.6924 Q2205.2969,237.5674 2205.7813,236.7549 Q2206.2656,235.9268 2207.1406,235.4736 Q2208.0313,235.0205 2209.2344,235.0205 Q2210.4219,235.0205 2211.2969,235.4736 Q2212.1875,235.9268 2212.6875,236.7549 Q2213.1875,237.5674 2213.1875,238.6924 L2211.0313,238.6924 Q2211.0313,237.8174 2210.5625,237.3643 Q2210.1094,236.8955 2209.2344,236.8955 Q2208.375,236.8955 2207.8906,237.3643 Q2207.4219,237.8174 2207.4219,238.6924 L2207.4219,244.0986 Q2207.4219,244.958 2207.8906,245.4268 Q2208.375,245.8955 2209.2344,245.8955 Q2210.1094,245.8955 2210.5625,245.4268 Q2211.0313,244.958 2211.0313,244.0986 L2213.1875,244.0986 Q2213.1875,245.2236 2212.6875,246.0518 Q2212.1875,246.8643 2211.2969,247.3174 Q2210.4219,247.7705 2209.2344,247.7705 Z " fill="#000000"/><text fill="#000000" font-family="sans-serif" font-size="14" lengthAdjust="spacing" textLength="55.9998" x="2223" y="246.1812">&#21453;&#39304;&#26381;&#21153;</text><line style="stroke:#181818;stroke-width:0.5;" x1="2195" x2="2280.9998" y1="257.0986" y2="257.0986"/><line style="stroke:#181818;stroke-width:0.5;" x1="2195" x2="2280.9998" y1="265.0986" y2="265.0986"/></g><!--class ????--><g class="entity" data-qualified-name="........" data-source-line="21" id="ent0015"><rect fill="#F1F1F1" height="48" rx="2.5" ry="2.5" style="stroke:#181818;stroke-width:0.5;" width="87.9998" x="2317" y="355.0986"/><ellipse cx="2332" cy="371.0986" fill="#ADD1B2" rx="11" ry="11" style="stroke:#181818;stroke-width:1;"/><path d="M2332.2344,377.7705 Q2331.0313,377.7705 2330.1406,377.3174 Q2329.2656,376.8643 2328.7813,376.0518 Q2328.2969,375.2236 2328.2969,374.0986 L2328.2969,368.6924 Q2328.2969,367.5674 2328.7813,366.7549 Q2329.2656,365.9268 2330.1406,365.4736 Q2331.0313,365.0205 2332.2344,365.0205 Q2333.4219,365.0205 2334.2969,365.4736 Q2335.1875,365.9268 2335.6875,366.7549 Q2336.1875,367.5674 2336.1875,368.6924 L2334.0313,368.6924 Q2334.0313,367.8174 2333.5625,367.3643 Q2333.1094,366.8955 2332.2344,366.8955 Q2331.375,366.8955 2330.8906,367.3643 Q2330.4219,367.8174 2330.4219,368.6924 L2330.4219,374.0986 Q2330.4219,374.958 2330.8906,375.4268 Q2331.375,375.8955 2332.2344,375.8955 Q2333.1094,375.8955 2333.5625,375.4268 Q2334.0313,374.958 2334.0313,374.0986 L2336.1875,374.0986 Q2336.1875,375.2236 2335.6875,376.0518 Q2335.1875,376.8643 2334.2969,377.3174 Q2333.4219,377.7705 2332.2344,377.7705 Z " fill="#000000"/><text fill="#000000" font-family="sans-serif" font-size="14" lengthAdjust="spacing" textLength="55.9998" x="2346" y="376.1812">&#25991;&#20214;&#26381;&#21153;</text><line style="stroke:#181818;stroke-width:0.5;" x1="2318" x2="2403.9998" y1="387.0986" y2="387.0986"/><line style="stroke:#181818;stroke-width:0.5;" x1="2318" x2="2403.9998" y1="395.0986" y2="395.0986"/></g><!--class ??--><g class="entity" data-qualified-name="......" data-source-line="25" id="ent0017"><rect fill="#F1F1F1" height="48" rx="2.5" ry="2.5" style="stroke:#181818;stroke-width:0.5;" width="59.9999" x="219" y="78.0986"/><ellipse cx="234" cy="94.0986" fill="#ADD1B2" rx="11" ry="11" style="stroke:#181818;stroke-width:1;"/><path d="M234.2344,100.7705 Q233.0313,100.7705 232.1406,100.3174 Q231.2656,99.8643 230.7813,99.0518 Q230.2969,98.2236 230.2969,97.0986 L230.2969,91.6924 Q230.2969,90.5674 230.7813,89.7549 Q231.2656,88.9268 232.1406,88.4736 Q233.0313,88.0205 234.2344,88.0205 Q235.4219,88.0205 236.2969,88.4736 Q237.1875,88.9268 237.6875,89.7549 Q238.1875,90.5674 238.1875,91.6924 L236.0313,91.6924 Q236.0313,90.8174 235.5625,90.3643 Q235.1094,89.8955 234.2344,89.8955 Q233.375,89.8955 232.8906,90.3643 Q232.4219,90.8174 232.4219,91.6924 L232.4219,97.0986 Q232.4219,97.958 232.8906,98.4268 Q233.375,98.8955 234.2344,98.8955 Q235.1094,98.8955 235.5625,98.4268 Q236.0313,97.958 236.0313,97.0986 L238.1875,97.0986 Q238.1875,98.2236 237.6875,99.0518 Q237.1875,99.8643 236.2969,100.3174 Q235.4219,100.7705 234.2344,100.7705 Z " fill="#000000"/><text fill="#000000" font-family="sans-serif" font-size="14" lengthAdjust="spacing" textLength="27.9999" x="248" y="99.1812">&#29992;&#25143;</text><line style="stroke:#181818;stroke-width:0.5;" x1="220" x2="277.9999" y1="110.0986" y2="110.0986"/><line style="stroke:#181818;stroke-width:0.5;" x1="220" x2="277.9999" y1="118.0986" y2="118.0986"/></g><!--class ??--><g class="entity" data-qualified-name="......" data-source-line="26" id="ent0018"><rect fill="#F1F1F1" height="48" rx="2.5" ry="2.5" style="stroke:#181818;stroke-width:0.5;" width="59.9999" x="219" y="225.0986"/><ellipse cx="234" cy="241.0986" fill="#ADD1B2" rx="11" ry="11" style="stroke:#181818;stroke-width:1;"/><path d="M234.2344,247.7705 Q233.0313,247.7705 232.1406,247.3174 Q231.2656,246.8643 230.7813,246.0518 Q230.2969,245.2236 230.2969,244.0986 L230.2969,238.6924 Q230.2969,237.5674 230.7813,236.7549 Q231.2656,235.9268 232.1406,235.4736 Q233.0313,235.0205 234.2344,235.0205 Q235.4219,235.0205 236.2969,235.4736 Q237.1875,235.9268 237.6875,236.7549 Q238.1875,237.5674 238.1875,238.6924 L236.0313,238.6924 Q236.0313,237.8174 235.5625,237.3643 Q235.1094,236.8955 234.2344,236.8955 Q233.375,236.8955 232.8906,237.3643 Q232.4219,237.8174 232.4219,238.6924 L232.4219,244.0986 Q232.4219,244.958 232.8906,245.4268 Q233.375,245.8955 234.2344,245.8955 Q235.1094,245.8955 235.5625,245.4268 Q236.0313,244.958 236.0313,244.0986 L238.1875,244.0986 Q238.1875,245.2236 237.6875,246.0518 Q237.1875,246.8643 236.2969,247.3174 Q235.4219,247.7705 234.2344,247.7705 Z " fill="#000000"/><text fill="#000000" font-family="sans-serif" font-size="14" lengthAdjust="spacing" textLength="27.9999" x="248" y="246.1812">&#21830;&#21697;</text><line style="stroke:#181818;stroke-width:0.5;" x1="220" x2="277.9999" y1="257.0986" y2="257.0986"/><line style="stroke:#181818;stroke-width:0.5;" x1="220" x2="277.9999" y1="265.0986" y2="265.0986"/></g><!--class ????--><g class="entity" data-qualified-name="........" data-source-line="27" id="ent0019"><rect fill="#F1F1F1" height="48" rx="2.5" ry="2.5" style="stroke:#181818;stroke-width:0.5;" width="87.9998" x="212" y="355.0986"/><ellipse cx="227" cy="371.0986" fill="#ADD1B2" rx="11" ry="11" style="stroke:#181818;stroke-width:1;"/><path d="M227.2344,377.7705 Q226.0313,377.7705 225.1406,377.3174 Q224.2656,376.8643 223.7813,376.0518 Q223.2969,375.2236 223.2969,374.0986 L223.2969,368.6924 Q223.2969,367.5674 223.7813,366.7549 Q224.2656,365.9268 225.1406,365.4736 Q226.0313,365.0205 227.2344,365.0205 Q228.4219,365.0205 229.2969,365.4736 Q230.1875,365.9268 230.6875,366.7549 Q231.1875,367.5674 231.1875,368.6924 L229.0313,368.6924 Q229.0313,367.8174 228.5625,367.3643 Q228.1094,366.8955 227.2344,366.8955 Q226.375,366.8955 225.8906,367.3643 Q225.4219,367.8174 225.4219,368.6924 L225.4219,374.0986 Q225.4219,374.958 225.8906,375.4268 Q226.375,375.8955 227.2344,375.8955 Q228.1094,375.8955 228.5625,375.4268 Q229.0313,374.958 229.0313,374.0986 L231.1875,374.0986 Q231.1875,375.2236 230.6875,376.0518 Q230.1875,376.8643 229.2969,377.3174 Q228.4219,377.7705 227.2344,377.7705 Z " fill="#000000"/><text fill="#000000" font-family="sans-serif" font-size="14" lengthAdjust="spacing" textLength="55.9998" x="241" y="376.1812">&#21830;&#21697;&#22270;&#29255;</text><line style="stroke:#181818;stroke-width:0.5;" x1="213" x2="298.9998" y1="387.0986" y2="387.0986"/><line style="stroke:#181818;stroke-width:0.5;" x1="213" x2="298.9998" y1="395.0986" y2="395.0986"/></g><!--class ??--><g class="entity" data-qualified-name="......" data-source-line="28" id="ent0020"><rect fill="#F1F1F1" height="48" rx="2.5" ry="2.5" style="stroke:#181818;stroke-width:0.5;" width="59.9999" x="335" y="355.0986"/><ellipse cx="350" cy="371.0986" fill="#ADD1B2" rx="11" ry="11" style="stroke:#181818;stroke-width:1;"/><path d="M350.2344,377.7705 Q349.0313,377.7705 348.1406,377.3174 Q347.2656,376.8643 346.7813,376.0518 Q346.2969,375.2236 346.2969,374.0986 L346.2969,368.6924 Q346.2969,367.5674 346.7813,366.7549 Q347.2656,365.9268 348.1406,365.4736 Q349.0313,365.0205 350.2344,365.0205 Q351.4219,365.0205 352.2969,365.4736 Q353.1875,365.9268 353.6875,366.7549 Q354.1875,367.5674 354.1875,368.6924 L352.0313,368.6924 Q352.0313,367.8174 351.5625,367.3643 Q351.1094,366.8955 350.2344,366.8955 Q349.375,366.8955 348.8906,367.3643 Q348.4219,367.8174 348.4219,368.6924 L348.4219,374.0986 Q348.4219,374.958 348.8906,375.4268 Q349.375,375.8955 350.2344,375.8955 Q351.1094,375.8955 351.5625,375.4268 Q352.0313,374.958 352.0313,374.0986 L354.1875,374.0986 Q354.1875,375.2236 353.6875,376.0518 Q353.1875,376.8643 352.2969,377.3174 Q351.4219,377.7705 350.2344,377.7705 Z " fill="#000000"/><text fill="#000000" font-family="sans-serif" font-size="14" lengthAdjust="spacing" textLength="27.9999" x="364" y="376.1812">&#35746;&#21333;</text><line style="stroke:#181818;stroke-width:0.5;" x1="336" x2="393.9999" y1="387.0986" y2="387.0986"/><line style="stroke:#181818;stroke-width:0.5;" x1="336" x2="393.9999" y1="395.0986" y2="395.0986"/></g><!--class ??--><g class="entity" data-qualified-name="......" data-source-line="29" id="ent0021"><rect fill="#F1F1F1" height="48" rx="2.5" ry="2.5" style="stroke:#181818;stroke-width:0.5;" width="59.9999" x="324" y="78.0986"/><ellipse cx="339" cy="94.0986" fill="#ADD1B2" rx="11" ry="11" style="stroke:#181818;stroke-width:1;"/><path d="M339.2344,100.7705 Q338.0313,100.7705 337.1406,100.3174 Q336.2656,99.8643 335.7813,99.0518 Q335.2969,98.2236 335.2969,97.0986 L335.2969,91.6924 Q335.2969,90.5674 335.7813,89.7549 Q336.2656,88.9268 337.1406,88.4736 Q338.0313,88.0205 339.2344,88.0205 Q340.4219,88.0205 341.2969,88.4736 Q342.1875,88.9268 342.6875,89.7549 Q343.1875,90.5674 343.1875,91.6924 L341.0313,91.6924 Q341.0313,90.8174 340.5625,90.3643 Q340.1094,89.8955 339.2344,89.8955 Q338.375,89.8955 337.8906,90.3643 Q337.4219,90.8174 337.4219,91.6924 L337.4219,97.0986 Q337.4219,97.958 337.8906,98.4268 Q338.375,98.8955 339.2344,98.8955 Q340.1094,98.8955 340.5625,98.4268 Q341.0313,97.958 341.0313,97.0986 L343.1875,97.0986 Q343.1875,98.2236 342.6875,99.0518 Q342.1875,99.8643 341.2969,100.3174 Q340.4219,100.7705 339.2344,100.7705 Z " fill="#000000"/><text fill="#000000" font-family="sans-serif" font-size="14" lengthAdjust="spacing" textLength="27.9999" x="353" y="99.1812">&#20250;&#35805;</text><line style="stroke:#181818;stroke-width:0.5;" x1="325" x2="382.9999" y1="110.0986" y2="110.0986"/><line style="stroke:#181818;stroke-width:0.5;" x1="325" x2="382.9999" y1="118.0986" y2="118.0986"/></g><!--class ??--><g class="entity" data-qualified-name="......" data-source-line="30" id="ent0022"><rect fill="#F1F1F1" height="48" rx="2.5" ry="2.5" style="stroke:#181818;stroke-width:0.5;" width="59.9999" x="324" y="225.0986"/><ellipse cx="339" cy="241.0986" fill="#ADD1B2" rx="11" ry="11" style="stroke:#181818;stroke-width:1;"/><path d="M339.2344,247.7705 Q338.0313,247.7705 337.1406,247.3174 Q336.2656,246.8643 335.7813,246.0518 Q335.2969,245.2236 335.2969,244.0986 L335.2969,238.6924 Q335.2969,237.5674 335.7813,236.7549 Q336.2656,235.9268 337.1406,235.4736 Q338.0313,235.0205 339.2344,235.0205 Q340.4219,235.0205 341.2969,235.4736 Q342.1875,235.9268 342.6875,236.7549 Q343.1875,237.5674 343.1875,238.6924 L341.0313,238.6924 Q341.0313,237.8174 340.5625,237.3643 Q340.1094,236.8955 339.2344,236.8955 Q338.375,236.8955 337.8906,237.3643 Q337.4219,237.8174 337.4219,238.6924 L337.4219,244.0986 Q337.4219,244.958 337.8906,245.4268 Q338.375,245.8955 339.2344,245.8955 Q340.1094,245.8955 340.5625,245.4268 Q341.0313,244.958 341.0313,244.0986 L343.1875,244.0986 Q343.1875,245.2236 342.6875,246.0518 Q342.1875,246.8643 341.2969,247.3174 Q340.4219,247.7705 339.2344,247.7705 Z " fill="#000000"/><text fill="#000000" font-family="sans-serif" font-size="14" lengthAdjust="spacing" textLength="27.9999" x="353" y="246.1812">&#28040;&#24687;</text><line style="stroke:#181818;stroke-width:0.5;" x1="325" x2="382.9999" y1="257.0986" y2="257.0986"/><line style="stroke:#181818;stroke-width:0.5;" x1="325" x2="382.9999" y1="265.0986" y2="265.0986"/></g><!--class ??--><g class="entity" data-qualified-name="......" data-source-line="31" id="ent0023"><rect fill="#F1F1F1" height="48" rx="2.5" ry="2.5" style="stroke:#181818;stroke-width:0.5;" width="59.9999" x="335" y="466.0986"/><ellipse cx="350" cy="482.0986" fill="#ADD1B2" rx="11" ry="11" style="stroke:#181818;stroke-width:1;"/><path d="M350.2344,488.7705 Q349.0313,488.7705 348.1406,488.3174 Q347.2656,487.8643 346.7813,487.0518 Q346.2969,486.2236 346.2969,485.0986 L346.2969,479.6924 Q346.2969,478.5674 346.7813,477.7549 Q347.2656,476.9268 348.1406,476.4736 Q349.0313,476.0205 350.2344,476.0205 Q351.4219,476.0205 352.2969,476.4736 Q353.1875,476.9268 353.6875,477.7549 Q354.1875,478.5674 354.1875,479.6924 L352.0313,479.6924 Q352.0313,478.8174 351.5625,478.3643 Q351.1094,477.8955 350.2344,477.8955 Q349.375,477.8955 348.8906,478.3643 Q348.4219,478.8174 348.4219,479.6924 L348.4219,485.0986 Q348.4219,485.958 348.8906,486.4268 Q349.375,486.8955 350.2344,486.8955 Q351.1094,486.8955 351.5625,486.4268 Q352.0313,485.958 352.0313,485.0986 L354.1875,485.0986 Q354.1875,486.2236 353.6875,487.0518 Q353.1875,487.8643 352.2969,488.3174 Q351.4219,488.7705 350.2344,488.7705 Z " fill="#000000"/><text fill="#000000" font-family="sans-serif" font-size="14" lengthAdjust="spacing" textLength="27.9999" x="364" y="487.1812">&#35780;&#20215;</text><line style="stroke:#181818;stroke-width:0.5;" x1="336" x2="393.9999" y1="498.0986" y2="498.0986"/><line style="stroke:#181818;stroke-width:0.5;" x1="336" x2="393.9999" y1="506.0986" y2="506.0986"/></g><!--class ??--><g class="entity" data-qualified-name="......" data-source-line="32" id="ent0024"><rect fill="#F1F1F1" height="48" rx="2.5" ry="2.5" style="stroke:#181818;stroke-width:0.5;" width="59.9999" x="117" y="355.0986"/><ellipse cx="132" cy="371.0986" fill="#ADD1B2" rx="11" ry="11" style="stroke:#181818;stroke-width:1;"/><path d="M132.2344,377.7705 Q131.0313,377.7705 130.1406,377.3174 Q129.2656,376.8643 128.7813,376.0518 Q128.2969,375.2236 128.2969,374.0986 L128.2969,368.6924 Q128.2969,367.5674 128.7813,366.7549 Q129.2656,365.9268 130.1406,365.4736 Q131.0313,365.0205 132.2344,365.0205 Q133.4219,365.0205 134.2969,365.4736 Q135.1875,365.9268 135.6875,366.7549 Q136.1875,367.5674 136.1875,368.6924 L134.0313,368.6924 Q134.0313,367.8174 133.5625,367.3643 Q133.1094,366.8955 132.2344,366.8955 Q131.375,366.8955 130.8906,367.3643 Q130.4219,367.8174 130.4219,368.6924 L130.4219,374.0986 Q130.4219,374.958 130.8906,375.4268 Q131.375,375.8955 132.2344,375.8955 Q133.1094,375.8955 133.5625,375.4268 Q134.0313,374.958 134.0313,374.0986 L136.1875,374.0986 Q136.1875,375.2236 135.6875,376.0518 Q135.1875,376.8643 134.2969,377.3174 Q133.4219,377.7705 132.2344,377.7705 Z " fill="#000000"/><text fill="#000000" font-family="sans-serif" font-size="14" lengthAdjust="spacing" textLength="27.9999" x="146" y="376.1812">&#20030;&#25253;</text><line style="stroke:#181818;stroke-width:0.5;" x1="118" x2="175.9999" y1="387.0986" y2="387.0986"/><line style="stroke:#181818;stroke-width:0.5;" x1="118" x2="175.9999" y1="395.0986" y2="395.0986"/></g><!--class ??--><g class="entity" data-qualified-name="......" data-source-line="33" id="ent0025"><rect fill="#F1F1F1" height="48" rx="2.5" ry="2.5" style="stroke:#181818;stroke-width:0.5;" width="59.9999" x="22" y="355.0986"/><ellipse cx="37" cy="371.0986" fill="#ADD1B2" rx="11" ry="11" style="stroke:#181818;stroke-width:1;"/><path d="M37.2344,377.7705 Q36.0313,377.7705 35.1406,377.3174 Q34.2656,376.8643 33.7813,376.0518 Q33.2969,375.2236 33.2969,374.0986 L33.2969,368.6924 Q33.2969,367.5674 33.7813,366.7549 Q34.2656,365.9268 35.1406,365.4736 Q36.0313,365.0205 37.2344,365.0205 Q38.4219,365.0205 39.2969,365.4736 Q40.1875,365.9268 40.6875,366.7549 Q41.1875,367.5674 41.1875,368.6924 L39.0313,368.6924 Q39.0313,367.8174 38.5625,367.3643 Q38.1094,366.8955 37.2344,366.8955 Q36.375,366.8955 35.8906,367.3643 Q35.4219,367.8174 35.4219,368.6924 L35.4219,374.0986 Q35.4219,374.958 35.8906,375.4268 Q36.375,375.8955 37.2344,375.8955 Q38.1094,375.8955 38.5625,375.4268 Q39.0313,374.958 39.0313,374.0986 L41.1875,374.0986 Q41.1875,375.2236 40.6875,376.0518 Q40.1875,376.8643 39.2969,377.3174 Q38.4219,377.7705 37.2344,377.7705 Z " fill="#000000"/><text fill="#000000" font-family="sans-serif" font-size="14" lengthAdjust="spacing" textLength="27.9999" x="51" y="376.1812">&#25910;&#34255;</text><line style="stroke:#181818;stroke-width:0.5;" x1="23" x2="80.9999" y1="387.0986" y2="387.0986"/><line style="stroke:#181818;stroke-width:0.5;" x1="23" x2="80.9999" y1="395.0986" y2="395.0986"/></g><!--class ??--><g class="entity" data-qualified-name="......" data-source-line="34" id="ent0026"><rect fill="#F1F1F1" height="48" rx="2.5" ry="2.5" style="stroke:#181818;stroke-width:0.5;" width="59.9999" x="29" y="78.0986"/><ellipse cx="44" cy="94.0986" fill="#ADD1B2" rx="11" ry="11" style="stroke:#181818;stroke-width:1;"/><path d="M44.2344,100.7705 Q43.0313,100.7705 42.1406,100.3174 Q41.2656,99.8643 40.7813,99.0518 Q40.2969,98.2236 40.2969,97.0986 L40.2969,91.6924 Q40.2969,90.5674 40.7813,89.7549 Q41.2656,88.9268 42.1406,88.4736 Q43.0313,88.0205 44.2344,88.0205 Q45.4219,88.0205 46.2969,88.4736 Q47.1875,88.9268 47.6875,89.7549 Q48.1875,90.5674 48.1875,91.6924 L46.0313,91.6924 Q46.0313,90.8174 45.5625,90.3643 Q45.1094,89.8955 44.2344,89.8955 Q43.375,89.8955 42.8906,90.3643 Q42.4219,90.8174 42.4219,91.6924 L42.4219,97.0986 Q42.4219,97.958 42.8906,98.4268 Q43.375,98.8955 44.2344,98.8955 Q45.1094,98.8955 45.5625,98.4268 Q46.0313,97.958 46.0313,97.0986 L48.1875,97.0986 Q48.1875,98.2236 47.6875,99.0518 Q47.1875,99.8643 46.2969,100.3174 Q45.4219,100.7705 44.2344,100.7705 Z " fill="#000000"/><text fill="#000000" font-family="sans-serif" font-size="14" lengthAdjust="spacing" textLength="27.9999" x="58" y="99.1812">&#36890;&#30693;</text><line style="stroke:#181818;stroke-width:0.5;" x1="30" x2="87.9999" y1="110.0986" y2="110.0986"/><line style="stroke:#181818;stroke-width:0.5;" x1="30" x2="87.9999" y1="118.0986" y2="118.0986"/></g><!--class ??--><g class="entity" data-qualified-name="......" data-source-line="35" id="ent0027"><rect fill="#F1F1F1" height="48" rx="2.5" ry="2.5" style="stroke:#181818;stroke-width:0.5;" width="59.9999" x="124" y="78.0986"/><ellipse cx="139" cy="94.0986" fill="#ADD1B2" rx="11" ry="11" style="stroke:#181818;stroke-width:1;"/><path d="M139.2344,100.7705 Q138.0313,100.7705 137.1406,100.3174 Q136.2656,99.8643 135.7813,99.0518 Q135.2969,98.2236 135.2969,97.0986 L135.2969,91.6924 Q135.2969,90.5674 135.7813,89.7549 Q136.2656,88.9268 137.1406,88.4736 Q138.0313,88.0205 139.2344,88.0205 Q140.4219,88.0205 141.2969,88.4736 Q142.1875,88.9268 142.6875,89.7549 Q143.1875,90.5674 143.1875,91.6924 L141.0313,91.6924 Q141.0313,90.8174 140.5625,90.3643 Q140.1094,89.8955 139.2344,89.8955 Q138.375,89.8955 137.8906,90.3643 Q137.4219,90.8174 137.4219,91.6924 L137.4219,97.0986 Q137.4219,97.958 137.8906,98.4268 Q138.375,98.8955 139.2344,98.8955 Q140.1094,98.8955 140.5625,98.4268 Q141.0313,97.958 141.0313,97.0986 L143.1875,97.0986 Q143.1875,98.2236 142.6875,99.0518 Q142.1875,99.8643 141.2969,100.3174 Q140.4219,100.7705 139.2344,100.7705 Z " fill="#000000"/><text fill="#000000" font-family="sans-serif" font-size="14" lengthAdjust="spacing" textLength="27.9999" x="153" y="99.1812">&#21453;&#39304;</text><line style="stroke:#181818;stroke-width:0.5;" x1="125" x2="182.9999" y1="110.0986" y2="110.0986"/><line style="stroke:#181818;stroke-width:0.5;" x1="125" x2="182.9999" y1="118.0986" y2="118.0986"/></g><!--class ????--><g class="entity" data-qualified-name="........" data-source-line="36" id="ent0028"><rect fill="#F1F1F1" height="48" rx="2.5" ry="2.5" style="stroke:#181818;stroke-width:0.5;" width="87.9998" x="22" y="225.0986"/><ellipse cx="37" cy="241.0986" fill="#ADD1B2" rx="11" ry="11" style="stroke:#181818;stroke-width:1;"/><path d="M37.2344,247.7705 Q36.0313,247.7705 35.1406,247.3174 Q34.2656,246.8643 33.7813,246.0518 Q33.2969,245.2236 33.2969,244.0986 L33.2969,238.6924 Q33.2969,237.5674 33.7813,236.7549 Q34.2656,235.9268 35.1406,235.4736 Q36.0313,235.0205 37.2344,235.0205 Q38.4219,235.0205 39.2969,235.4736 Q40.1875,235.9268 40.6875,236.7549 Q41.1875,237.5674 41.1875,238.6924 L39.0313,238.6924 Q39.0313,237.8174 38.5625,237.3643 Q38.1094,236.8955 37.2344,236.8955 Q36.375,236.8955 35.8906,237.3643 Q35.4219,237.8174 35.4219,238.6924 L35.4219,244.0986 Q35.4219,244.958 35.8906,245.4268 Q36.375,245.8955 37.2344,245.8955 Q38.1094,245.8955 38.5625,245.4268 Q39.0313,244.958 39.0313,244.0986 L41.1875,244.0986 Q41.1875,245.2236 40.6875,246.0518 Q40.1875,246.8643 39.2969,247.3174 Q38.4219,247.7705 37.2344,247.7705 Z " fill="#000000"/><text fill="#000000" font-family="sans-serif" font-size="14" lengthAdjust="spacing" textLength="55.9998" x="51" y="246.1812">&#27983;&#35272;&#21382;&#21490;</text><line style="stroke:#181818;stroke-width:0.5;" x1="23" x2="108.9998" y1="257.0986" y2="257.0986"/><line style="stroke:#181818;stroke-width:0.5;" x1="23" x2="108.9998" y1="265.0986" y2="265.0986"/></g><!--class ????--><g class="entity" data-qualified-name=".........." data-source-line="40" id="ent0030"><rect fill="#F1F1F1" height="48" rx="2.5" ry="2.5" style="stroke:#181818;stroke-width:0.5;" width="87.9998" x="574" y="355.0986"/><ellipse cx="589" cy="371.0986" fill="#B4A7E5" rx="11" ry="11" style="stroke:#181818;stroke-width:1;"/><path d="M585.0313,377.5986 L585.0313,375.6768 L587.5313,375.6768 L587.5313,367.1143 L585.0313,367.1143 L585.0313,365.1924 L592.1719,365.1924 L592.1719,367.1143 L589.6719,367.1143 L589.6719,375.6768 L592.1719,375.6768 L592.1719,377.5986 L585.0313,377.5986 Z " fill="#000000"/><text fill="#000000" font-family="sans-serif" font-size="14" font-style="italic" lengthAdjust="spacing" textLength="55.9998" x="603" y="376.1812">&#29992;&#25143;&#20179;&#24211;</text><line style="stroke:#181818;stroke-width:0.5;" x1="575" x2="660.9998" y1="387.0986" y2="387.0986"/><line style="stroke:#181818;stroke-width:0.5;" x1="575" x2="660.9998" y1="395.0986" y2="395.0986"/></g><!--class ????--><g class="entity" data-qualified-name=".........." data-source-line="41" id="ent0031"><rect fill="#F1F1F1" height="48" rx="2.5" ry="2.5" style="stroke:#181818;stroke-width:0.5;" width="87.9998" x="1066" y="355.0986"/><ellipse cx="1081" cy="371.0986" fill="#B4A7E5" rx="11" ry="11" style="stroke:#181818;stroke-width:1;"/><path d="M1077.0313,377.5986 L1077.0313,375.6768 L1079.5313,375.6768 L1079.5313,367.1143 L1077.0313,367.1143 L1077.0313,365.1924 L1084.1719,365.1924 L1084.1719,367.1143 L1081.6719,367.1143 L1081.6719,375.6768 L1084.1719,375.6768 L1084.1719,377.5986 L1077.0313,377.5986 Z " fill="#000000"/><text fill="#000000" font-family="sans-serif" font-size="14" font-style="italic" lengthAdjust="spacing" textLength="55.9998" x="1095" y="376.1812">&#21830;&#21697;&#20179;&#24211;</text><line style="stroke:#181818;stroke-width:0.5;" x1="1067" x2="1152.9998" y1="387.0986" y2="387.0986"/><line style="stroke:#181818;stroke-width:0.5;" x1="1067" x2="1152.9998" y1="395.0986" y2="395.0986"/></g><!--class ????--><g class="entity" data-qualified-name=".........." data-source-line="42" id="ent0032"><rect fill="#F1F1F1" height="48" rx="2.5" ry="2.5" style="stroke:#181818;stroke-width:0.5;" width="87.9998" x="943" y="355.0986"/><ellipse cx="958" cy="371.0986" fill="#B4A7E5" rx="11" ry="11" style="stroke:#181818;stroke-width:1;"/><path d="M954.0313,377.5986 L954.0313,375.6768 L956.5313,375.6768 L956.5313,367.1143 L954.0313,367.1143 L954.0313,365.1924 L961.1719,365.1924 L961.1719,367.1143 L958.6719,367.1143 L958.6719,375.6768 L961.1719,375.6768 L961.1719,377.5986 L954.0313,377.5986 Z " fill="#000000"/><text fill="#000000" font-family="sans-serif" font-size="14" font-style="italic" lengthAdjust="spacing" textLength="55.9998" x="972" y="376.1812">&#35746;&#21333;&#20179;&#24211;</text><line style="stroke:#181818;stroke-width:0.5;" x1="944" x2="1029.9998" y1="387.0986" y2="387.0986"/><line style="stroke:#181818;stroke-width:0.5;" x1="944" x2="1029.9998" y1="395.0986" y2="395.0986"/></g><!--class ????--><g class="entity" data-qualified-name=".........." data-source-line="43" id="ent0033"><rect fill="#F1F1F1" height="48" rx="2.5" ry="2.5" style="stroke:#181818;stroke-width:0.5;" width="87.9998" x="820" y="355.0986"/><ellipse cx="835" cy="371.0986" fill="#B4A7E5" rx="11" ry="11" style="stroke:#181818;stroke-width:1;"/><path d="M831.0313,377.5986 L831.0313,375.6768 L833.5313,375.6768 L833.5313,367.1143 L831.0313,367.1143 L831.0313,365.1924 L838.1719,365.1924 L838.1719,367.1143 L835.6719,367.1143 L835.6719,375.6768 L838.1719,375.6768 L838.1719,377.5986 L831.0313,377.5986 Z " fill="#000000"/><text fill="#000000" font-family="sans-serif" font-size="14" font-style="italic" lengthAdjust="spacing" textLength="55.9998" x="849" y="376.1812">&#28040;&#24687;&#20179;&#24211;</text><line style="stroke:#181818;stroke-width:0.5;" x1="821" x2="906.9998" y1="387.0986" y2="387.0986"/><line style="stroke:#181818;stroke-width:0.5;" x1="821" x2="906.9998" y1="395.0986" y2="395.0986"/></g><!--class ????--><g class="entity" data-qualified-name=".........." data-source-line="44" id="ent0034"><rect fill="#F1F1F1" height="48" rx="2.5" ry="2.5" style="stroke:#181818;stroke-width:0.5;" width="87.9998" x="697" y="355.0986"/><ellipse cx="712" cy="371.0986" fill="#B4A7E5" rx="11" ry="11" style="stroke:#181818;stroke-width:1;"/><path d="M708.0313,377.5986 L708.0313,375.6768 L710.5313,375.6768 L710.5313,367.1143 L708.0313,367.1143 L708.0313,365.1924 L715.1719,365.1924 L715.1719,367.1143 L712.6719,367.1143 L712.6719,375.6768 L715.1719,375.6768 L715.1719,377.5986 L708.0313,377.5986 Z " fill="#000000"/><text fill="#000000" font-family="sans-serif" font-size="14" font-style="italic" lengthAdjust="spacing" textLength="55.9998" x="726" y="376.1812">&#20250;&#35805;&#20179;&#24211;</text><line style="stroke:#181818;stroke-width:0.5;" x1="698" x2="783.9998" y1="387.0986" y2="387.0986"/><line style="stroke:#181818;stroke-width:0.5;" x1="698" x2="783.9998" y1="395.0986" y2="395.0986"/></g><!--class ????--><g class="entity" data-qualified-name=".........." data-source-line="45" id="ent0035"><rect fill="#F1F1F1" height="48" rx="2.5" ry="2.5" style="stroke:#181818;stroke-width:0.5;" width="87.9998" x="451" y="355.0986"/><ellipse cx="466" cy="371.0986" fill="#B4A7E5" rx="11" ry="11" style="stroke:#181818;stroke-width:1;"/><path d="M462.0313,377.5986 L462.0313,375.6768 L464.5313,375.6768 L464.5313,367.1143 L462.0313,367.1143 L462.0313,365.1924 L469.1719,365.1924 L469.1719,367.1143 L466.6719,367.1143 L466.6719,375.6768 L469.1719,375.6768 L469.1719,377.5986 L462.0313,377.5986 Z " fill="#000000"/><text fill="#000000" font-family="sans-serif" font-size="14" font-style="italic" lengthAdjust="spacing" textLength="55.9998" x="480" y="376.1812">&#35780;&#20215;&#20179;&#24211;</text><line style="stroke:#181818;stroke-width:0.5;" x1="452" x2="537.9998" y1="387.0986" y2="387.0986"/><line style="stroke:#181818;stroke-width:0.5;" x1="452" x2="537.9998" y1="395.0986" y2="395.0986"/></g><!--class ????--><g class="entity" data-qualified-name=".........." data-source-line="46" id="ent0036"><rect fill="#F1F1F1" height="48" rx="2.5" ry="2.5" style="stroke:#181818;stroke-width:0.5;" width="87.9998" x="1435" y="355.0986"/><ellipse cx="1450" cy="371.0986" fill="#B4A7E5" rx="11" ry="11" style="stroke:#181818;stroke-width:1;"/><path d="M1446.0313,377.5986 L1446.0313,375.6768 L1448.5313,375.6768 L1448.5313,367.1143 L1446.0313,367.1143 L1446.0313,365.1924 L1453.1719,365.1924 L1453.1719,367.1143 L1450.6719,367.1143 L1450.6719,375.6768 L1453.1719,375.6768 L1453.1719,377.5986 L1446.0313,377.5986 Z " fill="#000000"/><text fill="#000000" font-family="sans-serif" font-size="14" font-style="italic" lengthAdjust="spacing" textLength="55.9998" x="1464" y="376.1812">&#20030;&#25253;&#20179;&#24211;</text><line style="stroke:#181818;stroke-width:0.5;" x1="1436" x2="1521.9998" y1="387.0986" y2="387.0986"/><line style="stroke:#181818;stroke-width:0.5;" x1="1436" x2="1521.9998" y1="395.0986" y2="395.0986"/></g><!--class ????--><g class="entity" data-qualified-name=".........." data-source-line="47" id="ent0037"><rect fill="#F1F1F1" height="48" rx="2.5" ry="2.5" style="stroke:#181818;stroke-width:0.5;" width="87.9998" x="1558" y="355.0986"/><ellipse cx="1573" cy="371.0986" fill="#B4A7E5" rx="11" ry="11" style="stroke:#181818;stroke-width:1;"/><path d="M1569.0313,377.5986 L1569.0313,375.6768 L1571.5313,375.6768 L1571.5313,367.1143 L1569.0313,367.1143 L1569.0313,365.1924 L1576.1719,365.1924 L1576.1719,367.1143 L1573.6719,367.1143 L1573.6719,375.6768 L1576.1719,375.6768 L1576.1719,377.5986 L1569.0313,377.5986 Z " fill="#000000"/><text fill="#000000" font-family="sans-serif" font-size="14" font-style="italic" lengthAdjust="spacing" textLength="55.9998" x="1587" y="376.1812">&#25910;&#34255;&#20179;&#24211;</text><line style="stroke:#181818;stroke-width:0.5;" x1="1559" x2="1644.9998" y1="387.0986" y2="387.0986"/><line style="stroke:#181818;stroke-width:0.5;" x1="1559" x2="1644.9998" y1="395.0986" y2="395.0986"/></g><!--class ????--><g class="entity" data-qualified-name=".........." data-source-line="48" id="ent0038"><rect fill="#F1F1F1" height="48" rx="2.5" ry="2.5" style="stroke:#181818;stroke-width:0.5;" width="87.9998" x="1189" y="355.0986"/><ellipse cx="1204" cy="371.0986" fill="#B4A7E5" rx="11" ry="11" style="stroke:#181818;stroke-width:1;"/><path d="M1200.0313,377.5986 L1200.0313,375.6768 L1202.5313,375.6768 L1202.5313,367.1143 L1200.0313,367.1143 L1200.0313,365.1924 L1207.1719,365.1924 L1207.1719,367.1143 L1204.6719,367.1143 L1204.6719,375.6768 L1207.1719,375.6768 L1207.1719,377.5986 L1200.0313,377.5986 Z " fill="#000000"/><text fill="#000000" font-family="sans-serif" font-size="14" font-style="italic" lengthAdjust="spacing" textLength="55.9998" x="1218" y="376.1812">&#36890;&#30693;&#20179;&#24211;</text><line style="stroke:#181818;stroke-width:0.5;" x1="1190" x2="1275.9998" y1="387.0986" y2="387.0986"/><line style="stroke:#181818;stroke-width:0.5;" x1="1190" x2="1275.9998" y1="395.0986" y2="395.0986"/></g><!--class ????--><g class="entity" data-qualified-name=".........." data-source-line="49" id="ent0039"><rect fill="#F1F1F1" height="48" rx="2.5" ry="2.5" style="stroke:#181818;stroke-width:0.5;" width="87.9998" x="1312" y="355.0986"/><ellipse cx="1327" cy="371.0986" fill="#B4A7E5" rx="11" ry="11" style="stroke:#181818;stroke-width:1;"/><path d="M1323.0313,377.5986 L1323.0313,375.6768 L1325.5313,375.6768 L1325.5313,367.1143 L1323.0313,367.1143 L1323.0313,365.1924 L1330.1719,365.1924 L1330.1719,367.1143 L1327.6719,367.1143 L1327.6719,375.6768 L1330.1719,375.6768 L1330.1719,377.5986 L1323.0313,377.5986 Z " fill="#000000"/><text fill="#000000" font-family="sans-serif" font-size="14" font-style="italic" lengthAdjust="spacing" textLength="55.9998" x="1341" y="376.1812">&#21453;&#39304;&#20179;&#24211;</text><line style="stroke:#181818;stroke-width:0.5;" x1="1313" x2="1398.9998" y1="387.0986" y2="387.0986"/><line style="stroke:#181818;stroke-width:0.5;" x1="1313" x2="1398.9998" y1="395.0986" y2="395.0986"/></g><!--link ????? to ????--><g class="link" data-entity-1="ent0003" data-entity-2="ent0009" data-link-type="dependency" data-source-line="52" id="lnk40"><path codeLine="52" d="M1746,126.3986 C1746,153.4586 1746,191.8286 1746,218.8586" fill="none" id="&#35748;&#35777;&#25511;&#21046;&#22120;-to-&#35748;&#35777;&#26381;&#21153;" style="stroke:#181818;stroke-width:1;"/><polygon fill="#181818" points="1746,224.8586,1750,215.8586,1746,219.8586,1742,215.8586,1746,224.8586" style="stroke:#181818;stroke-width:1;"/></g><!--link ????? to ????--><g class="link" data-entity-1="ent0004" data-entity-2="ent0010" data-link-type="dependency" data-source-line="53" id="lnk41"><path codeLine="53" d="M2304.76,126.3986 C2317.27,153.4586 2335.2532,192.382 2347.7432,219.412" fill="none" id="&#21830;&#21697;&#25511;&#21046;&#22120;-to-&#21830;&#21697;&#26381;&#21153;" style="stroke:#181818;stroke-width:1;"/><polygon fill="#181818" points="2350.26,224.8586,2350.1159,215.0108,2348.1627,220.3198,2342.8537,218.3665,2350.26,224.8586" style="stroke:#181818;stroke-width:1;"/></g><!--link ????? to ????--><g class="link" data-entity-1="ent0004" data-entity-2="ent0015" data-link-type="dependency" data-source-line="54" id="lnk42"><path codeLine="54" d="M2345.46,120.5586 C2373.46,133.0086 2405.65,152.7986 2422,182.0986 C2454.21,239.8286 2411.2721,311.9804 2383.2221,350.0004" fill="none" id="&#21830;&#21697;&#25511;&#21046;&#22120;-to-&#25991;&#20214;&#26381;&#21153;" style="stroke:#181818;stroke-width:1;"/><polygon fill="#181818" points="2379.66,354.8286,2388.2219,349.9611,2382.6284,350.8051,2381.7843,345.2116,2379.66,354.8286" style="stroke:#181818;stroke-width:1;"/></g><!--link ????? to ????--><g class="link" data-entity-1="ent0005" data-entity-2="ent0011" data-link-type="dependency" data-source-line="55" id="lnk43"><path codeLine="55" d="M1880.75,126.3986 C1878.14,153.4586 1874.4267,191.8564 1871.8167,218.8864" fill="none" id="&#35746;&#21333;&#25511;&#21046;&#22120;-to-&#35746;&#21333;&#26381;&#21153;" style="stroke:#181818;stroke-width:1;"/><polygon fill="#181818" points="1871.24,224.8586,1876.0865,216.2847,1871.7206,219.8818,1868.1235,215.5158,1871.24,224.8586" style="stroke:#181818;stroke-width:1;"/></g><!--link ????? to ????--><g class="link" data-entity-1="ent0006" data-entity-2="ent0012" data-link-type="dependency" data-source-line="56" id="lnk44"><path codeLine="56" d="M2015.5,126.3986 C2010.28,153.4586 2002.8477,191.9375 1997.6277,218.9675" fill="none" id="&#28040;&#24687;&#25511;&#21046;&#22120;-to-&#28040;&#24687;&#26381;&#21153;" style="stroke:#181818;stroke-width:1;"/><polygon fill="#181818" points="1996.49,224.8586,2002.124,216.7804,1997.4381,219.9493,1994.2691,215.2634,1996.49,224.8586" style="stroke:#181818;stroke-width:1;"/></g><!--link ????? to ????--><g class="link" data-entity-1="ent0007" data-entity-2="ent0013" data-link-type="dependency" data-source-line="57" id="lnk45"><path codeLine="57" d="M2150.25,126.3986 C2142.41,153.4586 2131.2294,192.0656 2123.3994,219.0956" fill="none" id="&#31649;&#29702;&#25511;&#21046;&#22120;-to-&#31649;&#29702;&#26381;&#21153;" style="stroke:#181818;stroke-width:1;"/><polygon fill="#181818" points="2121.73,224.8586,2128.0762,217.327,2123.1212,220.0561,2120.3921,215.1011,2121.73,224.8586" style="stroke:#181818;stroke-width:1;"/></g><!--link ????? to ????--><g class="link" data-entity-1="ent0007" data-entity-2="ent0014" data-link-type="dependency" data-source-line="58" id="lnk46"><path codeLine="58" d="M2170.01,126.3986 C2185.13,153.4586 2206.9938,192.5906 2222.0938,219.6206" fill="none" id="&#31649;&#29702;&#25511;&#21046;&#22120;-to-&#21453;&#39304;&#26381;&#21153;" style="stroke:#181818;stroke-width:1;"/><polygon fill="#181818" points="2225.02,224.8586,2224.1228,215.0507,2222.5815,220.4936,2217.1387,218.9523,2225.02,224.8586" style="stroke:#181818;stroke-width:1;"/></g><!--link ???? to ????--><g class="link" data-entity-1="ent0009" data-entity-2="ent0030" data-link-type="dependency" data-source-line="60" id="lnk47"><path codeLine="60" d="M1701.9,251.0286 C1561.54,254.2786 1112.66,266.9986 743,303.0986 C714.85,305.8486 705.1,299.0586 680,312.0986 C661.03,321.9586 648.3387,335.1827 637.2087,349.9027" fill="none" id="&#35748;&#35777;&#26381;&#21153;-to-&#29992;&#25143;&#20179;&#24211;" style="stroke:#181818;stroke-width:1;"/><polygon fill="#181818" points="633.59,354.6886,642.2087,349.9222,636.6056,350.7004,635.8274,345.0973,633.59,354.6886" style="stroke:#181818;stroke-width:1;"/></g><!--link ???? to ????--><g class="link" data-entity-1="ent0010" data-entity-2="ent0031" data-link-type="dependency" data-source-line="61" id="lnk48"><path codeLine="61" d="M2316.79,268.4386 C2310.89,270.3086 2304.86,271.9386 2299,273.0986 C2291.32,274.6186 1179.13,308.8686 1172,312.0986 C1152.24,321.0586 1139.2962,334.6841 1128.3062,349.8141" fill="none" id="&#21830;&#21697;&#26381;&#21153;-to-&#21830;&#21697;&#20179;&#24211;" style="stroke:#181818;stroke-width:1;"/><polygon fill="#181818" points="1124.78,354.6686,1133.3056,349.7377,1127.7185,350.6232,1126.8329,345.0361,1124.78,354.6686" style="stroke:#181818;stroke-width:1;"/></g><!--link ???? to ????--><g class="link" data-entity-1="ent0010" data-entity-2="ent0036" data-link-type="dependency" data-source-line="62" id="lnk49"><path codeLine="62" d="M2316.73,268.1186 C2310.84,270.0486 2304.82,271.7786 2299,273.0986 C2151.02,306.6686 2110.51,295.7486 1959,304.0986 C1935.81,305.3786 1562.23,302.6686 1541,312.0986 C1521.03,320.9686 1507.9752,334.789 1497.0052,350.029" fill="none" id="&#21830;&#21697;&#26381;&#21153;-to-&#20030;&#25253;&#20179;&#24211;" style="stroke:#181818;stroke-width:1;"/><polygon fill="#181818" points="1493.5,354.8986,1502.0043,349.931,1496.421,350.8406,1495.5114,345.2574,1493.5,354.8986" style="stroke:#181818;stroke-width:1;"/></g><!--link ???? to ????--><g class="link" data-entity-1="ent0010" data-entity-2="ent0037" data-link-type="dependency" data-source-line="63" id="lnk50"><path codeLine="63" d="M2316.77,267.8186 C2281.49,280.9186 2230.45,297.5686 2184,304.0986 C2156.6,307.9486 1712.08,302.8486 1686,312.0986 C1661.71,320.7186 1643.319,335.2428 1627.669,350.5528" fill="none" id="&#21830;&#21697;&#26381;&#21153;-to-&#25910;&#34255;&#20179;&#24211;" style="stroke:#181818;stroke-width:1;"/><polygon fill="#181818" points="1623.38,354.7486,1632.6107,351.3143,1626.9541,351.2521,1627.0163,345.5956,1623.38,354.7486" style="stroke:#181818;stroke-width:1;"/></g><!--link ???? to ????--><g class="link" data-entity-1="ent0010" data-entity-2="ent0038" data-link-type="dependency" data-source-line="64" id="lnk51"><path codeLine="64" d="M2316.79,268.4086 C2310.89,270.2886 2304.85,271.9286 2299,273.0986 C2292.16,274.4686 1301.35,309.2086 1295,312.0986 C1275.26,321.0986 1262.3198,334.7268 1251.3198,349.8468" fill="none" id="&#21830;&#21697;&#26381;&#21153;-to-&#36890;&#30693;&#20179;&#24211;" style="stroke:#181818;stroke-width:1;"/><polygon fill="#181818" points="1247.79,354.6986,1256.3193,349.774,1250.7315,350.6554,1249.8501,345.0676,1247.79,354.6986" style="stroke:#181818;stroke-width:1;"/></g><!--link ???? to ????--><g class="link" data-entity-1="ent0010" data-entity-2="ent0015" data-link-type="dependency" data-source-line="65" id="lnk52"><path codeLine="65" d="M2361,273.5786 C2361,296.6686 2361,325.7286 2361,348.7686" fill="none" id="&#21830;&#21697;&#26381;&#21153;-to-&#25991;&#20214;&#26381;&#21153;" style="stroke:#181818;stroke-width:1;"/><polygon fill="#181818" points="2361,354.7686,2365,345.7686,2361,349.7686,2357,345.7686,2361,354.7686" style="stroke:#181818;stroke-width:1;"/></g><!--link ???? to ????--><g class="link" data-entity-1="ent0011" data-entity-2="ent0032" data-link-type="dependency" data-source-line="66" id="lnk53"><path codeLine="66" d="M1824.78,268.3686 C1818.88,270.2486 1812.85,271.9086 1807,273.0986 C1666.83,301.6486 1306.77,294.1886 1164,303.0986 C1112.83,306.2986 1095.22,289.9186 1049,312.0986 C1029.58,321.4186 1016.7543,334.832 1005.7143,349.782" fill="none" id="&#35746;&#21333;&#26381;&#21153;-to-&#35746;&#21333;&#20179;&#24211;" style="stroke:#181818;stroke-width:1;"/><polygon fill="#181818" points="1002.15,354.6086,1010.7141,349.7449,1005.1202,350.5865,1004.2787,344.9926,1002.15,354.6086" style="stroke:#181818;stroke-width:1;"/></g><!--link ???? to ????--><g class="link" data-entity-1="ent0011" data-entity-2="ent0031" data-link-type="dependency" data-source-line="67" id="lnk54"><path codeLine="67" d="M1824.78,268.3686 C1818.88,270.2486 1812.85,271.9086 1807,273.0986 C1668.58,301.3286 1298.36,239.9286 1172,303.0986 C1149.79,314.2086 1135.724,332.1419 1125.154,349.7819" fill="none" id="&#35746;&#21333;&#26381;&#21153;-to-&#21830;&#21697;&#20179;&#24211;" style="stroke:#181818;stroke-width:1;"/><polygon fill="#181818" points="1122.07,354.9286,1130.1271,349.2645,1124.64,350.6397,1123.2648,345.1525,1122.07,354.9286" style="stroke:#181818;stroke-width:1;"/></g><!--link ???? to ????--><g class="link" data-entity-1="ent0011" data-entity-2="ent0035" data-link-type="dependency" data-source-line="68" id="lnk55"><path codeLine="68" d="M1824.8,268.4686 C1818.9,270.3386 1812.86,271.9586 1807,273.0986 C1579.17,317.3786 994.94,294.6986 763,303.0986 C671.42,306.4186 640.29,273.8786 557,312.0986 C537.28,321.1486 524.3413,334.7679 513.3413,349.8779" fill="none" id="&#35746;&#21333;&#26381;&#21153;-to-&#35780;&#20215;&#20179;&#24211;" style="stroke:#181818;stroke-width:1;"/><polygon fill="#181818" points="509.81,354.7286,518.3408,349.8067,512.7528,350.6863,511.8731,345.0983,509.81,354.7286" style="stroke:#181818;stroke-width:1;"/></g><!--link ???? to ????--><g class="link" data-entity-1="ent0011" data-entity-2="ent0030" data-link-type="dependency" data-source-line="69" id="lnk56"><path codeLine="69" d="M1824.8,268.4586 C1818.9,270.3286 1812.86,271.9586 1807,273.0986 C1585.95,316.1686 1018.88,290.8986 794,303.0986 C781.31,303.7886 691.45,306.5986 680,312.0986 C660.58,321.4186 647.7543,334.842 636.7143,349.792" fill="none" id="&#35746;&#21333;&#26381;&#21153;-to-&#29992;&#25143;&#20179;&#24211;" style="stroke:#181818;stroke-width:1;"/><polygon fill="#181818" points="633.15,354.6186,641.7141,349.7549,636.1202,350.5965,635.2787,345.0026,633.15,354.6186" style="stroke:#181818;stroke-width:1;"/></g><!--link ???? to ????--><g class="link" data-entity-1="ent0011" data-entity-2="ent0038" data-link-type="dependency" data-source-line="70" id="lnk57"><path codeLine="70" d="M1824.75,268.2386 C1818.86,270.1386 1812.84,271.8386 1807,273.0986 C1695.46,297.1686 1397.13,261.1986 1295,312.0986 C1275.72,321.7086 1262.905,335.1174 1251.825,349.9874" fill="none" id="&#35746;&#21333;&#26381;&#21153;-to-&#36890;&#30693;&#20179;&#24211;" style="stroke:#181818;stroke-width:1;"/><polygon fill="#181818" points="1248.24,354.7986,1256.8249,349.9718,1251.2275,350.7893,1250.41,345.1918,1248.24,354.7986" style="stroke:#181818;stroke-width:1;"/></g><!--link ???? to ????--><g class="link" data-entity-1="ent0012" data-entity-2="ent0034" data-link-type="dependency" data-source-line="71" id="lnk58"><path codeLine="71" d="M1947.8,268.4586 C1941.9,270.3286 1935.86,271.9586 1930,273.0986 C1715.94,314.9086 1166.87,293.0586 949,303.0986 C916.53,304.5986 832.42,298.2786 803,312.0986 C783.36,321.3186 770.4232,334.9365 759.4032,349.9965" fill="none" id="&#28040;&#24687;&#26381;&#21153;-to-&#20250;&#35805;&#20179;&#24211;" style="stroke:#181818;stroke-width:1;"/><polygon fill="#181818" points="755.86,354.8386,764.4028,349.9376,758.8126,350.8035,757.9467,345.2134,755.86,354.8386" style="stroke:#181818;stroke-width:1;"/></g><!--link ???? to ????--><g class="link" data-entity-1="ent0012" data-entity-2="ent0033" data-link-type="dependency" data-source-line="72" id="lnk59"><path codeLine="72" d="M1947.79,268.4086 C1941.89,270.2886 1935.85,271.9286 1930,273.0986 C1820.52,294.9486 1027.58,265.7886 926,312.0986 C906.26,321.0986 893.3198,334.7268 882.3198,349.8468" fill="none" id="&#28040;&#24687;&#26381;&#21153;-to-&#28040;&#24687;&#20179;&#24211;" style="stroke:#181818;stroke-width:1;"/><polygon fill="#181818" points="878.79,354.6986,887.3193,349.774,881.7315,350.6554,880.8501,345.0676,878.79,354.6986" style="stroke:#181818;stroke-width:1;"/></g><!--link ???? to ????--><g class="link" data-entity-1="ent0012" data-entity-2="ent0031" data-link-type="dependency" data-source-line="73" id="lnk60"><path codeLine="73" d="M1947.78,268.3686 C1941.88,270.2486 1935.85,271.9086 1930,273.0986 C1789.18,301.7686 1427.42,294.0086 1284,303.0986 C1234.16,306.2586 1217,290.4486 1172,312.0986 C1152.59,321.4386 1139.7663,334.8536 1128.7163,349.8036" fill="none" id="&#28040;&#24687;&#26381;&#21153;-to-&#21830;&#21697;&#20179;&#24211;" style="stroke:#181818;stroke-width:1;"/><polygon fill="#181818" points="1125.15,354.6286,1133.7162,349.7686,1128.122,350.6078,1127.2828,345.0135,1125.15,354.6286" style="stroke:#181818;stroke-width:1;"/></g><!--link ???? to ????--><g class="link" data-entity-1="ent0012" data-entity-2="ent0030" data-link-type="dependency" data-source-line="74" id="lnk61"><path codeLine="74" d="M1947.8,268.4786 C1941.9,270.3386 1935.86,271.9586 1930,273.0986 C1692.55,319.1086 1083.66,293.0586 842,303.0986 C832.99,303.4686 688.17,308.2886 680,312.0986 C660.34,321.2586 647.3895,334.8839 636.3795,349.9539" fill="none" id="&#28040;&#24687;&#26381;&#21153;-to-&#29992;&#25143;&#20179;&#24211;" style="stroke:#181818;stroke-width:1;"/><polygon fill="#181818" points="632.84,354.7986,641.3791,349.8912,635.7896,350.7613,634.9195,345.1718,632.84,354.7986" style="stroke:#181818;stroke-width:1;"/></g><!--link ???? to ????--><g class="link" data-entity-1="ent0013" data-entity-2="ent0030" data-link-type="dependency" data-source-line="75" id="lnk62"><path codeLine="75" d="M2070.8,268.4686 C2064.9,270.3386 2058.86,271.9586 2053,273.0986 C2034.27,276.7386 697.4,304.2786 680,312.0986 C660.21,320.9986 647.261,334.6204 636.281,349.7704" fill="none" id="&#31649;&#29702;&#26381;&#21153;-to-&#29992;&#25143;&#20179;&#24211;" style="stroke:#181818;stroke-width:1;"/><polygon fill="#181818" points="632.76,354.6286,641.2803,349.6886,635.6942,350.5801,634.8027,344.9939,632.76,354.6286" style="stroke:#181818;stroke-width:1;"/></g><!--link ???? to ????--><g class="link" data-entity-1="ent0013" data-entity-2="ent0031" data-link-type="dependency" data-source-line="76" id="lnk63"><path codeLine="76" d="M2070.78,268.3786 C2064.88,270.2586 2058.85,271.9186 2053,273.0986 C2041,275.5286 1183.13,306.9886 1172,312.0986 C1152.28,321.1486 1139.3413,334.7679 1128.3413,349.8779" fill="none" id="&#31649;&#29702;&#26381;&#21153;-to-&#21830;&#21697;&#20179;&#24211;" style="stroke:#181818;stroke-width:1;"/><polygon fill="#181818" points="1124.81,354.7286,1133.3408,349.8067,1127.7528,350.6863,1126.8731,345.0983,1124.81,354.7286" style="stroke:#181818;stroke-width:1;"/></g><!--link ???? to ????--><g class="link" data-entity-1="ent0013" data-entity-2="ent0032" data-link-type="dependency" data-source-line="77" id="lnk64"><path codeLine="77" d="M2070.79,268.4086 C2064.89,270.2886 2058.85,271.9286 2053,273.0986 C1943.52,294.9486 1150.58,265.7886 1049,312.0986 C1029.26,321.0986 1016.3198,334.7268 1005.3198,349.8468" fill="none" id="&#31649;&#29702;&#26381;&#21153;-to-&#35746;&#21333;&#20179;&#24211;" style="stroke:#181818;stroke-width:1;"/><polygon fill="#181818" points="1001.79,354.6986,1010.3193,349.774,1004.7315,350.6554,1003.8501,345.0676,1001.79,354.6986" style="stroke:#181818;stroke-width:1;"/></g><!--link ???? to ????--><g class="link" data-entity-1="ent0013" data-entity-2="ent0036" data-link-type="dependency" data-source-line="78" id="lnk65"><path codeLine="78" d="M2070.74,268.2086 C2064.85,270.1186 2058.83,271.8186 2053,273.0986 C1941.54,297.5086 1643.93,262.8386 1541,312.0986 C1521.57,321.3986 1508.7443,334.822 1497.7043,349.772" fill="none" id="&#31649;&#29702;&#26381;&#21153;-to-&#20030;&#25253;&#20179;&#24211;" style="stroke:#181818;stroke-width:1;"/><polygon fill="#181818" points="1494.14,354.5986,1502.7041,349.7349,1497.1102,350.5765,1496.2687,344.9826,1494.14,354.5986" style="stroke:#181818;stroke-width:1;"/></g><!--link ???? to ????--><g class="link" data-entity-1="ent0013" data-entity-2="ent0038" data-link-type="dependency" data-source-line="79" id="lnk66"><path codeLine="79" d="M2070.77,268.3486 C2064.88,270.2286 2058.85,271.8986 2053,273.0986 C1793.65,326.4286 1722.41,289.1286 1458,303.0986 C1439.89,304.0586 1311.44,304.4386 1295,312.0986 C1275.33,321.2586 1262.388,334.8728 1251.378,349.9528" fill="none" id="&#31649;&#29702;&#26381;&#21153;-to-&#36890;&#30693;&#20179;&#24211;" style="stroke:#181818;stroke-width:1;"/><polygon fill="#181818" points="1247.84,354.7986,1256.3776,349.8885,1250.7883,350.7604,1249.9164,345.1711,1247.84,354.7986" style="stroke:#181818;stroke-width:1;"/></g><!--link ???? to ????--><g class="link" data-entity-1="ent0014" data-entity-2="ent0039" data-link-type="dependency" data-source-line="80" id="lnk67"><path codeLine="80" d="M2193.77,268.3386 C2187.88,270.2286 2181.85,271.8886 2176,273.0986 C2134.7,281.6086 1456.26,294.3686 1418,312.0986 C1398.32,321.2186 1385.378,334.8428 1374.368,349.9228" fill="none" id="&#21453;&#39304;&#26381;&#21153;-to-&#21453;&#39304;&#20179;&#24211;" style="stroke:#181818;stroke-width:1;"/><polygon fill="#181818" points="1370.83,354.7686,1379.3676,349.8585,1373.7783,350.7304,1372.9064,345.1411,1370.83,354.7686" style="stroke:#181818;stroke-width:1;"/></g><!--reverse link ?? to ??--><g class="link" data-entity-1="ent0017" data-entity-2="ent0018" data-link-type="dependency" data-source-line="82" id="lnk68"><path codeLine="82" d="M249,132.3986 C249,159.4586 249,197.8286 249,224.8586" fill="none" id="&#29992;&#25143;-backto-&#21830;&#21697;" style="stroke:#181818;stroke-width:1;"/><polygon fill="#181818" points="249,126.3986,245,135.3986,249,131.3986,253,135.3986,249,126.3986" style="stroke:#181818;stroke-width:1;"/><text fill="#000000" font-family="sans-serif" font-size="13" lengthAdjust="spacing" textLength="26" x="250" y="171.2925">&#21334;&#23478;</text><text fill="#000000" font-family="sans-serif" font-size="13" lengthAdjust="spacing" textLength="7.23" x="241.1749" y="146.3375">1</text><text fill="#000000" font-family="sans-serif" font-size="13" lengthAdjust="spacing" textLength="5.0591" x="243.3052" y="214.3996">*</text></g><!--reverse link ?? to ????--><g class="link" data-entity-1="ent0018" data-entity-2="ent0019" data-link-type="dependency" data-source-line="83" id="lnk69"><path codeLine="83" d="M250.6095,279.5696 C251.8795,302.6596 253.46,331.7286 254.72,354.7686" fill="none" id="&#21830;&#21697;-backto-&#21830;&#21697;&#22270;&#29255;" style="stroke:#181818;stroke-width:1;"/><polygon fill="#181818" points="250.28,273.5786,246.7803,282.7847,250.5546,278.5711,254.7682,282.3454,250.28,273.5786" style="stroke:#181818;stroke-width:1;"/><text fill="#000000" font-family="sans-serif" font-size="13" lengthAdjust="spacing" textLength="7.23" x="242.7932" y="293.1619">1</text><text fill="#000000" font-family="sans-serif" font-size="13" lengthAdjust="spacing" textLength="5.0591" x="248.6652" y="344.2843">*</text></g><!--reverse link ?? to ??--><g class="link" data-entity-1="ent0018" data-entity-2="ent0020" data-link-type="dependency" data-source-line="84" id="lnk70"><path codeLine="84" d="M281.5279,277.2969 C294.2979,288.4569 304.75,298.4086 317,312.0986 C328.91,325.3986 340.72,341.5986 349.65,354.6186" fill="none" id="&#21830;&#21697;-backto-&#35746;&#21333;" style="stroke:#181818;stroke-width:1;"/><polygon fill="#181818" points="277.01,273.3486,281.1546,282.283,280.7749,276.6389,286.419,276.2591,277.01,273.3486" style="stroke:#181818;stroke-width:1;"/><text fill="#000000" font-family="sans-serif" font-size="13" lengthAdjust="spacing" textLength="7.23" x="276.0124" y="293.2753">1</text><text fill="#000000" font-family="sans-serif" font-size="13" lengthAdjust="spacing" textLength="5.0591" x="339.8608" y="344.4797">*</text></g><!--reverse link ?? to ??--><g class="link" data-entity-1="ent0021" data-entity-2="ent0022" data-link-type="dependency" data-source-line="85" id="lnk71"><path codeLine="85" d="M354,132.3986 C354,159.4586 354,197.8286 354,224.8586" fill="none" id="&#20250;&#35805;-backto-&#28040;&#24687;" style="stroke:#181818;stroke-width:1;"/><polygon fill="#181818" points="354,126.3986,350,135.3986,354,131.3986,358,135.3986,354,126.3986" style="stroke:#181818;stroke-width:1;"/><text fill="#000000" font-family="sans-serif" font-size="13" lengthAdjust="spacing" textLength="7.23" x="346.1749" y="146.3375">1</text><text fill="#000000" font-family="sans-serif" font-size="13" lengthAdjust="spacing" textLength="5.0591" x="348.3052" y="214.3996">*</text></g><!--reverse link ?? to ??--><g class="link" data-entity-1="ent0020" data-entity-2="ent0023" data-link-type="dependency" data-source-line="86" id="lnk72"><path codeLine="86" d="M365,409.4786 C365,427.8686 365,447.3686 365,465.7586" fill="none" id="&#35746;&#21333;-backto-&#35780;&#20215;" style="stroke:#181818;stroke-width:1;"/><polygon fill="#181818" points="365,403.4786,361,412.4786,365,408.4786,369,412.4786,365,403.4786" style="stroke:#181818;stroke-width:1;"/><text fill="#000000" font-family="sans-serif" font-size="13" lengthAdjust="spacing" textLength="7.23" x="357.1749" y="423.437">1</text><text fill="#000000" font-family="sans-serif" font-size="13" lengthAdjust="spacing" textLength="5.0591" x="359.3052" y="455.2715">*</text></g><!--reverse link ?? to ??--><g class="link" data-entity-1="ent0018" data-entity-2="ent0024" data-link-type="dependency" data-source-line="87" id="lnk73"><path codeLine="87" d="M223.746,278.015 C213.596,289.445 205.41,299.0386 195,312.0986 C183.97,325.9486 172.26,342.0086 163.17,354.8186" fill="none" id="&#21830;&#21697;-backto-&#20030;&#25253;" style="stroke:#181818;stroke-width:1;"/><polygon fill="#181818" points="227.73,273.5286,218.7631,277.6022,224.41,277.2673,224.745,282.9142,227.73,273.5286" style="stroke:#181818;stroke-width:1;"/><text fill="#000000" font-family="sans-serif" font-size="13" lengthAdjust="spacing" textLength="7.23" x="215.0285" y="293.1004">1</text><text fill="#000000" font-family="sans-serif" font-size="13" lengthAdjust="spacing" textLength="5.0591" x="162.023" y="344.3484">*</text></g><!--reverse link ?? to ??--><g class="link" data-entity-1="ent0017" data-entity-2="ent0025" data-link-type="dependency" data-source-line="88" id="lnk74"><path codeLine="88" d="M228.7062,131.4265 C191.4962,183.3765 105.93,302.8086 68.75,354.7086" fill="none" id="&#29992;&#25143;-backto-&#25910;&#34255;" style="stroke:#181818;stroke-width:1;"/><polygon fill="#181818" points="232.2,126.5486,223.7074,131.5362,229.2885,130.6135,230.2112,136.1946,232.2,126.5486" style="stroke:#181818;stroke-width:1;"/><text fill="#000000" font-family="sans-serif" font-size="13" lengthAdjust="spacing" textLength="7.23" x="220.5322" y="146.125">1</text><text fill="#000000" font-family="sans-serif" font-size="13" lengthAdjust="spacing" textLength="5.0591" x="67.7661" y="344.2075">*</text></g><!--reverse link ?? to ??--><g class="link" data-entity-1="ent0018" data-entity-2="ent0025" data-link-type="dependency" data-source-line="89" id="lnk75"><path codeLine="89" d="M218.9072,277.3192 C205.2372,288.5092 192.13,297.1486 174,304.0986 C143.11,315.9286 128.63,295.5186 100,312.0986 C83.2,321.8286 70.64,340.0386 62.58,354.8786" fill="none" id="&#21830;&#21697;-backto-&#25910;&#34255;" style="stroke:#181818;stroke-width:1;"/><polygon fill="#181818" points="223.55,273.5186,214.0521,276.1242,219.681,276.6857,219.1194,282.3147,223.55,273.5186" style="stroke:#181818;stroke-width:1;"/><text fill="#000000" font-family="sans-serif" font-size="13" lengthAdjust="spacing" textLength="7.23" x="209.5215" y="293.4867">1</text><text fill="#000000" font-family="sans-serif" font-size="13" lengthAdjust="spacing" textLength="5.0591" x="59.8608" y="344.4253">*</text></g><?plantuml-src ZPHBIyD04CVl-HHBZa91hoA2Hs-2Ve5OemPhbIOYA88lQXHYXLh5-gpuEgKg68lryMMoIVejBDabsTaTmMFcDpFvpslj1QkyR5ICHMBF6pDBgrPvZimQ9TlKx8mKIuPjZpbEnPfUSSpnub9vqbepoQ2cEPPJCidKn2I9RZhqPoT-wTBpRqrRDeeBnfn9zEZmaRe1FNkYBziwMTS8IqOI_ovfRsKqizD6bTOHU-BVKg-XsgF0ZRRQgZtsM_5HDRTl29h2JfCUj7115ruVoMgWaKk1Hgu36ha8AMVDwpsuSlZ9NjWDk57KIlshyAikQOsFdoBtNL8fVVR74E_lIQApp_2pcRGl9VMvStitxERvmyvtT72VEny7oMaj--njDkFhUwcytFcjbZowzB1AQw-WiAZn77b-ul_qJlsiFAlic9LPesZo4iDkdNxK0M3L8O1LY01M709O4x1KQVrOHDe9x1zfJn30keFLaVQ9WtvZf8CWXS8et4dfCb87i9-O0zWhwORuBuHbbew9PH0NMxggr04iEUO05buJQsBnugJ5WeGA_w9W7We5Gr4ec8mQYpGkfs3N50eqgx7YSYaKT4EXGBCu6TODSPyL2iv0eK2pGe4gSU3_e22pGa4d5Ghcgr0uGM7BXBNZL6CQYJwaav52WUW3EXT6XWdrJgWVy1r0NFXJYd3-ghB60y9VLEO0OzZZYcJZxomYbJ-vI0mdlm00?></g></svg>