<?plantuml 1.2026.1?><svg xmlns="http://www.w3.org/2000/svg" xmlns:xlink="http://www.w3.org/1999/xlink" contentStyleType="text/css" data-diagram-type="STATE" height="816px" preserveAspectRatio="none" style="width:658px;height:816px;background:#FFFFFF;" version="1.1" viewBox="0 0 658 816" width="658px" zoomAndPan="magnify"><title>&#35746;&#21333;&#29366;&#24577;&#22270;</title><defs/><g><g class="title" data-source-line="3"><text fill="#000000" font-family="sans-serif" font-size="14" font-weight="bold" lengthAdjust="spacing" textLength="69.9997" x="287.4143" y="23.1318">&#35746;&#21333;&#29366;&#24577;&#22270;</text></g><ellipse cx="400" cy="53.0986" fill="#222222" rx="10" ry="10" style="stroke:#222222;stroke-width:1;"/><g><rect fill="#F1F1F1" height="50" rx="12.5" ry="12.5" style="stroke:#181818;stroke-width:0.5;" width="61.9998" x="369" y="139.0986"/><line style="stroke:#181818;stroke-width:0.5;" x1="369" x2="430.9998" y1="165.1973" y2="165.1973"/><text fill="#000000" font-family="sans-serif" font-size="14" lengthAdjust="spacing" textLength="41.9998" x="379" y="157.2305">&#24453;&#20184;&#27454;</text></g><g><rect fill="#F1F1F1" height="50" rx="12.5" ry="12.5" style="stroke:#181818;stroke-width:0.5;" width="61.9998" x="303" y="265.0986"/><line style="stroke:#181818;stroke-width:0.5;" x1="303" x2="364.9998" y1="291.1973" y2="291.1973"/><text fill="#000000" font-family="sans-serif" font-size="14" lengthAdjust="spacing" textLength="41.9998" x="313" y="283.2305">&#24050;&#20184;&#27454;</text></g><g><rect fill="#F1F1F1" height="50" rx="12.5" ry="12.5" style="stroke:#181818;stroke-width:0.5;" width="61.9998" x="431" y="345.0986"/><line style="stroke:#181818;stroke-width:0.5;" x1="431" x2="492.9998" y1="371.1973" y2="371.1973"/><text fill="#000000" font-family="sans-serif" font-size="14" lengthAdjust="spacing" textLength="41.9998" x="441" y="363.2305">&#24050;&#21462;&#28040;</text></g><g><rect fill="#F1F1F1" height="50" rx="12.5" ry="12.5" style="stroke:#181818;stroke-width:0.5;" width="61.9998" x="200" y="425.0986"/><line style="stroke:#181818;stroke-width:0.5;" x1="200" x2="261.9998" y1="451.1973" y2="451.1973"/><text fill="#000000" font-family="sans-serif" font-size="14" lengthAdjust="spacing" textLength="41.9998" x="210" y="443.2305">&#24050;&#21457;&#36135;</text></g><g><rect fill="#F1F1F1" height="50" rx="12.5" ry="12.5" style="stroke:#181818;stroke-width:0.5;" width="61.9998" x="303" y="551.0986"/><line style="stroke:#181818;stroke-width:0.5;" x1="303" x2="364.9998" y1="577.1973" y2="577.1973"/><text fill="#000000" font-family="sans-serif" font-size="14" lengthAdjust="spacing" textLength="41.9998" x="313" y="569.2305">&#36864;&#27454;&#20013;</text></g><g><rect fill="#F1F1F1" height="50" rx="12.5" ry="12.5" style="stroke:#181818;stroke-width:0.5;" width="61.9998" x="7" y="551.0986"/><line style="stroke:#181818;stroke-width:0.5;" x1="7" x2="68.9998" y1="577.1973" y2="577.1973"/><text fill="#000000" font-family="sans-serif" font-size="14" lengthAdjust="spacing" textLength="41.9998" x="17" y="569.2305">&#24050;&#23436;&#25104;</text></g><g><rect fill="#F1F1F1" height="50" rx="12.5" ry="12.5" style="stroke:#181818;stroke-width:0.5;" width="61.9998" x="265" y="677.0986"/><line style="stroke:#181818;stroke-width:0.5;" x1="265" x2="326.9998" y1="703.1973" y2="703.1973"/><text fill="#000000" font-family="sans-serif" font-size="14" lengthAdjust="spacing" textLength="41.9998" x="275" y="695.2305">&#24050;&#36864;&#27454;</text></g><ellipse cx="296" cy="799.0986" fill="none" rx="11" ry="11" style="stroke:#222222;stroke-width:1;"/><ellipse cx="296" cy="799.0986" fill="#222222" rx="6" ry="6" style="stroke:#222222;stroke-width:1;"/><g class="entity" data-qualified-name="GMN2" data-source-line="22" id="ent0003"><path d="M466.17,144.1486 L466.17,160.0986 L431.37,164.0986 L466.17,168.0986 L466.17,184.0461 A0,0 0 0 0 466.17,184.0461 L651.8284,184.0461 A0,0 0 0 0 651.8284,184.0461 L651.8284,154.1486 L641.8284,144.1486 L466.17,144.1486 A0,0 0 0 0 466.17,144.1486" fill="#FEFFDD" style="stroke:#181818;stroke-width:0.5;"/><path d="M641.8284,144.1486 L641.8284,154.1486 L651.8284,154.1486 L641.8284,144.1486" fill="#FEFFDD" style="stroke:#181818;stroke-width:0.5;"/><text fill="#000000" font-family="sans-serif" font-size="13" lengthAdjust="spacing" textLength="164.6584" x="472.17" y="161.3425">&#21830;&#21697;&#29366;&#24577;&#36890;&#24120;&#20808;&#21464;&#20026;&#8220;&#19979;&#26550;&#8221;&#65292;</text><text fill="#000000" font-family="sans-serif" font-size="13" lengthAdjust="spacing" textLength="91.0001" x="472.17" y="176.2912">&#36991;&#20813;&#34987;&#37325;&#22797;&#19979;&#21333;</text></g><g class="entity" data-qualified-name="GMN5" data-source-line="27" id="ent0006"><path d="M104,556.1486 L104,572.0986 L69.22,576.0986 L104,580.0986 L104,596.0461 A0,0 0 0 0 104,596.0461 L268.0002,596.0461 A0,0 0 0 0 268.0002,596.0461 L268.0002,566.1486 L258.0002,556.1486 L104,556.1486 A0,0 0 0 0 104,556.1486" fill="#FEFFDD" style="stroke:#181818;stroke-width:0.5;"/><path d="M258.0002,556.1486 L258.0002,566.1486 L268.0002,566.1486 L258.0002,556.1486" fill="#FEFFDD" style="stroke:#181818;stroke-width:0.5;"/><text fill="#000000" font-family="sans-serif" font-size="13" lengthAdjust="spacing" textLength="143.0002" x="110" y="573.3425">&#20132;&#26131;&#23436;&#25104;&#21518;&#21452;&#26041;&#21487;&#20114;&#35780;&#65292;</text><text fill="#000000" font-family="sans-serif" font-size="13" lengthAdjust="spacing" textLength="125.6583" x="110" y="588.2912">&#21830;&#21697;&#29366;&#24577;&#21464;&#20026;&#8220;&#24050;&#21806;&#20986;&#8221;</text></g><!--link *start* to ???--><g class="link" data-entity-1="ent0002" data-entity-2="ent0003" data-link-type="dependency" data-source-line="5" id="lnk4"><path d="M400,63.3886 C400,79.9686 400,109.1286 400,132.9486" fill="none" id="*start*-to-&#24453;&#20184;&#27454;" style="stroke:#181818;stroke-width:1;"/><polygon fill="#181818" points="400,138.9486,404,129.9486,400,133.9486,396,129.9486,400,138.9486" style="stroke:#181818;stroke-width:1;"/><text fill="#000000" font-family="sans-serif" font-size="13" lengthAdjust="spacing" textLength="52.0001" x="401" y="106.2925">&#21019;&#24314;&#35746;&#21333;</text></g><!--link ??? to ???--><g class="link" data-entity-1="ent0003" data-entity-2="ent0005" data-link-type="dependency" data-source-line="6" id="lnk6"><path d="M376.2,189.3786 C368.58,198.1786 360.66,208.5686 355,219.0986 C347.31,233.4086 343.456,245.0733 340.126,258.9933" fill="none" id="&#24453;&#20184;&#27454;-to-&#24050;&#20184;&#27454;" style="stroke:#181818;stroke-width:1;"/><polygon fill="#181818" points="338.73,264.8286,344.7142,257.0062,339.8933,259.9658,336.9337,255.145,338.73,264.8286" style="stroke:#181818;stroke-width:1;"/><text fill="#000000" font-family="sans-serif" font-size="13" lengthAdjust="spacing" textLength="52.0001" x="356" y="232.2925">&#20080;&#23478;&#25903;&#20184;</text></g><!--link ??? to ???--><g class="link" data-entity-1="ent0003" data-entity-2="ent0007" data-link-type="dependency" data-source-line="7" id="lnk8"><path d="M407.36,189.2986 C419.26,228.4586 440.8548,299.5281 452.8148,338.8681" fill="none" id="&#24453;&#20184;&#27454;-to-&#24050;&#21462;&#28040;" style="stroke:#181818;stroke-width:1;"/><polygon fill="#181818" points="454.56,344.6086,455.7692,334.8343,453.1056,339.8248,448.1151,337.1613,454.56,344.6086" style="stroke:#181818;stroke-width:1;"/><text fill="#000000" font-family="sans-serif" font-size="13" lengthAdjust="spacing" textLength="81.6119" x="421.56" y="232.2925">&#20080;&#23478;/&#21334;&#23478;&#21462;&#28040;</text></g><!--link ??? to ???--><g class="link" data-entity-1="ent0005" data-entity-2="ent0009" data-link-type="dependency" data-source-line="9" id="lnk10"><path d="M302.65,305.0086 C285.75,314.0786 265.97,327.4986 254,345.0986 C237.77,368.9486 233.1586,396.3606 231.7386,418.8206" fill="none" id="&#24050;&#20184;&#27454;-to-&#24050;&#21457;&#36135;" style="stroke:#181818;stroke-width:1;"/><polygon fill="#181818" points="231.36,424.8086,235.9199,416.079,231.6755,419.8186,227.9358,415.5742,231.36,424.8086" style="stroke:#181818;stroke-width:1;"/><text fill="#000000" font-family="sans-serif" font-size="13" lengthAdjust="spacing" textLength="52.0001" x="255" y="375.2925">&#21334;&#23478;&#21457;&#36135;</text></g><!--link ??? to ???--><g class="link" data-entity-1="ent0005" data-entity-2="ent0011" data-link-type="dependency" data-source-line="10" id="lnk12"><path d="M334,315.3086 C334,368.9686 334,491.3486 334,544.9486" fill="none" id="&#24050;&#20184;&#27454;-to-&#36864;&#27454;&#20013;" style="stroke:#181818;stroke-width:1;"/><polygon fill="#181818" points="334,550.9486,338,541.9486,334,545.9486,330,541.9486,334,550.9486" style="stroke:#181818;stroke-width:1;"/><text fill="#000000" font-family="sans-serif" font-size="13" lengthAdjust="spacing" textLength="78.0001" x="335" y="455.2925">&#20080;&#23478;&#30003;&#35831;&#36864;&#27454;</text></g><!--link ??? to ???--><g class="link" data-entity-1="ent0009" data-entity-2="ent0013" data-link-type="dependency" data-source-line="12" id="lnk14"><path d="M199.86,467.1886 C180.55,477.4586 155.43,491.3886 134,505.0986 C111.76,519.3286 92.5463,533.2104 74.1063,547.1504" fill="none" id="&#24050;&#21457;&#36135;-to-&#24050;&#23436;&#25104;" style="stroke:#181818;stroke-width:1;"/><polygon fill="#181818" points="69.32,550.7686,78.9116,548.5321,73.3086,547.7534,74.0872,542.1504,69.32,550.7686" style="stroke:#181818;stroke-width:1;"/><text fill="#000000" font-family="sans-serif" font-size="13" lengthAdjust="spacing" textLength="78.0001" x="135" y="518.2925">&#20080;&#23478;&#30830;&#35748;&#25910;&#36135;</text></g><!--link ??? to ???--><g class="link" data-entity-1="ent0009" data-entity-2="ent0011" data-link-type="dependency" data-source-line="13" id="lnk15"><path d="M223.53,475.4786 C220.64,489.7786 219.74,507.6186 228,521.0986 C228.55,521.9986 266.2797,541.0829 297.3397,556.7029" fill="none" id="&#24050;&#21457;&#36135;-to-&#36864;&#27454;&#20013;" style="stroke:#181818;stroke-width:1;"/><polygon fill="#181818" points="302.7,559.3986,296.4566,551.7815,298.2331,557.1522,292.8624,558.9286,302.7,559.3986" style="stroke:#181818;stroke-width:1;"/><text fill="#000000" font-family="sans-serif" font-size="13" lengthAdjust="spacing" textLength="78.0001" x="229" y="518.2925">&#20080;&#23478;&#30003;&#35831;&#36864;&#27454;</text></g><!--link ??? to ???--><g class="link" data-entity-1="ent0011" data-entity-2="ent0016" data-link-type="dependency" data-source-line="15" id="lnk17"><path d="M310.2,601.4586 C303.27,610.1186 296.6,620.3886 293,631.0986 C288.07,645.7386 287.9239,657.1386 289.8839,670.8986" fill="none" id="&#36864;&#27454;&#20013;-to-&#24050;&#36864;&#27454;" style="stroke:#181818;stroke-width:1;"/><polygon fill="#181818" points="290.73,676.8386,293.4209,667.3645,290.0249,671.8886,285.5008,668.4926,290.73,676.8386" style="stroke:#181818;stroke-width:1;"/><text fill="#000000" font-family="sans-serif" font-size="13" lengthAdjust="spacing" textLength="146.612" x="294" y="644.2925">&#21334;&#23478;&#21516;&#24847;&#36864;&#27454;/&#31649;&#29702;&#21592;&#25209;&#20934;</text></g><!--link ??? to *end*--><g class="link" data-entity-1="ent0007" data-entity-2="ent0018" data-link-type="dependency" data-source-line="17" id="lnk19"><path d="M463.39,395.5386 C464.87,423.6486 467,471.1886 467,512.0986 C467,512.0986 467,512.0986 467,703.0986 C467,776.4586 351.2336,793.0964 313.1936,796.6764" fill="none" id="&#24050;&#21462;&#28040;-to-*end*" style="stroke:#181818;stroke-width:1;"/><polygon fill="#181818" points="307.22,797.2386,316.5552,800.3778,312.198,796.7701,315.8056,792.413,307.22,797.2386" style="stroke:#181818;stroke-width:1;"/></g><!--link ??? to *end*--><g class="link" data-entity-1="ent0013" data-entity-2="ent0018" data-link-type="dependency" data-source-line="18" id="lnk20"><path d="M66.6,601.5986 C124.85,651.4886 250.0229,758.7157 283.4629,787.3557" fill="none" id="&#24050;&#23436;&#25104;-to-*end*" style="stroke:#181818;stroke-width:1;"/><polygon fill="#181818" points="288.02,791.2586,283.7864,782.3662,284.2224,788.0062,278.5824,788.4423,288.02,791.2586" style="stroke:#181818;stroke-width:1;"/></g><!--link ??? to *end*--><g class="link" data-entity-1="ent0016" data-entity-2="ent0018" data-link-type="dependency" data-source-line="19" id="lnk21"><path d="M296,727.5586 C296,747.1386 296,767.5886 296,781.8986" fill="none" id="&#24050;&#36864;&#27454;-to-*end*" style="stroke:#181818;stroke-width:1;"/><polygon fill="#181818" points="296,787.8986,300,778.8986,296,782.8986,292,778.8986,296,787.8986" style="stroke:#181818;stroke-width:1;"/></g><?plantuml-src XP7FJi9048Vl-nHxDY7SFVWYnaCJ2ZPYCT34QqduKxMrHGffH4mW91xKhL5JIZ7uBgIpRK--WYqjNI87JztzpTTl9ZkDCq6yuEhSEMwSSgNQfI1MS9chDdY4946gyZWaKz06mRL3vIQCLWWT7vpWGk48mwhjBotwiiA769GHBBqKHQommURlEUOlte0urBJZP1y3VKWT9SUAe0tZJveYn3mvtWi_dvBc6PTS_s2HBCT7tttDhO7v4ThpDDz8CyrMIbIg68oUa93CgEbawXtuFpMhP-eqOFCQActfQLWCo2GmEj2pwDK2kfriiCrp97_7JuxOS3j9vjmcIAn9FAuBbLC9ryfiGmW67UWtqoL6yZsuBhGLq2tVzTRoW-_Uq4TdBOz_lbGKDR-XhONJvwYhmKoBQybEUR644_bUY-rKoFTcrEgd5p1kGLVfS06wxNjteTrApBj3vBqJWKcW6v_7hCil?></g></svg>