<?plantuml 1.2026.1?><svg xmlns="http://www.w3.org/2000/svg" xmlns:xlink="http://www.w3.org/1999/xlink" contentStyleType="text/css" data-diagram-type="DESCRIPTION" height="634px" preserveAspectRatio="none" style="width:1178px;height:634px;background:#FFFFFF;" version="1.1" viewBox="0 0 1178 634" width="1178px" zoomAndPan="magnify"><title>TPS &#23433;&#21331;&#39029;&#38754;&#23548;&#33322;&#22270;</title><defs/><g><g class="title" data-source-line="4"><text fill="#000000" font-family="sans-serif" font-size="14" font-weight="bold" lengthAdjust="spacing" textLength="129.1168" x="517.4416" y="23.1318">TPS &#23433;&#21331;&#39029;&#38754;&#23548;&#33322;&#22270;</text></g><!--cluster ????--><g class="cluster" data-qualified-name="...." data-source-line="6" id="ent0002"><rect fill="none" height="240.19" rx="2.5" ry="2.5" style="stroke:#181818;stroke-width:1;" width="228" x="7" y="44.0986"/><text fill="#000000" font-family="sans-serif" font-size="14" font-weight="bold" lengthAdjust="spacing" textLength="55.9998" x="93.0001" y="59.2305">&#21551;&#21160;&#20837;&#21475;</text></g><!--cluster ???????--><g class="cluster" data-qualified-name="......." data-source-line="11" id="ent0005"><rect fill="none" height="97.09" rx="2.5" ry="2.5" style="stroke:#181818;stroke-width:1;" width="418" x="754" y="187.1986"/><text fill="#000000" font-family="sans-serif" font-size="14" font-weight="bold" lengthAdjust="spacing" textLength="97.9996" x="914.0002" y="202.3305">&#26222;&#36890;&#29992;&#25143;&#20027;&#30028;&#38754;</text></g><!--cluster ???????--><g class="cluster" data-qualified-name="......." data-source-line="17" id="ent0009"><rect fill="none" height="311.3" rx="2.5" ry="2.5" style="stroke:#181818;stroke-width:1;" width="666" x="429" y="317.2886"/><text fill="#000000" font-family="sans-serif" font-size="14" font-weight="bold" lengthAdjust="spacing" textLength="97.9996" x="713.0002" y="332.4205">&#26222;&#36890;&#29992;&#25143;&#21151;&#33021;&#39029;</text></g><!--cluster ??????--><g class="cluster" data-qualified-name="......" data-source-line="27" id="ent0017"><rect fill="none" height="441.39" rx="2.5" ry="2.5" style="stroke:#181818;stroke-width:1;" width="146" x="259" y="187.1986"/><text fill="#000000" font-family="sans-serif" font-size="14" font-weight="bold" lengthAdjust="spacing" textLength="83.9996" x="290.0002" y="202.3305">&#31649;&#29702;&#21592;&#20027;&#30028;&#38754;</text></g><!--entity ???--><g class="entity" data-qualified-name="........" data-source-line="7" id="ent0003"><rect fill="#F1F1F1" height="46.0986" rx="2.5" ry="2.5" style="stroke:#181818;stroke-width:0.5;" width="81.9998" x="117" y="79.0986"/><rect fill="#F1F1F1" height="10" style="stroke:#181818;stroke-width:0.5;" width="15" x="178.9998" y="84.0986"/><rect fill="#F1F1F1" height="2" style="stroke:#181818;stroke-width:0.5;" width="4" x="176.9998" y="86.0986"/><rect fill="#F1F1F1" height="2" style="stroke:#181818;stroke-width:0.5;" width="4" x="176.9998" y="90.0986"/><text fill="#000000" font-family="sans-serif" font-size="14" lengthAdjust="spacing" textLength="41.9998" x="132" y="112.2305">&#30331;&#24405;&#39029;</text></g><!--entity ???--><g class="entity" data-qualified-name="........" data-source-line="8" id="ent0004"><rect fill="#F1F1F1" height="46.0986" rx="2.5" ry="2.5" style="stroke:#181818;stroke-width:0.5;" width="81.9998" x="60" y="222.1986"/><rect fill="#F1F1F1" height="10" style="stroke:#181818;stroke-width:0.5;" width="15" x="121.9998" y="227.1986"/><rect fill="#F1F1F1" height="2" style="stroke:#181818;stroke-width:0.5;" width="4" x="119.9998" y="229.1986"/><rect fill="#F1F1F1" height="2" style="stroke:#181818;stroke-width:0.5;" width="4" x="119.9998" y="233.1986"/><text fill="#000000" font-family="sans-serif" font-size="14" lengthAdjust="spacing" textLength="41.9998" x="75" y="255.3305">&#27880;&#20876;&#39029;</text></g><!--entity ??????--><g class="entity" data-qualified-name=".............." data-source-line="12" id="ent0006"><rect fill="#F1F1F1" height="46.0986" rx="2.5" ry="2.5" style="stroke:#181818;stroke-width:0.5;" width="123.9996" x="901" y="222.1986"/><rect fill="#F1F1F1" height="10" style="stroke:#181818;stroke-width:0.5;" width="15" x="1004.9996" y="227.1986"/><rect fill="#F1F1F1" height="2" style="stroke:#181818;stroke-width:0.5;" width="4" x="1002.9996" y="229.1986"/><rect fill="#F1F1F1" height="2" style="stroke:#181818;stroke-width:0.5;" width="4" x="1002.9996" y="233.1986"/><text fill="#000000" font-family="sans-serif" font-size="14" lengthAdjust="spacing" textLength="83.9996" x="916" y="255.3305">&#39318;&#39029;&#21830;&#21697;&#21015;&#34920;</text></g><!--entity ????--><g class="entity" data-qualified-name="............" data-source-line="13" id="ent0007"><rect fill="#F1F1F1" height="46.0986" rx="2.5" ry="2.5" style="stroke:#181818;stroke-width:0.5;" width="95.9998" x="1060" y="222.1986"/><rect fill="#F1F1F1" height="10" style="stroke:#181818;stroke-width:0.5;" width="15" x="1135.9998" y="227.1986"/><rect fill="#F1F1F1" height="2" style="stroke:#181818;stroke-width:0.5;" width="4" x="1133.9998" y="229.1986"/><rect fill="#F1F1F1" height="2" style="stroke:#181818;stroke-width:0.5;" width="4" x="1133.9998" y="233.1986"/><text fill="#000000" font-family="sans-serif" font-size="14" lengthAdjust="spacing" textLength="55.9998" x="1075" y="255.3305">&#28040;&#24687;&#21015;&#34920;</text></g><!--entity ????--><g class="entity" data-qualified-name="............" data-source-line="14" id="ent0008"><rect fill="#F1F1F1" height="46.0986" rx="2.5" ry="2.5" style="stroke:#181818;stroke-width:0.5;" width="95.9998" x="770" y="222.1986"/><rect fill="#F1F1F1" height="10" style="stroke:#181818;stroke-width:0.5;" width="15" x="845.9998" y="227.1986"/><rect fill="#F1F1F1" height="2" style="stroke:#181818;stroke-width:0.5;" width="4" x="843.9998" y="229.1986"/><rect fill="#F1F1F1" height="2" style="stroke:#181818;stroke-width:0.5;" width="4" x="843.9998" y="233.1986"/><text fill="#000000" font-family="sans-serif" font-size="14" lengthAdjust="spacing" textLength="55.9998" x="785" y="255.3305">&#20010;&#20154;&#20013;&#24515;</text></g><!--entity ?????--><g class="entity" data-qualified-name="............." data-source-line="18" id="ent0010"><rect fill="#F1F1F1" height="46.0986" rx="2.5" ry="2.5" style="stroke:#181818;stroke-width:0.5;" width="109.9997" x="700" y="459.3886"/><rect fill="#F1F1F1" height="10" style="stroke:#181818;stroke-width:0.5;" width="15" x="789.9997" y="464.3886"/><rect fill="#F1F1F1" height="2" style="stroke:#181818;stroke-width:0.5;" width="4" x="787.9997" y="466.3886"/><rect fill="#F1F1F1" height="2" style="stroke:#181818;stroke-width:0.5;" width="4" x="787.9997" y="470.3886"/><text fill="#000000" font-family="sans-serif" font-size="14" lengthAdjust="spacing" textLength="69.9997" x="715" y="492.5205">&#21830;&#21697;&#35814;&#24773;&#39029;</text></g><!--entity ???--><g class="entity" data-qualified-name="..........." data-source-line="19" id="ent0011"><rect fill="#F1F1F1" height="46.0986" rx="2.5" ry="2.5" style="stroke:#181818;stroke-width:0.5;" width="81.9998" x="926" y="566.4886"/><rect fill="#F1F1F1" height="10" style="stroke:#181818;stroke-width:0.5;" width="15" x="987.9998" y="571.4886"/><rect fill="#F1F1F1" height="2" style="stroke:#181818;stroke-width:0.5;" width="4" x="985.9998" y="573.4886"/><rect fill="#F1F1F1" height="2" style="stroke:#181818;stroke-width:0.5;" width="4" x="985.9998" y="577.4886"/><text fill="#000000" font-family="sans-serif" font-size="14" lengthAdjust="spacing" textLength="41.9998" x="941" y="599.6205">&#32842;&#22825;&#39029;</text></g><!--entity ?????--><g class="entity" data-qualified-name="............." data-source-line="20" id="ent0012"><rect fill="#F1F1F1" height="46.0986" rx="2.5" ry="2.5" style="stroke:#181818;stroke-width:0.5;" width="109.9997" x="969" y="352.2886"/><rect fill="#F1F1F1" height="10" style="stroke:#181818;stroke-width:0.5;" width="15" x="1058.9997" y="357.2886"/><rect fill="#F1F1F1" height="2" style="stroke:#181818;stroke-width:0.5;" width="4" x="1056.9997" y="359.2886"/><rect fill="#F1F1F1" height="2" style="stroke:#181818;stroke-width:0.5;" width="4" x="1056.9997" y="363.2886"/><text fill="#000000" font-family="sans-serif" font-size="14" lengthAdjust="spacing" textLength="69.9997" x="984" y="385.4205">&#21457;&#24067;&#21830;&#21697;&#39029;</text></g><!--entity ????--><g class="entity" data-qualified-name="............" data-source-line="21" id="ent0013"><rect fill="#F1F1F1" height="46.0986" rx="2.5" ry="2.5" style="stroke:#181818;stroke-width:0.5;" width="95.9998" x="445" y="352.2886"/><rect fill="#F1F1F1" height="10" style="stroke:#181818;stroke-width:0.5;" width="15" x="520.9998" y="357.2886"/><rect fill="#F1F1F1" height="2" style="stroke:#181818;stroke-width:0.5;" width="4" x="518.9998" y="359.2886"/><rect fill="#F1F1F1" height="2" style="stroke:#181818;stroke-width:0.5;" width="4" x="518.9998" y="363.2886"/><text fill="#000000" font-family="sans-serif" font-size="14" lengthAdjust="spacing" textLength="55.9998" x="460" y="385.4205">&#25105;&#30340;&#21830;&#21697;</text></g><!--entity ????--><g class="entity" data-qualified-name="............" data-source-line="22" id="ent0014"><rect fill="#F1F1F1" height="46.0986" rx="2.5" ry="2.5" style="stroke:#181818;stroke-width:0.5;" width="95.9998" x="576" y="352.2886"/><rect fill="#F1F1F1" height="10" style="stroke:#181818;stroke-width:0.5;" width="15" x="651.9998" y="357.2886"/><rect fill="#F1F1F1" height="2" style="stroke:#181818;stroke-width:0.5;" width="4" x="649.9998" y="359.2886"/><rect fill="#F1F1F1" height="2" style="stroke:#181818;stroke-width:0.5;" width="4" x="649.9998" y="363.2886"/><text fill="#000000" font-family="sans-serif" font-size="14" lengthAdjust="spacing" textLength="55.9998" x="591" y="385.4205">&#25105;&#30340;&#25910;&#34255;</text></g><!--entity ????--><g class="entity" data-qualified-name="............" data-source-line="23" id="ent0015"><rect fill="#F1F1F1" height="46.0986" rx="2.5" ry="2.5" style="stroke:#181818;stroke-width:0.5;" width="95.9998" x="707" y="352.2886"/><rect fill="#F1F1F1" height="10" style="stroke:#181818;stroke-width:0.5;" width="15" x="782.9998" y="357.2886"/><rect fill="#F1F1F1" height="2" style="stroke:#181818;stroke-width:0.5;" width="4" x="780.9998" y="359.2886"/><rect fill="#F1F1F1" height="2" style="stroke:#181818;stroke-width:0.5;" width="4" x="780.9998" y="363.2886"/><text fill="#000000" font-family="sans-serif" font-size="14" lengthAdjust="spacing" textLength="55.9998" x="722" y="385.4205">&#27983;&#35272;&#21382;&#21490;</text></g><!--entity ????--><g class="entity" data-qualified-name="............" data-source-line="24" id="ent0016"><rect fill="#F1F1F1" height="46.0986" rx="2.5" ry="2.5" style="stroke:#181818;stroke-width:0.5;" width="95.9998" x="838" y="352.2886"/><rect fill="#F1F1F1" height="10" style="stroke:#181818;stroke-width:0.5;" width="15" x="913.9998" y="357.2886"/><rect fill="#F1F1F1" height="2" style="stroke:#181818;stroke-width:0.5;" width="4" x="911.9998" y="359.2886"/><rect fill="#F1F1F1" height="2" style="stroke:#181818;stroke-width:0.5;" width="4" x="911.9998" y="363.2886"/><text fill="#000000" font-family="sans-serif" font-size="14" lengthAdjust="spacing" textLength="55.9998" x="853" y="385.4205">&#29992;&#25143;&#21453;&#39304;</text></g><!--entity ???-??--><g class="entity" data-qualified-name="..........-.." data-source-line="28" id="ent0018"><rect fill="#F1F1F1" height="46.0986" rx="2.5" ry="2.5" style="stroke:#181818;stroke-width:0.5;" width="114.6618" x="274.67" y="222.1986"/><rect fill="#F1F1F1" height="10" style="stroke:#181818;stroke-width:0.5;" width="15" x="369.3318" y="227.1986"/><rect fill="#F1F1F1" height="2" style="stroke:#181818;stroke-width:0.5;" width="4" x="367.3318" y="229.1986"/><rect fill="#F1F1F1" height="2" style="stroke:#181818;stroke-width:0.5;" width="4" x="367.3318" y="233.1986"/><text fill="#000000" font-family="sans-serif" font-size="14" lengthAdjust="spacing" textLength="74.6618" x="289.67" y="255.3305">&#31649;&#29702;&#21592;-&#29992;&#25143;</text></g><!--entity ???-??--><g class="entity" data-qualified-name="..........-.." data-source-line="29" id="ent0019"><rect fill="#F1F1F1" height="46.0986" rx="2.5" ry="2.5" style="stroke:#181818;stroke-width:0.5;" width="114.6618" x="274.67" y="352.2886"/><rect fill="#F1F1F1" height="10" style="stroke:#181818;stroke-width:0.5;" width="15" x="369.3318" y="357.2886"/><rect fill="#F1F1F1" height="2" style="stroke:#181818;stroke-width:0.5;" width="4" x="367.3318" y="359.2886"/><rect fill="#F1F1F1" height="2" style="stroke:#181818;stroke-width:0.5;" width="4" x="367.3318" y="363.2886"/><text fill="#000000" font-family="sans-serif" font-size="14" lengthAdjust="spacing" textLength="74.6618" x="289.67" y="385.4205">&#31649;&#29702;&#21592;-&#21830;&#21697;</text></g><!--entity ???-??--><g class="entity" data-qualified-name="..........-.." data-source-line="30" id="ent0020"><rect fill="#F1F1F1" height="46.0986" rx="2.5" ry="2.5" style="stroke:#181818;stroke-width:0.5;" width="114.6618" x="274.67" y="459.3886"/><rect fill="#F1F1F1" height="10" style="stroke:#181818;stroke-width:0.5;" width="15" x="369.3318" y="464.3886"/><rect fill="#F1F1F1" height="2" style="stroke:#181818;stroke-width:0.5;" width="4" x="367.3318" y="466.3886"/><rect fill="#F1F1F1" height="2" style="stroke:#181818;stroke-width:0.5;" width="4" x="367.3318" y="470.3886"/><text fill="#000000" font-family="sans-serif" font-size="14" lengthAdjust="spacing" textLength="74.6618" x="289.67" y="492.5205">&#31649;&#29702;&#21592;-&#35746;&#21333;</text></g><!--entity ???-??--><g class="entity" data-qualified-name="..........-.." data-source-line="31" id="ent0021"><rect fill="#F1F1F1" height="46.0986" rx="2.5" ry="2.5" style="stroke:#181818;stroke-width:0.5;" width="114.6618" x="274.67" y="566.4886"/><rect fill="#F1F1F1" height="10" style="stroke:#181818;stroke-width:0.5;" width="15" x="369.3318" y="571.4886"/><rect fill="#F1F1F1" height="2" style="stroke:#181818;stroke-width:0.5;" width="4" x="367.3318" y="573.4886"/><rect fill="#F1F1F1" height="2" style="stroke:#181818;stroke-width:0.5;" width="4" x="367.3318" y="577.4886"/><text fill="#000000" font-family="sans-serif" font-size="14" lengthAdjust="spacing" textLength="74.6618" x="289.67" y="599.6205">&#31649;&#29702;&#21592;-&#32479;&#35745;</text></g><!--link ??? to ???--><g class="link" data-entity-1="ent0003" data-entity-2="ent0004" data-link-type="dependency" data-source-line="34" id="lnk22"><path d="M116.58,112.7886 C94.19,120.3386 68.44,133.3486 55,155.1986 C41.51,177.1286 54.8883,199.0895 72.0383,217.3995" fill="none" id="&#30331;&#24405;&#39029;-to-&#27880;&#20876;&#39029;" style="stroke:#181818;stroke-width:1;"/><polygon fill="#181818" points="76.14,221.7786,72.9069,212.4756,72.722,218.1294,67.0681,217.9444,76.14,221.7786" style="stroke:#181818;stroke-width:1;"/><text fill="#000000" font-family="sans-serif" font-size="13" lengthAdjust="spacing" textLength="39" x="56" y="168.3925">&#21435;&#27880;&#20876;</text></g><!--link ??? to ???--><g class="link" data-entity-1="ent0004" data-entity-2="ent0003" data-link-type="dependency" data-source-line="35" id="lnk23"><path d="M109.99,221.9886 C120.64,195.6186 136.0532,157.4821 146.7232,131.0621" fill="none" id="&#27880;&#20876;&#39029;-to-&#30331;&#24405;&#39029;" style="stroke:#181818;stroke-width:1;"/><polygon fill="#181818" points="148.97,125.4986,141.8908,132.3459,147.0976,130.1348,149.3087,135.3417,148.97,125.4986" style="stroke:#181818;stroke-width:1;"/><text fill="#000000" font-family="sans-serif" font-size="13" lengthAdjust="spacing" textLength="78.0001" x="137.28" y="168.3925">&#27880;&#20876;&#25104;&#21151;&#36820;&#22238;</text></g><!--link ??? to ??????--><g class="link" data-entity-1="ent0003" data-entity-2="ent0006" data-link-type="dependency" data-source-line="37" id="lnk24"><path d="M199.1,104.3886 C333.36,108.9286 757.64,127.1386 883,179.1986 C905.98,188.7386 923.3232,202.8803 938.2732,217.6603" fill="none" id="&#30331;&#24405;&#39029;-to-&#39318;&#39029;&#21830;&#21697;&#21015;&#34920;" style="stroke:#181818;stroke-width:1;"/><polygon fill="#181818" points="942.54,221.8786,938.952,212.7066,938.9843,218.3634,933.3275,218.3957,942.54,221.8786" style="stroke:#181818;stroke-width:1;"/><text fill="#000000" font-family="sans-serif" font-size="13" lengthAdjust="spacing" textLength="52.0001" x="852.69" y="168.3925">&#26222;&#36890;&#29992;&#25143;</text></g><!--link ??? to ???-??--><g class="link" data-entity-1="ent0003" data-entity-2="ent0018" data-link-type="dependency" data-source-line="38" id="lnk25"><path d="M186.7,125.5586 C198.32,134.6886 211.85,145.3886 224,155.1986 C251.81,177.6186 278.6774,199.8115 300.4474,217.9215" fill="none" id="&#30331;&#24405;&#39029;-to-&#31649;&#29702;&#21592;-&#29992;&#25143;" style="stroke:#181818;stroke-width:1;"/><polygon fill="#181818" points="305.06,221.7586,300.6992,212.9278,301.2161,218.561,295.583,219.078,305.06,221.7586" style="stroke:#181818;stroke-width:1;"/><text fill="#000000" font-family="sans-serif" font-size="13" lengthAdjust="spacing" textLength="39" x="242.79" y="168.3925">&#31649;&#29702;&#21592;</text></g><!--link ?????? to ?????--><g class="link" data-entity-1="ent0006" data-entity-2="ent0010" data-link-type="dependency" data-source-line="40" id="lnk26"><path d="M998.39,268.7786 C1012,276.8586 1027.9,285.6186 1043,292.2886 C1065.62,302.2986 1081.42,289.3086 1096,309.2886 C1119.34,341.2886 1120.46,367.2486 1096,398.3886 C1061.09,442.8286 903.6836,465.8089 816.3636,475.4689" fill="none" id="&#39318;&#39029;&#21830;&#21697;&#21015;&#34920;-to-&#21830;&#21697;&#35814;&#24773;&#39029;" style="stroke:#181818;stroke-width:1;"/><polygon fill="#181818" points="810.4,476.1286,819.7853,479.1148,815.3697,475.5788,818.9056,471.1633,810.4,476.1286" style="stroke:#181818;stroke-width:1;"/></g><!--link ?????? to ?????--><g class="link" data-entity-1="ent0006" data-entity-2="ent0012" data-link-type="dependency" data-source-line="41" id="lnk27"><path d="M973.63,268.5586 C984.75,291.9286 999.5508,323.0013 1010.7108,346.4413" fill="none" id="&#39318;&#39029;&#21830;&#21697;&#21015;&#34920;-to-&#21457;&#24067;&#21830;&#21697;&#39029;" style="stroke:#181818;stroke-width:1;"/><polygon fill="#181818" points="1013.29,351.8586,1013.0327,342.0131,1011.1406,347.3442,1005.8096,345.4521,1013.29,351.8586" style="stroke:#181818;stroke-width:1;"/></g><!--link ???? to ???--><g class="link" data-entity-1="ent0007" data-entity-2="ent0011" data-link-type="dependency" data-source-line="42" id="lnk28"><path d="M1118.13,268.6186 C1130.37,298.9286 1147.38,354.3186 1131,398.3886 C1104.12,470.7186 1040.6637,530.1414 1001.1837,562.2714" fill="none" id="&#28040;&#24687;&#21015;&#34920;-to-&#32842;&#22825;&#39029;" style="stroke:#181818;stroke-width:1;"/><polygon fill="#181818" points="996.53,566.0586,1006.0353,563.4801,1000.408,562.9026,1000.9856,557.2753,996.53,566.0586" style="stroke:#181818;stroke-width:1;"/></g><!--link ???? to ????--><g class="link" data-entity-1="ent0008" data-entity-2="ent0013" data-link-type="dependency" data-source-line="43" id="lnk29"><path d="M769.84,250.2186 C715.62,256.3886 626.31,271.7786 559,309.2886 C539.89,319.9486 526.3529,333.0729 514.2029,347.3229" fill="none" id="&#20010;&#20154;&#20013;&#24515;-to-&#25105;&#30340;&#21830;&#21697;" style="stroke:#181818;stroke-width:1;"/><polygon fill="#181818" points="510.31,351.8886,519.1931,347.6353,513.5541,348.0839,513.1055,342.4448,510.31,351.8886" style="stroke:#181818;stroke-width:1;"/></g><!--link ???? to ????--><g class="link" data-entity-1="ent0008" data-entity-2="ent0014" data-link-type="dependency" data-source-line="44" id="lnk30"><path d="M769.75,265.5886 C744.86,276.6486 714.63,291.7886 690,309.2886 C672.69,321.5986 659.7422,334.0929 647.3322,347.5829" fill="none" id="&#20010;&#20154;&#20013;&#24515;-to-&#25105;&#30340;&#25910;&#34255;" style="stroke:#181818;stroke-width:1;"/><polygon fill="#181818" points="643.27,351.9986,652.3071,348.0832,646.6552,348.3189,646.4195,342.6669,643.27,351.9986" style="stroke:#181818;stroke-width:1;"/></g><!--link ???? to ????--><g class="link" data-entity-1="ent0008" data-entity-2="ent0015" data-link-type="dependency" data-source-line="45" id="lnk31"><path d="M807.03,268.5586 C795.53,291.9286 780.2265,323.0338 768.7065,346.4738" fill="none" id="&#20010;&#20154;&#20013;&#24515;-to-&#27983;&#35272;&#21382;&#21490;" style="stroke:#181818;stroke-width:1;"/><polygon fill="#181818" points="766.06,351.8586,773.6196,345.5457,768.2654,347.3713,766.4398,342.0171,766.06,351.8586" style="stroke:#181818;stroke-width:1;"/></g><!--link ???? to ????--><g class="link" data-entity-1="ent0008" data-entity-2="ent0016" data-link-type="dependency" data-source-line="46" id="lnk32"><path d="M829.84,268.5586 C842.25,291.9286 858.8073,323.1188 871.2473,346.5588" fill="none" id="&#20010;&#20154;&#20013;&#24515;-to-&#29992;&#25143;&#21453;&#39304;" style="stroke:#181818;stroke-width:1;"/><polygon fill="#181818" points="874.06,351.8586,873.3742,342.0337,871.7161,347.4421,866.3077,345.784,874.06,351.8586" style="stroke:#181818;stroke-width:1;"/></g><!--link ???? to ?????--><g class="link" data-entity-1="ent0013" data-entity-2="ent0010" data-link-type="dependency" data-source-line="47" id="lnk33"><path d="M541.36,395.7386 C586.16,413.7086 647.1912,438.1952 694.0912,457.0052" fill="none" id="&#25105;&#30340;&#21830;&#21697;-to-&#21830;&#21697;&#35814;&#24773;&#39029;" style="stroke:#181818;stroke-width:1;"/><polygon fill="#181818" points="699.66,459.2386,692.7958,452.1759,695.0193,457.3774,689.8178,459.601,699.66,459.2386" style="stroke:#181818;stroke-width:1;"/></g><!--link ???? to ?????--><g class="link" data-entity-1="ent0014" data-entity-2="ent0010" data-link-type="dependency" data-source-line="48" id="lnk34"><path d="M652.1,398.8886 C674.21,416.6186 700.1698,437.4543 722.2598,455.1743" fill="none" id="&#25105;&#30340;&#25910;&#34255;-to-&#21830;&#21697;&#35814;&#24773;&#39029;" style="stroke:#181818;stroke-width:1;"/><polygon fill="#181818" points="726.94,458.9286,722.4225,450.1769,723.0398,455.8,717.4167,456.4172,726.94,458.9286" style="stroke:#181818;stroke-width:1;"/></g><!--link ???? to ?????--><g class="link" data-entity-1="ent0015" data-entity-2="ent0010" data-link-type="dependency" data-source-line="49" id="lnk35"><path d="M755,398.8886 C755,416.6186 755,435.2086 755,452.9286" fill="none" id="&#27983;&#35272;&#21382;&#21490;-to-&#21830;&#21697;&#35814;&#24773;&#39029;" style="stroke:#181818;stroke-width:1;"/><polygon fill="#181818" points="755,458.9286,759,449.9286,755,453.9286,751,449.9286,755,458.9286" style="stroke:#181818;stroke-width:1;"/></g><!--link ????? to ???--><g class="link" data-entity-1="ent0010" data-entity-2="ent0011" data-link-type="dependency" data-source-line="50" id="lnk36"><path d="M800.48,505.9886 C837.59,524.3786 884.2042,547.4939 920.1742,565.3239" fill="none" id="&#21830;&#21697;&#35814;&#24773;&#39029;-to-&#32842;&#22825;&#39029;" style="stroke:#181818;stroke-width:1;"/><polygon fill="#181818" points="925.55,567.9886,919.2628,560.4077,921.0702,565.768,915.7098,567.5754,925.55,567.9886" style="stroke:#181818;stroke-width:1;"/></g><!--link ???-?? to ???-??--><g class="link" data-entity-1="ent0018" data-entity-2="ent0019" data-link-type="dependency" data-source-line="52" id="lnk37"><path d="M332,268.5586 C332,291.9286 332,322.4186 332,345.8586" fill="none" id="&#31649;&#29702;&#21592;-&#29992;&#25143;-to-&#31649;&#29702;&#21592;-&#21830;&#21697;" style="stroke:#181818;stroke-width:1;"/><polygon fill="#181818" points="332,351.8586,336,342.8586,332,346.8586,328,342.8586,332,351.8586" style="stroke:#181818;stroke-width:1;"/></g><!--link ???-?? to ???-??--><g class="link" data-entity-1="ent0019" data-entity-2="ent0020" data-link-type="dependency" data-source-line="53" id="lnk38"><path d="M332,398.8886 C332,416.6186 332,435.2086 332,452.9286" fill="none" id="&#31649;&#29702;&#21592;-&#21830;&#21697;-to-&#31649;&#29702;&#21592;-&#35746;&#21333;" style="stroke:#181818;stroke-width:1;"/><polygon fill="#181818" points="332,458.9286,336,449.9286,332,453.9286,328,449.9286,332,458.9286" style="stroke:#181818;stroke-width:1;"/></g><!--link ???-?? to ???-??--><g class="link" data-entity-1="ent0020" data-entity-2="ent0021" data-link-type="dependency" data-source-line="54" id="lnk39"><path d="M332,505.9886 C332,523.7186 332,542.3086 332,560.0286" fill="none" id="&#31649;&#29702;&#21592;-&#35746;&#21333;-to-&#31649;&#29702;&#21592;-&#32479;&#35745;" style="stroke:#181818;stroke-width:1;"/><polygon fill="#181818" points="332,566.0286,336,557.0286,332,561.0286,328,557.0286,332,566.0286" style="stroke:#181818;stroke-width:1;"/></g><?plantuml-src VLB1Ji904BttApRU-G4EVeC9tWo71YiI40cG66DC90Yf12W4484e0HKhYINHW0H4VePfjtzXwPQwsnQEy_QzcPrvBnMDn1DyaZz3gLF--FmY4W-Z4pwM4hYK_PBWGr4-B0JIbp419OLGce-7OmB7fIDf0pWy221Gxg1KqtjZ_R4Fenyi3g7pot4s5-r1PGG56NAl83tleIiEeIEjDOT5mn05rvNw9KE-Q5RNZ59jAVfDMwlBglYzciwrHj4OOhNG1_U60Xfvg6L0REAUJ7fDH3Kpee3LTBYQpLRJ3rXcT_M7GXTd5qPBgp_fZ4S3DPlRV1Hd2l3olgb0gi8qItZsAc9LQzyIZ0BK-WGt9GAC9VmcGZaFqgS9MEEbaZuGdH_Kb9vMoKFrmRcz_U0ZyY0BKX_u1x7IXrB30MhpBbPwvbpA5UJpxTE-83-2yfpK78sRF4hdH-HH5IlhWoxhq7dowEnXtbfAsU7Mk5Os53PcpF3gQGfTJkwWEYrbyqH8L0hOT5bNOoAmdR79X2U32OaNWqqDEtJRsipShIHwz3QI4t4TXlEmo-6YVI4Nv6HkWkk6NCcmqlm7?></g></svg>